<?xml version="1.0" encoding="UTF-8" standalone="no"?>
<!-- Created with Inkscape (http://www.inkscape.org/) -->

<svg
   width="128mm"
   height="182mm"
   viewBox="0 0 128 182"
   version="1.1"
   id="svg1"
   xml:space="preserve"
   inkscape:version="1.4 (86a8ad7, 2024-10-11)"
   sodipodi:docname="pmcp_lujot.svg"
   xmlns:inkscape="http://www.inkscape.org/namespaces/inkscape"
   xmlns:sodipodi="http://sodipodi.sourceforge.net/DTD/sodipodi-0.dtd"
   xmlns="http://www.w3.org/2000/svg"
   xmlns:svg="http://www.w3.org/2000/svg"><sodipodi:namedview
     id="namedview1"
     pagecolor="#ffffff"
     bordercolor="#000000"
     borderopacity="0.25"
     inkscape:showpageshadow="2"
     inkscape:pageopacity="0.0"
     inkscape:pagecheckerboard="0"
     inkscape:deskcolor="#d1d1d1"
     inkscape:document-units="mm"
     showguides="true"
     inkscape:zoom="1.0415234"
     inkscape:cx="300.52134"
     inkscape:cy="337.48643"
     inkscape:window-width="1920"
     inkscape:window-height="1221"
     inkscape:window-x="-9"
     inkscape:window-y="-9"
     inkscape:window-maximized="1"
     inkscape:current-layer="layer1"><sodipodi:guide
       position="17.810951,73.393742"
       orientation="1,0"
       id="guide79"
       inkscape:locked="false" /></sodipodi:namedview><defs
     id="defs1" /><g
     inkscape:label="Layer 1"
     inkscape:groupmode="layer"
     id="layer1"><g
       id="g112"
       transform="matrix(0.87548192,0,0,0.87548192,10.618588,5.9981509)"><path
         style="fill:#000000;stroke-width:0.165182"
         d="m 30.339562,138.41171 c -0.131482,-0.16715 -0.16079,-0.31853 -0.135385,-0.69927 0.01783,-0.26726 2.46e-4,-0.48593 -0.03909,-0.48593 -0.03934,0 -0.217275,0.19112 -0.395413,0.42471 -0.178141,0.2336 -0.323892,0.48137 -0.323892,0.5506 0,0.0692 -0.130628,0.17312 -0.290285,0.23085 -0.159655,0.0578 -0.389566,0.10497 -0.510906,0.10497 -0.121342,0 -0.291008,-0.0778 -0.37704,-0.17284 -0.114477,-0.1265 -0.142981,-0.25564 -0.106307,-0.48164 0.02756,-0.16985 0.117836,-0.37724 0.200606,-0.46088 0.08277,-0.0836 0.506086,-0.32907 0.940695,-0.54541 0.781116,-0.38882 0.793615,-0.40013 1.086979,-0.98394 0.163226,-0.32483 0.317842,-0.74767 0.343591,-0.93964 0.04225,-0.31504 0.02818,-0.34905 -0.144438,-0.34905 -0.105189,0 -0.30724,0.12699 -0.449002,0.2822 -0.14176,0.15521 -0.280572,0.35411 -0.308469,0.44201 -0.02826,0.0891 -0.115113,0.14755 -0.196223,0.13211 -0.08002,-0.0153 -0.157204,-0.10923 -0.171509,-0.20885 -0.01813,-0.12629 0.122256,-0.31788 0.463736,-0.63282 0.341998,-0.31543 0.560807,-0.45086 0.725283,-0.44891 0.129544,10e-4 0.304369,0.055 0.3885,0.1189 0.08491,0.0645 0.152965,0.2309 0.152965,0.37413 0,0.14192 -0.07887,0.42127 -0.175264,0.62079 -0.0964,0.19951 -0.184896,0.44043 -0.19667,0.53537 -0.01178,0.0949 0.01634,0.17941 0.06249,0.18772 0.04614,0.008 0.235401,-0.2744 0.420575,-0.62822 0.185173,-0.35382 0.41603,-0.72783 0.513017,-0.83111 0.09699,-0.10329 0.277882,-0.20722 0.40199,-0.23094 0.124108,-0.0237 0.337338,-0.004 0.473845,0.0434 0.178645,0.0623 0.248194,0.14466 0.248194,0.294 0,0.11412 -0.09329,0.41842 -0.207304,0.67623 -0.114018,0.25782 -0.331746,0.59605 -0.483842,0.75165 -0.152096,0.15559 -0.501316,0.38227 -0.776046,0.50374 -0.274729,0.12147 -0.528595,0.26619 -0.564146,0.32161 -0.03555,0.0554 -0.0471,0.14866 -0.02567,0.20721 0.02143,0.0586 0.0014,0.12971 -0.04462,0.15813 -0.04597,0.0284 -0.08359,0.20435 -0.08359,0.39097 0,0.18664 0.03778,0.36268 0.08396,0.39121 0.04618,0.0285 0.370683,-0.219 0.721123,-0.5501 0.350441,-0.33109 0.751077,-0.70612 0.890303,-0.8334 0.139225,-0.12729 0.326062,-0.23143 0.415191,-0.23143 0.08913,0 0.162055,0.013 0.162055,0.029 0,0.016 -0.394502,0.42712 -0.87667,0.91369 -0.482168,0.48657 -0.989748,0.96519 -1.127957,1.0636 -0.138206,0.0984 -0.311193,0.17893 -0.384414,0.17893 -0.07322,0 -0.208641,-0.096 -0.300937,-0.21333 z m -1.144742,-0.6618 c 0.261984,-0.26461 0.31561,-0.3628 0.218498,-0.40007 -0.07078,-0.0272 -0.220274,-0.002 -0.332198,0.056 -0.111927,0.058 -0.272336,0.16541 -0.356466,0.2388 -0.08413,0.0734 -0.152963,0.206 -0.152963,0.2947 0,0.0887 0.06208,0.16127 0.137965,0.16127 0.07588,0 0.294207,-0.15781 0.485164,-0.35068 z m 2.458271,-1.67154 c 0.101979,-0.0546 0.249744,-0.16275 0.328364,-0.24038 0.07862,-0.0776 0.228602,-0.26521 0.33329,-0.41686 0.104688,-0.15164 0.190342,-0.35583 0.190342,-0.45373 0,-0.0979 -0.04106,-0.20341 -0.09125,-0.23442 -0.05019,-0.031 -0.178025,0.001 -0.28408,0.0722 -0.106054,0.0707 -0.29116,0.31994 -0.411347,0.55384 -0.120188,0.23391 -0.26769,0.45673 -0.327784,0.49518 -0.06009,0.0385 -0.109261,0.12695 -0.109261,0.19667 0,0.0697 0.04192,0.12677 0.09316,0.12677 0.05124,0 0.176593,-0.0447 0.278572,-0.0992 z"
         id="path44" /><path
         style="fill:#000000;stroke-width:0.165182"
         d="m 64.258928,138.40158 c -0.02838,-0.074 0.05589,-0.33948 0.187336,-0.59001 0.131428,-0.25052 0.448295,-0.87097 0.704146,-1.37876 0.25585,-0.50779 0.492115,-1.03055 0.525031,-1.16169 0.0431,-0.17175 0.01435,-0.28866 -0.102666,-0.418 -0.159441,-0.17619 -0.1579,-0.18353 0.08193,-0.38982 0.13444,-0.11564 0.318676,-0.21025 0.409422,-0.21025 0.09074,0 0.217364,0.0748 0.281381,0.16618 0.100726,0.14381 0.13814,0.15028 0.277951,0.048 0.09577,-0.07 0.272848,-0.0991 0.434872,-0.0714 0.150321,0.0257 0.38298,0.0882 0.517022,0.13877 0.134041,0.0506 0.281543,0.16271 0.327783,0.24911 0.04622,0.0864 0.08382,0.30717 0.08352,0.49061 -3.3e-4,0.21204 -0.126101,0.58592 -0.34523,1.02642 -0.189575,0.38109 -0.324677,0.72526 -0.300225,0.76483 0.02445,0.0396 0.101143,0.0719 0.170413,0.0719 0.06927,0 0.125957,0.0377 0.125957,0.084 0,0.0462 -0.04915,0.12471 -0.109259,0.17452 -0.06007,0.0498 -0.357444,0.27279 -0.660782,0.49551 -0.391039,0.28714 -0.660226,0.41723 -0.925152,0.44708 -0.247262,0.0279 -0.467489,-0.006 -0.651051,-0.10133 -0.272649,-0.14099 -0.27913,-0.13966 -0.378153,0.0777 -0.07373,0.16181 -0.168062,0.22112 -0.351692,0.22112 -0.145232,0 -0.27268,-0.0566 -0.302546,-0.1345 z m 2.220649,-1.04164 c 0.188546,-0.2142 0.467438,-0.62329 0.619762,-0.90908 0.152324,-0.28577 0.301673,-0.69998 0.331894,-0.92044 0.03655,-0.26667 0.01815,-0.44514 -0.05489,-0.53318 -0.06038,-0.0728 -0.1803,-0.13233 -0.266436,-0.13233 -0.08614,0 -0.287825,0.12784 -0.448196,0.28408 -0.16037,0.15624 -0.421242,0.48041 -0.57971,0.72037 -0.158474,0.23995 -0.427898,0.72689 -0.598736,1.08206 -0.247878,0.51537 -0.286777,0.66087 -0.192619,0.72054 0.06489,0.0412 0.281812,0.0754 0.482047,0.0761 0.322101,6.3e-4 0.403565,-0.0435 0.706878,-0.38812 z"
         id="path43" /><path
         style="fill:#000000;stroke-width:0.165182"
         d="m 43.655979,138.48918 c -0.105468,-0.0739 -0.231422,-0.28161 -0.279898,-0.46164 -0.05812,-0.21585 -0.05928,-0.50498 -0.0034,-0.84903 0.04659,-0.28695 0.123792,-0.65678 0.171544,-0.82186 0.04775,-0.16508 0.06905,-0.31791 0.04734,-0.33963 -0.02171,-0.0217 -0.13766,0.0248 -0.257656,0.10348 -0.119996,0.0786 -0.317894,0.14295 -0.439772,0.14295 -0.162566,0 -0.221597,-0.0461 -0.221597,-0.17304 0,-0.11162 0.116349,-0.23307 0.327783,-0.34217 0.18028,-0.093 0.53206,-0.37049 0.781732,-0.61661 0.249672,-0.24612 0.481003,-0.53464 0.514069,-0.64118 0.03307,-0.10653 0.129096,-0.29203 0.213401,-0.41221 0.08431,-0.12019 0.256148,-0.40537 0.381872,-0.63372 0.125724,-0.22836 0.330784,-0.60203 0.455688,-0.83039 0.124904,-0.22835 0.31254,-0.53319 0.416969,-0.67742 0.104429,-0.14422 0.246065,-0.37259 0.314747,-0.5075 0.06868,-0.1349 0.293175,-0.4004 0.498872,-0.59 0.214056,-0.19731 0.461765,-0.34474 0.579233,-0.34474 0.112882,0 0.290763,0.091 0.395293,0.2023 0.10453,0.11127 0.190054,0.30538 0.190054,0.43136 0,0.12597 -0.03503,0.32118 -0.07784,0.43378 -0.04282,0.1126 -0.249316,0.383 -0.458897,0.60087 -0.209581,0.21788 -0.737567,0.78715 -1.173302,1.26505 -0.435736,0.47791 -0.930178,1.02626 -1.098762,1.21856 -0.168583,0.1923 -0.358062,0.48731 -0.421065,0.65556 -0.063,0.16827 -0.193199,0.47645 -0.289326,0.68486 -0.114272,0.24775 -0.189767,0.64182 -0.218077,1.13834 -0.03408,0.59771 -0.01619,0.78191 0.08398,0.86505 0.103239,0.0857 0.169736,0.0605 0.351977,-0.13313 0.12358,-0.13133 0.444277,-0.54685 0.712659,-0.92339 0.268382,-0.37653 0.531545,-0.84644 0.584806,-1.04424 0.07911,-0.2938 0.07138,-0.41301 -0.04227,-0.65133 -0.07651,-0.16045 -0.139109,-0.39131 -0.139109,-0.51303 0,-0.12171 0.04072,-0.29737 0.09048,-0.39037 0.05542,-0.10355 0.182637,-0.16907 0.328273,-0.16907 0.164899,0 0.31598,0.0938 0.492871,0.30593 0.140296,0.16826 0.32459,0.30593 0.409543,0.30593 0.08495,0 0.179837,0.041 0.210851,0.0912 0.03101,0.0502 0.0054,0.15261 -0.05681,0.22763 -0.06226,0.075 -0.205396,0.17145 -0.318088,0.21429 -0.13303,0.0506 -0.282587,0.25432 -0.426403,0.5809 -0.12183,0.27665 -0.430438,0.81778 -0.685795,1.2025 -0.255359,0.38472 -0.638186,0.88623 -0.850728,1.11446 -0.292762,0.31438 -0.449107,0.41497 -0.64496,0.41497 -0.142186,0 -0.344813,-0.0604 -0.45028,-0.13431 z m 3.22101,-6.75992 c 0.110025,-0.22243 0.212688,-0.43119 0.228141,-0.46393 0.01545,-0.0327 -0.0068,-0.0811 -0.04945,-0.10744 -0.04265,-0.0263 -0.152578,0.0201 -0.244277,0.10322 -0.0917,0.0831 -0.293264,0.31392 -0.447924,0.51286 -0.154659,0.19893 -0.399382,0.5999 -0.543828,0.89103 -0.144446,0.29113 -0.261469,0.56105 -0.260051,0.59979 0.0014,0.0388 0.253402,-0.19989 0.559963,-0.53033 0.306561,-0.33044 0.647405,-0.78278 0.75743,-1.0052 z"
         id="path42" /><path
         style="fill:#000000;stroke-width:0.165182"
         d="m 33.262631,138.56522 c -0.03205,-0.0321 -0.05827,-0.10687 -0.05827,-0.16627 0,-0.0594 0.108168,-0.15275 0.240374,-0.20745 0.132206,-0.0547 0.349271,-0.15938 0.482367,-0.23262 0.133096,-0.0732 0.310099,-0.2371 0.39334,-0.36414 0.08324,-0.12705 0.153483,-0.29172 0.156094,-0.36594 0.0026,-0.0742 0.03436,-0.44963 0.07055,-0.83424 0.0362,-0.38459 0.1267,-0.9156 0.201126,-1.18001 0.08249,-0.29306 0.116477,-0.64112 0.08705,-0.89153 -0.04179,-0.35567 -0.02512,-0.41812 0.124289,-0.46554 0.101478,-0.0322 0.342599,0.0276 0.585368,0.14532 0.264382,0.12813 0.559167,0.19694 0.819852,0.19135 0.265356,-0.006 0.560298,-0.0921 0.847343,-0.24837 0.242169,-0.1318 0.501508,-0.21616 0.576311,-0.18745 0.0748,0.0287 0.136006,0.0841 0.136006,0.12308 0,0.039 -0.23532,0.3254 -0.522934,0.63646 -0.287613,0.31106 -0.523617,0.5939 -0.524453,0.62852 -8.11e-4,0.0346 -0.393516,0.53376 -0.872623,1.1092 -0.479107,0.57544 -0.894172,1.13817 -0.922367,1.2505 -0.03683,0.14675 0.0082,0.26016 0.160139,0.40285 0.211401,0.19859 0.211401,0.19859 0.681992,-0.2294 0.258825,-0.23539 0.553921,-0.47193 0.655768,-0.52562 0.101848,-0.0537 0.208759,-0.074 0.23758,-0.0452 0.02882,0.0288 -0.05053,0.1956 -0.176336,0.37061 -0.125807,0.17503 -0.462044,0.50403 -0.747195,0.73111 -0.426251,0.33946 -0.559956,0.40265 -0.751815,0.35531 -0.128349,-0.0317 -0.30013,-0.13361 -0.381737,-0.22652 -0.08161,-0.0929 -0.164362,-0.21445 -0.183899,-0.2701 -0.02435,-0.0693 -0.08767,-0.0563 -0.201261,0.0416 -0.09115,0.0785 -0.331338,0.22604 -0.533741,0.32778 -0.202403,0.10175 -0.40235,0.18501 -0.444328,0.18501 -0.04198,0 -0.102546,-0.0263 -0.134595,-0.0583 z m 2.013344,-1.89539 c 0.03845,-0.0649 0.26657,-0.34353 0.506945,-0.6191 0.240374,-0.27556 0.526982,-0.59968 0.636907,-0.72026 0.109925,-0.12058 0.263275,-0.316 0.340777,-0.4343 0.08169,-0.12467 0.107902,-0.24519 0.06236,-0.28675 -0.0432,-0.0394 -0.381477,-0.0958 -0.751721,-0.12515 -0.370244,-0.0294 -0.693069,-0.0213 -0.71739,0.0181 -0.02432,0.0394 -0.102477,0.36319 -0.17368,0.71965 -0.0712,0.35645 -0.137382,0.80544 -0.147064,0.99774 -0.0097,0.19229 -0.01211,0.3988 -0.0054,0.4589 0.0067,0.0601 0.0496,0.10926 0.09528,0.10926 0.04568,0 0.114521,-0.0532 0.152966,-0.11808 z"
         id="path41" /><path
         style="fill:#000000;stroke-width:0.165182"
         d="m 30.234648,148.26764 c -0.03316,-0.0865 0.274092,-0.78692 0.791477,-1.8044 0.46513,-0.91471 0.822074,-1.68673 0.793208,-1.7156 -0.02886,-0.0289 -0.161509,0.0811 -0.294761,0.24437 -0.141597,0.17349 -0.284098,0.271 -0.342911,0.23466 -0.05535,-0.0342 -0.100632,-0.13264 -0.100632,-0.21875 0,-0.0861 0.232898,-0.35911 0.517552,-0.6067 0.338921,-0.29478 0.596303,-0.45015 0.745718,-0.45015 0.125492,0 0.250771,0.0589 0.2784,0.13089 0.02763,0.072 -0.06094,0.33751 -0.19682,0.59002 -0.135879,0.25251 -0.416987,0.80823 -0.624685,1.23495 -0.2077,0.42672 -0.356599,0.79688 -0.330889,0.82258 0.02571,0.0257 0.654047,-0.55942 1.396304,-1.30029 0.742257,-0.74087 1.400793,-1.34704 1.463413,-1.34704 0.06262,0 0.127342,0.07 0.143828,0.15565 0.01649,0.0856 -0.146844,0.51828 -0.362959,0.9615 -0.216114,0.44321 -0.521322,1.19013 -0.678243,1.65981 -0.184201,0.55134 -0.25528,0.88399 -0.200573,0.9387 0.0547,0.0547 0.248845,-0.0233 0.547832,-0.22025 0.254705,-0.16775 0.479333,-0.30499 0.499174,-0.30499 0.01984,0 0.03607,0.0709 0.03607,0.15767 0,0.0867 -0.127836,0.27867 -0.284079,0.42656 -0.156243,0.14789 -0.369995,0.31294 -0.475003,0.36678 -0.105007,0.0538 -0.303644,0.0979 -0.441414,0.0979 -0.137769,0 -0.297692,-0.0472 -0.355382,-0.10489 -0.05769,-0.0577 -0.104891,-0.19009 -0.104891,-0.29423 0,-0.10413 0.214725,-0.75344 0.477167,-1.44291 0.262442,-0.68947 0.464488,-1.26626 0.448992,-1.28176 -0.01549,-0.0155 -0.501781,0.45485 -1.080633,1.04521 -0.578852,0.59036 -1.259096,1.31921 -1.511654,1.61968 -0.252559,0.30047 -0.513242,0.54631 -0.579298,0.54631 -0.06606,0 -0.144497,-0.0636 -0.174313,-0.14128 z"
         id="path40" /><path
         style="fill:#000000;stroke-width:0.165182"
         d="m 53.809798,148.31208 c -0.07386,-0.138 -0.07129,-0.32993 0.01026,-0.76483 0.05987,-0.31931 0.254504,-1.02309 0.432512,-1.56393 0.178009,-0.54084 0.307962,-0.98335 0.288785,-0.98335 -0.01918,0 -0.140399,0.0979 -0.269379,0.21745 -0.207719,0.19261 -0.249384,0.20258 -0.364704,0.0873 -0.115321,-0.11532 -0.04724,-0.21063 0.595894,-0.8342 0.432135,-0.41899 0.784806,-0.69281 0.871121,-0.67637 0.07977,0.0152 0.158104,0.11957 0.174082,0.23196 0.01641,0.11536 -0.04575,0.28624 -0.14274,0.39245 -0.09449,0.10346 -0.239081,0.32112 -0.321322,0.48369 -0.08224,0.16257 -0.297252,0.75257 -0.477805,1.31113 -0.180552,0.55856 -0.354333,1.18273 -0.386182,1.38705 -0.04323,0.27732 -0.02891,0.37148 0.0565,0.37148 0.06292,0 0.25893,-0.148 0.435571,-0.3289 0.176641,-0.1809 0.548461,-0.66236 0.826271,-1.06993 0.27781,-0.40757 0.573943,-0.75412 0.658073,-0.77012 0.08928,-0.017 0.152965,0.0242 0.152965,0.0989 0,0.0704 -0.0778,0.29944 -0.172897,0.50901 -0.09509,0.20957 -0.173161,0.55804 -0.173479,0.77437 -3.31e-4,0.21634 0.03418,0.44824 0.07667,0.51534 0.04248,0.0671 0.136056,0.0994 0.207935,0.0719 0.07188,-0.0276 0.22964,-0.18081 0.350581,-0.34052 0.120941,-0.15971 0.32137,-0.48231 0.445396,-0.7169 0.225502,-0.42652 0.225502,-0.42652 -0.04717,-0.73708 -0.264162,-0.30087 -0.271069,-0.32965 -0.221332,-0.92291 0.04095,-0.48842 0.103047,-0.68373 0.30685,-0.96507 0.140532,-0.194 0.312461,-0.38865 0.382061,-0.43255 0.0816,-0.0515 0.217246,-0.0359 0.381908,0.0438 0.255358,0.12367 0.255358,0.12367 0.248715,0.92452 -0.0066,0.80086 -0.0066,0.80086 0.240375,0.75145 0.14341,-0.0287 0.247018,-0.0115 0.247018,0.0408 0,0.0496 -0.203323,0.26042 -0.451832,0.46849 -0.320317,0.26819 -0.522505,0.53417 -0.694659,0.91384 -0.133555,0.29455 -0.445518,0.75732 -0.693253,1.02839 -0.247735,0.27106 -0.519844,0.49284 -0.604686,0.49284 -0.08484,0 -0.255587,-0.0797 -0.37943,-0.17712 -0.155669,-0.12245 -0.233503,-0.27758 -0.252161,-0.5026 -0.02699,-0.32549 -0.02699,-0.32549 -0.586292,0.26453 -0.43258,0.45632 -0.615071,0.59 -0.805456,0.59 -0.160897,0 -0.280311,-0.0638 -0.34476,-0.18424 z m 3.92336,-3.07447 c 0.06298,-0.2133 0.101973,-0.54087 0.08665,-0.72792 -0.02233,-0.27254 -0.06259,-0.3401 -0.20268,-0.3401 -0.121648,0 -0.206549,0.093 -0.279143,0.30593 -0.05739,0.16826 -0.106551,0.4312 -0.109265,0.58432 -0.0025,0.15311 0.03506,0.38355 0.08393,0.51211 0.06558,0.17247 0.117299,0.21009 0.197429,0.1436 0.05969,-0.0496 0.160102,-0.26463 0.223084,-0.47794 z"
         id="path39" /><path
         style="fill:#000000;stroke-width:0.165182"
         d="m 42.501405,158.29727 c -0.162833,-0.17333 -0.180621,-0.26433 -0.132425,-0.67742 0.03611,-0.30954 0.217608,-0.81499 0.516606,-1.43869 0.253511,-0.52882 0.644444,-1.20733 0.868745,-1.5078 0.333228,-0.44639 0.453271,-0.5463 0.656307,-0.5463 0.136668,0 0.272793,-0.0394 0.302507,-0.0874 0.0297,-0.0481 0.184701,-0.0874 0.344417,-0.0874 0.225994,0 0.339344,0.0642 0.511089,0.28934 0.191941,0.25165 0.261608,0.28456 0.534825,0.25267 0.18652,-0.0218 0.314139,6.2e-4 0.314139,0.0562 0,0.0511 -0.102081,0.16356 -0.226847,0.24994 -0.12477,0.0864 -0.30177,0.22588 -0.393339,0.31001 -0.09767,0.0897 -0.166846,0.2704 -0.167346,0.43704 -3.33e-4,0.15625 -0.0927,0.48075 -0.204955,0.72113 -0.112258,0.24037 -0.344094,0.65338 -0.515194,0.91779 -0.171101,0.26441 -0.462376,0.6236 -0.64728,0.7982 -0.184904,0.17459 -0.422104,0.36143 -0.527111,0.41519 -0.105008,0.0538 -0.383324,0.0977 -0.618481,0.0977 -0.332621,0 -0.469319,-0.0445 -0.615657,-0.20022 z m 1.275154,-0.40807 c 0.19639,-0.14227 0.510989,-0.48644 0.699106,-0.76483 0.188121,-0.27839 0.394433,-0.6045 0.458474,-0.72469 0.06404,-0.12018 0.16491,-0.42548 0.224151,-0.67843 0.102485,-0.43759 0.09854,-0.46463 -0.08131,-0.5568 -0.103961,-0.0533 -0.310693,-0.2119 -0.459401,-0.35248 -0.27038,-0.25561 -0.27038,-0.25561 -0.590732,0.13533 -0.176192,0.21503 -0.535827,0.85595 -0.799185,1.42427 -0.263357,0.56832 -0.479368,1.13925 -0.480025,1.26873 -6.24e-4,0.14515 0.0733,0.2876 0.19307,0.37149 0.106848,0.0748 0.258281,0.13607 0.336521,0.13607 0.07824,0 0.302937,-0.11639 0.499327,-0.25866 z m 1.388197,-3.38337 c -0.03206,-0.0321 -0.0845,-0.0321 -0.116546,0 -0.03203,0.0321 -0.0059,0.0583 0.05827,0.0583 0.0641,0 0.09032,-0.0262 0.05827,-0.0583 z"
         id="path38" /><path
         style="fill:#000000;stroke-width:0.165182"
         d="m 41.619885,148.40892 c -0.0995,-0.0995 -0.174817,-0.29137 -0.174817,-0.44533 0,-0.14878 0.08094,-0.55196 0.179878,-0.89594 0.09893,-0.34399 0.239983,-0.83104 0.313442,-1.08235 0.07346,-0.2513 0.261936,-0.76265 0.418834,-1.13631 0.216458,-0.51553 0.330607,-0.68614 0.473236,-0.70734 0.125786,-0.0187 0.187969,0.0184 0.187969,0.11218 0,0.0771 -0.09365,0.32562 -0.208121,0.55238 -0.114466,0.22676 -0.330347,0.79483 -0.479736,1.2624 -0.149389,0.46757 -0.296871,1.06501 -0.327737,1.32764 -0.03086,0.26263 -0.03017,0.54516 0.0017,0.62785 0.05066,0.13201 0.0905,0.11934 0.326692,-0.10391 0.147951,-0.13984 0.491941,-0.52958 0.764427,-0.86611 0.272484,-0.33652 0.598768,-0.77238 0.725075,-0.96856 0.126304,-0.19619 0.375529,-0.64853 0.55383,-1.0052 0.1783,-0.35668 0.384913,-0.71734 0.459138,-0.80147 0.07422,-0.0841 0.207524,-0.15297 0.296224,-0.15297 0.106666,0 0.161271,0.0635 0.161271,0.18763 0,0.10319 -0.138361,0.39606 -0.307467,0.65084 -0.169107,0.25477 -0.427844,0.73084 -0.574974,1.05795 -0.147127,0.3271 -0.326588,0.82431 -0.398798,1.10492 -0.07221,0.28059 -0.109706,0.53175 -0.08332,0.55814 0.02639,0.0264 0.14699,-0.0169 0.268012,-0.0962 0.121024,-0.0793 0.497948,-0.46813 0.837611,-0.86408 0.339663,-0.39594 0.80238,-0.9999 1.028261,-1.34213 0.225883,-0.34223 0.518851,-0.82407 0.651043,-1.07076 0.166209,-0.31017 0.294283,-0.44852 0.415193,-0.44852 0.113893,0 0.174843,0.0583 0.174843,0.16714 0,0.0919 -0.156676,0.43889 -0.34817,0.77102 -0.191492,0.33215 -0.450522,0.91578 -0.575621,1.29697 -0.125099,0.38119 -0.248708,0.89418 -0.274688,1.14 -0.02961,0.2802 -0.01133,0.46913 0.04899,0.50642 0.05292,0.0327 0.268772,-0.0996 0.479666,-0.29398 0.210895,-0.1944 0.408546,-0.35344 0.439225,-0.35344 0.03068,0 0.05578,0.09 0.05578,0.19995 0,0.12308 -0.160789,0.35832 -0.418195,0.61186 -0.236808,0.23325 -0.499614,0.41191 -0.60591,0.41191 -0.107433,0 -0.265028,-0.10858 -0.368485,-0.25387 -0.09942,-0.13963 -0.18077,-0.35855 -0.18077,-0.4865 0,-0.12794 0.04042,-0.30814 0.08982,-0.40045 0.0494,-0.0923 0.123629,-0.34881 0.164956,-0.57002 0.04133,-0.22122 0.04636,-0.36929 0.0112,-0.32904 -0.03517,0.0402 -0.281142,0.34965 -0.546604,0.68757 -0.265462,0.33792 -0.626958,0.74109 -0.803324,0.89594 -0.200336,0.17589 -0.41391,0.28155 -0.569149,0.28155 -0.136666,0 -0.297153,-0.0586 -0.356638,-0.13032 -0.0732,-0.0882 -0.08852,-0.26125 -0.0474,-0.53547 0.06075,-0.40516 0.06075,-0.40516 -0.224751,-0.0664 -0.15703,0.18635 -0.463544,0.52564 -0.681141,0.754 -0.24682,0.25902 -0.470846,0.4152 -0.595591,0.4152 -0.109975,0 -0.278623,-0.0787 -0.374774,-0.17482 z"
         id="path37" /><path
         style="fill:#000000;stroke-width:0.165182"
         d="m 85.282498,138.78082 c -0.0577,-0.0577 -0.104893,-0.20917 -0.104893,-0.33662 0,-0.12744 0.103677,-0.42442 0.230382,-0.65993 0.126712,-0.23552 0.405056,-0.82155 0.618546,-1.3023 0.21349,-0.48075 0.422697,-0.98559 0.464907,-1.12187 0.0695,-0.22442 0.0627,-0.23717 -0.0722,-0.13526 -0.0819,0.0619 -0.234577,0.18734 -0.339177,0.27879 -0.10461,0.0914 -0.23245,0.14016 -0.28408,0.10825 -0.0516,-0.0319 -0.09389,-0.10788 -0.09389,-0.16882 0,-0.0609 0.31017,-0.41263 0.689237,-0.78152 0.37908,-0.3689 0.726987,-0.67072 0.773137,-0.67072 0.0462,0 0.149937,0.073 0.230657,0.16217 0.0909,0.10039 0.12425,0.22528 0.0877,0.32778 -0.0325,0.0911 -0.11015,0.22552 -0.17253,0.29875 -0.0624,0.0732 -0.331417,0.66028 -0.597844,1.30458 -0.26643,0.64429 -0.46998,1.18588 -0.45233,1.20353 0.0177,0.0177 0.45941,-0.43173 0.981667,-0.99865 0.522257,-0.5669 1.093094,-1.18807 1.268511,-1.38037 0.17541,-0.1923 0.435207,-0.48404 0.577297,-0.64831 0.17555,-0.20292 0.30477,-0.28086 0.40314,-0.24311 0.0796,0.0306 0.14476,0.14014 0.14476,0.24353 0,0.10339 -0.14517,0.42697 -0.32261,0.71907 -0.17745,0.2921 -0.41251,0.74958 -0.522377,1.01664 -0.10987,0.26704 -0.20069,0.55437 -0.20184,0.6385 -0.001,0.11148 0.0677,0.15297 0.255,0.15297 0.141387,0 0.285067,0.0453 0.319287,0.10067 0.0343,0.0555 -0.0125,0.1553 -0.10411,0.22232 -0.0915,0.0669 -0.264647,0.14195 -0.384837,0.16676 -0.12019,0.0248 -0.27245,0.0734 -0.338367,0.10788 -0.0659,0.0346 -0.21043,0.31298 -0.32116,0.61876 -0.11073,0.30581 -0.264037,0.61873 -0.340687,0.69538 -0.10673,0.10673 -0.17482,0.11705 -0.2907,0.0441 -0.0832,-0.0524 -0.165377,-0.16688 -0.182567,-0.25438 -0.0172,-0.0875 0.0963,-0.42266 0.252097,-0.74479 0.22874,-0.47283 0.27187,-0.6469 0.22379,-0.90318 -0.0526,-0.28016 -0.0794,-0.30686 -0.22803,-0.22729 -0.0927,0.0496 -0.379687,0.35482 -0.637837,0.67828 -0.258147,0.32347 -0.537807,0.64486 -0.621454,0.71421 -0.0837,0.0694 -0.26866,0.29552 -0.41114,0.5026 -0.142477,0.20709 -0.288625,0.37651 -0.324779,0.37651 -0.03612,0 -0.112927,-0.0472 -0.170619,-0.10488 z m 3.1152,-3.00224 c 0.0558,-0.12245 0.10143,-0.24526 0.10143,-0.27293 0,-0.0276 -0.0611,3.4e-4 -0.13588,0.0625 -0.0747,0.062 -0.174457,0.18485 -0.221597,0.27293 -0.0638,0.11917 -0.055,0.16016 0.0344,0.16016 0.0661,0 0.16581,-0.10019 0.221597,-0.22264 z"
         id="path36" /><path
         style="fill:#000000;stroke-width:0.165182"
         d="m 28.275069,167.92696 c -0.207938,-0.16357 -0.262664,-0.17227 -0.450598,-0.0717 -0.150323,0.0805 -0.241382,0.087 -0.306323,0.022 -0.06494,-0.0649 -0.04804,-0.27098 0.05687,-0.69314 0.0821,-0.33039 0.257325,-0.81706 0.389376,-1.08147 0.132055,-0.26441 0.365598,-0.78318 0.518989,-1.15282 0.22126,-0.53321 0.259604,-0.70812 0.18555,-0.84649 -0.05134,-0.0959 -0.09335,-0.21175 -0.09335,-0.25738 0,-0.0456 0.08827,-0.10604 0.196153,-0.13426 0.113833,-0.0297 0.246918,-3.3e-4 0.317112,0.0697 0.0944,0.0944 0.100305,0.18021 0.02687,0.39085 -0.08209,0.23548 -0.03217,0.20301 0.391573,-0.25467 0.426753,-0.46095 0.525278,-0.52458 0.81233,-0.52458 0.205466,0 0.380347,0.0593 0.471332,0.15985 0.07956,0.0879 0.144662,0.26051 0.144662,0.38353 0,0.12303 -0.137669,0.42383 -0.305931,0.66844 -0.168262,0.2446 -0.305934,0.47893 -0.305934,0.52071 0,0.0418 0.07867,0.14716 0.174822,0.23417 0.127219,0.11514 0.174815,0.26923 0.174815,0.56592 0,0.33929 -0.05868,0.48636 -0.349637,0.87633 -0.192297,0.25774 -0.349633,0.50223 -0.349633,0.54332 0,0.0411 0.07608,0.034 0.169073,-0.0158 0.09299,-0.0498 0.250324,-0.0905 0.349632,-0.0905 0.09931,0 0.180565,0.0332 0.180565,0.0738 0,0.0406 -0.06883,0.13351 -0.152963,0.2064 -0.08413,0.0729 -0.333425,0.23632 -0.553986,0.36317 -0.311903,0.17941 -0.518096,0.23066 -0.927857,0.23066 -0.405198,0 -0.581486,-0.043 -0.763524,-0.18617 z m 1.160916,-0.64611 c 0.144074,-0.12122 0.383098,-0.4033 0.531161,-0.62684 0.148064,-0.22354 0.26921,-0.4932 0.26921,-0.59926 0,-0.10606 -0.06295,-0.24509 -0.139901,-0.30894 -0.11881,-0.0986 -0.208509,-0.079 -0.594989,0.13007 -0.250298,0.1354 -0.531064,0.23154 -0.623923,0.21366 -0.09286,-0.0179 -0.181067,-0.096 -0.196023,-0.17369 -0.01796,-0.0933 0.132666,-0.23139 0.444176,-0.40719 0.259247,-0.14631 0.601471,-0.39614 0.760494,-0.55516 0.159023,-0.15902 0.360738,-0.44734 0.448258,-0.64071 0.143751,-0.31762 0.14588,-0.36155 0.02203,-0.45483 -0.07541,-0.0568 -0.196169,-0.0806 -0.268363,-0.0529 -0.07219,0.0277 -0.410919,0.42817 -0.752719,0.88993 -0.390389,0.52741 -0.743672,1.13207 -0.950164,1.62625 -0.180791,0.43267 -0.329918,0.87518 -0.331398,0.98335 -0.0027,0.18382 0.034,0.19667 0.558765,0.19667 0.472642,0 0.602884,-0.0349 0.823399,-0.22042 z"
         id="path34" /><path
         style="fill:#000000;stroke-width:0.165182"
         d="m 75.70079,148.4495 c -0.299458,-0.29946 -0.307592,-0.32504 -0.262269,-0.82489 0.04628,-0.51023 0.04391,-0.51684 -0.214545,-0.60695 -0.147402,-0.0514 -0.245421,-0.13951 -0.224849,-0.20216 0.02008,-0.0611 0.151445,-0.12418 0.291967,-0.14022 0.140516,-0.016 0.320728,-0.0877 0.400458,-0.15929 0.07974,-0.0716 0.194772,-0.25511 0.255626,-0.40787 0.06088,-0.15277 0.234231,-0.47443 0.385277,-0.71481 0.151051,-0.24037 0.381764,-0.60575 0.512705,-0.81194 0.130935,-0.2062 0.36433,-0.45189 0.51865,-0.54598 0.15432,-0.0941 0.400552,-0.17123 0.547175,-0.17141 0.146629,-1.6e-4 0.313798,0.0469 0.371491,0.10457 0.0577,0.0577 0.104886,0.27431 0.104886,0.48139 0,0.35554 -0.03874,0.41415 -0.696055,1.05327 -0.382838,0.37223 -0.897402,0.82969 -1.143472,1.01659 -0.24607,0.18689 -0.508383,0.46769 -0.582917,0.62399 -0.08829,0.18516 -0.115871,0.38887 -0.07914,0.58466 0.031,0.16524 0.111136,0.37536 0.178073,0.4669 0.114711,0.15688 0.138507,0.1584 0.414075,0.0265 0.160814,-0.077 0.672502,-0.47937 1.137103,-0.89423 0.464601,-0.41486 0.867766,-0.75429 0.895936,-0.75429 0.02813,0 0.05121,0.0402 0.05121,0.0895 0,0.0492 -0.324502,0.42879 -0.721119,0.84353 -0.396616,0.41473 -0.874528,0.86615 -1.06202,1.00315 -0.187498,0.137 -0.437267,0.24908 -0.555053,0.24908 -0.128602,0 -0.337595,-0.12344 -0.523197,-0.30905 z m 1.49154,-2.91994 c 0.28019,-0.26723 0.583859,-0.62954 0.674829,-0.80511 0.14089,-0.27194 0.147178,-0.33434 0.04248,-0.42126 -0.08652,-0.0718 -0.172372,-0.0756 -0.289778,-0.0127 -0.09176,0.0491 -0.264727,0.219 -0.384371,0.37754 -0.119639,0.15855 -0.361748,0.54772 -0.538018,0.86483 -0.176271,0.3171 -0.320486,0.6071 -0.320486,0.64442 0,0.0373 0.06883,0.0162 0.15296,-0.047 0.08413,-0.0632 0.382214,-0.33348 0.662404,-0.60072 z"
         id="path33" /><path
         style="fill:#000000;stroke-width:0.165182"
         d="m 75.476153,167.97024 c -0.09964,-0.12667 -0.181161,-0.28528 -0.181161,-0.35244 0,-0.0672 0.05402,-0.24871 0.120082,-0.40341 0.06604,-0.1547 0.385519,-0.59037 0.709934,-0.96816 0.582586,-0.67842 0.593995,-0.68622 0.926382,-0.63307 0.288074,0.0461 0.355728,0.0245 0.469778,-0.14953 0.07328,-0.11183 0.170893,-0.39729 0.216927,-0.63435 0.07077,-0.3644 0.05926,-0.46479 -0.0745,-0.64954 -0.08701,-0.12019 -0.229254,-0.23247 -0.316088,-0.24951 -0.105854,-0.0208 -0.384079,0.20543 -0.84412,0.68633 -0.449486,0.46986 -0.731061,0.70011 -0.816193,0.66745 -0.07148,-0.0274 -0.129974,-0.10576 -0.129974,-0.17406 0,-0.0683 0.333397,-0.46287 0.740886,-0.87683 0.705144,-0.71635 0.759218,-0.75265 1.121078,-0.75265 0.288511,0 0.427811,0.0507 0.577671,0.2102 0.10861,0.11561 0.232783,0.36733 0.275929,0.55937 0.05645,0.25126 0.04235,0.46804 -0.05015,0.77315 -0.07075,0.23318 -0.129057,0.45496 -0.129575,0.49285 -3.37e-4,0.0379 0.10722,0.0575 0.239427,0.0437 0.164849,-0.0173 0.240375,0.0153 0.240375,0.10363 0,0.0708 -0.234811,0.28898 -0.521806,0.48476 -0.409135,0.27912 -0.608959,0.50123 -0.925452,1.02866 -0.221999,0.36999 -0.47513,0.75168 -0.562495,0.84823 -0.11186,0.12359 -0.269361,0.17553 -0.532311,0.17553 -0.299333,0 -0.409403,-0.0457 -0.55461,-0.23031 z m 0.695681,-0.29561 c 0.09134,-0.0489 0.324759,-0.36059 0.5187,-0.69268 0.193948,-0.33208 0.352635,-0.6461 0.352635,-0.69779 0,-0.0517 -0.06608,-0.094 -0.146854,-0.094 -0.08077,0 -0.312258,0.17761 -0.514408,0.39469 -0.202151,0.21708 -0.415885,0.51138 -0.474962,0.654 -0.05907,0.14262 -0.0845,0.31901 -0.05651,0.39199 0.02801,0.073 0.0744,0.13269 0.103115,0.13269 0.02869,0 0.126924,-0.04 0.218269,-0.0889 z"
         id="path32" /><path
         style="fill:#000000;stroke-width:0.165182"
         d="m 52.586485,168.14228 c -0.03207,-0.032 -0.05827,-0.12866 -0.05827,-0.21468 0,-0.086 0.175339,-0.50231 0.389637,-0.92508 0.214303,-0.42277 0.568309,-1.18227 0.786683,-1.68778 0.218379,-0.50551 0.397046,-0.95254 0.397046,-0.99341 0,-0.0408 -0.09944,-0.009 -0.220986,0.0705 -0.121548,0.0796 -0.259219,0.12118 -0.305938,0.0923 -0.04671,-0.0289 -0.08494,-0.1046 -0.08494,-0.16828 0,-0.0637 0.160055,-0.26037 0.355671,-0.43711 0.258437,-0.23348 0.419735,-0.31392 0.590012,-0.29425 0.220025,0.0255 0.23347,0.0526 0.220034,0.44413 -0.0085,0.24655 -0.09175,0.55028 -0.203746,0.74297 -0.180807,0.3111 -0.166234,0.30379 0.320243,-0.16058 0.280322,-0.26758 0.658552,-0.61175 0.840505,-0.76483 0.181954,-0.15307 0.42249,-0.27831 0.534522,-0.27831 0.112032,0 0.307329,0.0815 0.434003,0.18115 0.162462,0.1278 0.230313,0.26298 0.230331,0.4589 10e-6,0.15276 -0.09898,0.63175 -0.219982,1.06442 -0.120994,0.43267 -0.298011,1.04514 -0.393358,1.36103 -0.09535,0.3159 -0.173365,0.66008 -0.173365,0.76484 0,0.10475 0.02948,0.19041 0.06556,0.19035 0.03605,-5e-5 0.305854,-0.16722 0.599548,-0.37148 0.293699,-0.20426 0.679017,-0.4856 0.856273,-0.6252 0.228293,-0.17981 0.349466,-0.22664 0.415516,-0.16059 0.05127,0.0513 0.06946,0.13174 0.04042,0.17879 -0.02907,0.047 -0.486127,0.42662 -1.015663,0.84349 -0.823881,0.6486 -1.003698,0.75401 -1.246282,0.73061 -0.238845,-0.023 -0.287977,-0.0666 -0.312002,-0.27664 -0.01571,-0.13712 0.07103,-0.55012 0.192704,-0.9178 0.121678,-0.36767 0.30212,-0.95139 0.400988,-1.29715 0.09887,-0.34575 0.203196,-0.79962 0.231838,-1.00859 0.03966,-0.28925 0.01839,-0.40789 -0.089,-0.49702 -0.120472,-0.1 -0.191539,-0.0837 -0.486597,0.11158 -0.190037,0.12576 -0.599756,0.5266 -0.910482,0.89077 -0.310721,0.36417 -0.722663,0.92758 -0.915414,1.25203 -0.192759,0.32445 -0.418098,0.7645 -0.500762,0.97787 -0.08267,0.21338 -0.229837,0.47647 -0.327056,0.58464 -0.09721,0.10817 -0.222339,0.19666 -0.278062,0.19666 -0.05572,0 -0.12753,-0.0262 -0.159583,-0.0583 z"
         id="path31" /><path
         style="fill:#000000;stroke-width:0.165182"
         d="m 87.664964,148.75928 c -0.10303,-0.0415 -0.25053,-0.16583 -0.32779,-0.27613 -0.0773,-0.1103 -0.140217,-0.31962 -0.139927,-0.46517 3.4e-4,-0.14555 0.0623,-0.38263 0.137677,-0.52686 0.0754,-0.14422 0.20799,-0.46339 0.2946,-0.70925 0.0866,-0.24587 0.319347,-0.72418 0.517177,-1.06293 0.19784,-0.33875 0.560637,-0.83576 0.806234,-1.10448 0.33306,-0.36442 0.50706,-0.48858 0.68475,-0.48858 0.13848,0 0.320793,0.0879 0.435443,0.20993 0.1086,0.11561 0.2188,0.3709 0.24526,0.56816 0.0301,0.22411 0.0134,0.35822 -0.0445,0.35822 -0.0509,0 -0.16426,-0.0941 -0.25189,-0.20904 -0.0876,-0.11498 -0.202823,-0.28199 -0.256013,-0.37113 -0.0863,-0.14458 -0.1209,-0.14913 -0.32088,-0.0421 -0.1233,0.066 -0.36293,0.3215 -0.53252,0.5678 -0.169577,0.24631 -0.463827,0.78215 -0.653884,1.1908 -0.19006,0.40863 -0.40966,0.93482 -0.487987,1.16931 -0.13089,0.39176 -0.13105,0.44372 -0.002,0.64057 0.0814,0.12419 0.192637,0.19417 0.264747,0.1665 0.0684,-0.0263 0.330987,-0.18652 0.583507,-0.35616 0.25251,-0.16964 0.793457,-0.60504 1.202087,-0.96756 0.554493,-0.49193 0.75067,-0.62232 0.77331,-0.51404 0.0179,0.0856 -0.179297,0.35942 -0.480747,0.66761 -0.281093,0.28739 -0.774903,0.73523 -1.097363,0.99521 -0.322447,0.25997 -0.688844,0.51167 -0.814214,0.55933 -0.12537,0.0477 -0.25489,0.0842 -0.28782,0.0811 -0.0329,-0.002 -0.144147,-0.0395 -0.247177,-0.0811 z"
         id="path30" /><path
         style="fill:#000000;stroke-width:0.165182"
         d="m 64.928798,148.67524 c -0.08357,-0.0924 -0.126107,-0.20971 -0.09452,-0.26082 0.03162,-0.0511 0.134896,-0.0929 0.229578,-0.0929 0.09469,0 0.397202,-0.11444 0.672259,-0.25432 0.275062,-0.13987 0.625532,-0.38571 0.778829,-0.5463 0.153291,-0.1606 0.320461,-0.40273 0.371491,-0.53806 0.05102,-0.13534 0.09277,-0.28368 0.09277,-0.32966 0,-0.046 -0.09599,-0.12732 -0.213297,-0.18077 -0.192589,-0.0877 -0.262164,-0.0537 -0.716722,0.3515 -0.276877,0.24679 -0.530083,0.4487 -0.562681,0.4487 -0.03256,0 -0.111561,-0.063 -0.175497,-0.14006 -0.100882,-0.12156 -0.05321,-0.20077 0.360787,-0.59951 0.262363,-0.25269 0.604786,-0.63593 0.76094,-0.85163 0.156154,-0.2157 0.328357,-0.51966 0.382668,-0.67547 0.07955,-0.22818 0.07418,-0.30786 -0.02757,-0.40962 -0.11017,-0.11016 -0.176314,-0.0984 -0.517028,0.092 -0.214894,0.1201 -0.471656,0.32785 -0.570585,0.46167 -0.09893,0.13381 -0.247411,0.37391 -0.329973,0.53355 -0.122658,0.23721 -0.173064,0.27121 -0.275768,0.18597 -0.06912,-0.0574 -0.12567,-0.17285 -0.12567,-0.25664 0,-0.0838 0.165953,-0.35636 0.368784,-0.6057 0.202836,-0.24935 0.571464,-0.56931 0.819175,-0.71104 0.247716,-0.14173 0.552863,-0.25768 0.678103,-0.25768 0.141951,0 0.277932,0.0766 0.36103,0.20344 0.101899,0.15552 0.116052,0.29577 0.06007,0.59536 -0.04023,0.21554 -0.176276,0.54357 -0.30224,0.72894 -0.12597,0.18538 -0.208781,0.36981 -0.18403,0.40985 0.02476,0.0401 0.115247,0.0728 0.201109,0.0728 0.08586,0 0.221213,0.0719 0.300774,0.15985 0.07956,0.0879 0.144658,0.24652 0.144658,0.35245 0,0.10592 -0.0592,0.33433 -0.131602,0.50757 -0.120849,0.28923 -0.119059,0.32476 0.02183,0.43461 0.14303,0.1115 0.135632,0.13441 -0.108766,0.33698 -0.144227,0.11954 -0.498234,0.34554 -0.786683,0.50223 -0.288448,0.15668 -0.60312,0.30799 -0.699274,0.33625 -0.09615,0.0283 -0.277464,0.0768 -0.402922,0.10784 -0.164787,0.0408 -0.270285,0.01 -0.380056,-0.11141 z"
         id="path29" /><path
         style="fill:#000000;stroke-width:0.165182"
         d="m 64.075022,168.23804 c -0.03605,-0.0367 -0.06556,-0.13795 -0.06556,-0.2251 0,-0.0957 0.129912,-0.22355 0.327777,-0.32266 0.180287,-0.0903 0.426126,-0.18785 0.546314,-0.21676 0.120187,-0.0289 0.420463,-0.26066 0.667275,-0.515 0.246818,-0.25435 0.610662,-0.77385 0.808539,-1.15445 0.261297,-0.50257 0.359777,-0.79678 0.359777,-1.07474 0,-0.2898 -0.05208,-0.43481 -0.214545,-0.59726 -0.117998,-0.11801 -0.287488,-0.21456 -0.376637,-0.21456 -0.08915,0 -0.22518,0.0492 -0.302296,0.10926 -0.07712,0.0601 -0.222161,0.24693 -0.322313,0.4152 -0.100158,0.16826 -0.182246,0.37244 -0.182427,0.45373 -1.68e-4,0.0813 -0.04341,0.17445 -0.09612,0.20702 -0.05271,0.0326 -0.15606,-6.2e-4 -0.229708,-0.0747 -0.109328,-0.10932 -0.115877,-0.18563 -0.03568,-0.41568 0.05402,-0.15498 0.278438,-0.49272 0.49869,-0.75052 0.23191,-0.27146 0.472666,-0.46875 0.572007,-0.46875 0.09435,0 0.326505,0.079 0.515899,0.17567 0.189395,0.0966 0.404164,0.29134 0.477269,0.43271 0.0731,0.14137 0.132913,0.47496 0.132913,0.74133 0,0.39601 -0.06418,0.60688 -0.352011,1.15657 -0.193611,0.36975 -0.549901,0.8815 -0.79176,1.13724 -0.24186,0.25573 -0.41541,0.50434 -0.385663,0.55248 0.03549,0.0575 0.117156,0.0538 0.237587,-0.0107 0.100932,-0.054 0.525405,-0.42779 0.943273,-0.83061 0.417874,-0.40283 0.785248,-0.73242 0.816399,-0.73242 0.03113,0 0.05664,0.0791 0.05664,0.17577 0,0.0999 -0.290937,0.48031 -0.674055,0.88131 -0.370736,0.38804 -0.791361,0.78905 -0.934734,0.89114 -0.168611,0.12006 -0.416758,0.1924 -0.702637,0.20482 -0.243082,0.0106 -0.61897,0.0456 -0.835305,0.0778 -0.216341,0.0323 -0.422846,0.0286 -0.458899,-0.008 z"
         id="path28" /><path
         style="fill:#000000;stroke-width:0.165182"
         d="m 41.706033,168.12925 c -0.07899,-0.0873 -0.167826,-0.27972 -0.19741,-0.42763 -0.04155,-0.20777 0.03958,-0.47485 0.356706,-1.17428 0.225771,-0.49795 0.504753,-1.11186 0.619957,-1.36425 0.205225,-0.44961 0.205888,-0.45889 0.03286,-0.45889 -0.09714,0 -0.200373,-0.0619 -0.229414,-0.1376 -0.03435,-0.0895 0.07984,-0.27275 0.326875,-0.52445 0.217852,-0.22198 0.460491,-0.38687 0.569295,-0.38687 0.104291,0 0.240322,0.0611 0.302294,0.13577 0.09495,0.11442 0.02217,0.31719 -0.462847,1.28928 -0.316539,0.63443 -0.654891,1.33052 -0.751888,1.54686 -0.097,0.21634 -0.202103,0.53633 -0.233568,0.71111 -0.03912,0.2173 -0.02166,0.33974 0.0552,0.38725 0.07629,0.0472 0.34489,-0.17701 0.835804,-0.69748 0.419052,-0.44428 0.972647,-1.16763 1.315834,-1.71931 0.325842,-0.52379 0.710999,-1.1396 0.855906,-1.36847 0.168939,-0.26682 0.325316,-0.41612 0.435853,-0.41612 0.09481,0 0.184304,0.0619 0.198876,0.13761 0.01457,0.0757 -0.189947,0.50391 -0.454504,0.9516 -0.264551,0.44769 -0.578877,1.11345 -0.6985,1.47945 -0.119627,0.36601 -0.243366,0.81256 -0.27498,0.99233 -0.04487,0.25519 -0.0268,0.33864 0.08245,0.38055 0.07696,0.0296 0.283712,-0.0311 0.459447,-0.13482 0.237926,-0.14038 0.344133,-0.1631 0.415927,-0.089 0.07103,0.0733 -0.0072,0.18956 -0.296928,0.44144 -0.239699,0.20836 -0.481938,0.342 -0.620166,0.34214 -0.124753,1.3e-4 -0.297418,-0.0778 -0.383694,-0.1731 -0.127779,-0.14119 -0.146521,-0.26139 -0.101068,-0.64813 0.0307,-0.26113 0.08038,-0.54697 0.110407,-0.63519 0.03003,-0.0882 -0.34681,0.26244 -0.837431,0.77925 -0.621827,0.655 -0.951962,0.93963 -1.089853,0.93963 -0.108801,0 -0.262448,-0.0714 -0.341441,-0.1587 z"
         id="path27" /><path
         style="fill:#000000;stroke-width:0.165182"
         d="m 32.531132,167.97795 c -0.310006,-0.31 -0.310006,-0.31 -0.542347,-0.0874 -0.127788,0.12242 -0.299024,0.22259 -0.380523,0.22259 -0.0815,0 -0.148181,-0.0386 -0.148181,-0.0859 0,-0.0472 0.177822,-0.27146 0.39516,-0.49828 0.243518,-0.25416 0.441178,-0.56502 0.515072,-0.81007 0.06595,-0.21871 0.22065,-0.66302 0.343784,-0.98737 0.123132,-0.32434 0.385819,-0.867 0.583749,-1.2059 0.197933,-0.33891 0.479155,-0.75204 0.624947,-0.91809 0.145787,-0.16605 0.333568,-0.3019 0.417287,-0.3019 0.08372,0 0.217312,0.0719 0.296874,0.15984 0.07956,0.0879 0.144661,0.24909 0.144661,0.35815 0,0.10906 -0.415757,0.82229 -0.923904,1.58495 -0.508146,0.76266 -0.96218,1.52527 -1.008959,1.69469 -0.05784,0.2095 -0.0549,0.36437 0.0092,0.48413 0.05183,0.0968 0.142024,0.17583 0.200426,0.17552 0.0584,-3.3e-4 0.209142,-0.0692 0.334974,-0.15297 0.125836,-0.0838 0.329346,-0.27251 0.452238,-0.41932 0.122899,-0.14682 0.319783,-0.44811 0.437523,-0.66955 0.18654,-0.35083 0.208378,-0.48217 0.169811,-1.02119 -0.03046,-0.4258 -0.01004,-0.6598 0.06552,-0.75085 0.06038,-0.0727 0.177531,-0.13227 0.260344,-0.13227 0.08281,0 0.220851,0.0777 0.306757,0.17259 0.120106,0.13272 0.143265,0.2534 0.100248,0.52241 -0.05594,0.34982 -0.05594,0.34982 0.218702,0.2949 0.212465,-0.0425 0.265527,-0.0272 0.234386,0.0676 -0.02213,0.0674 -0.204186,0.23316 -0.404552,0.36836 -0.200366,0.1352 -0.47081,0.4302 -0.600982,0.65556 -0.130176,0.22536 -0.354439,0.55864 -0.498367,0.74063 -0.143931,0.18199 -0.437729,0.4475 -0.652887,0.59002 -0.215162,0.14251 -0.447392,0.25911 -0.516069,0.25911 -0.06868,0 -0.26437,-0.1395 -0.434876,-0.31 z m 1.241963,-3.05524 c 0.116964,-0.1923 0.27621,-0.50697 0.353883,-0.69926 0.141222,-0.34964 0.141222,-0.34964 -0.07888,-0.0874 -0.121057,0.14423 -0.34971,0.49824 -0.50812,0.78668 -0.158413,0.28845 -0.318709,0.60313 -0.356216,0.69928 -0.04521,0.11588 0.0068,0.0864 0.154237,-0.0874 0.12234,-0.14422 0.31813,-0.41955 0.435092,-0.61186 z"
         id="path26" /><path
         style="fill:#000000;stroke-width:0.165182"
         d="m 54.89073,139.94325 c -0.149309,-0.13947 -0.27147,-0.31454 -0.27147,-0.38904 0,-0.0745 0.04451,-0.34388 0.09891,-0.59865 0.0544,-0.25475 0.206356,-0.69919 0.337674,-0.98764 0.13132,-0.28845 0.268969,-0.62279 0.305888,-0.74298 0.03692,-0.12019 0.209148,-0.49386 0.38273,-0.83038 0.173582,-0.33653 0.327474,-0.63667 0.341982,-0.66699 0.01451,-0.0303 -0.07317,-0.0801 -0.194845,-0.11064 -0.121673,-0.0306 -0.286397,-0.15499 -0.366052,-0.27656 -0.119555,-0.18247 -0.135591,-0.36146 -0.09189,-1.02567 0.02911,-0.44255 0.113535,-0.99798 0.187601,-1.23429 0.07407,-0.23632 0.228984,-0.59032 0.344261,-0.78669 0.115276,-0.19635 0.373134,-0.56216 0.573017,-0.81289 0.270961,-0.3399 0.439978,-0.47024 0.664321,-0.51233 0.165492,-0.031 0.442838,-0.0298 0.61632,0.002 0.173489,0.0326 0.409491,0.16067 0.524457,0.28472 0.140772,0.1519 0.208663,0.32842 0.207921,0.54057 -6.05e-4,0.17326 -0.112902,0.53136 -0.249538,0.79577 -0.136636,0.26441 -0.388969,0.74639 -0.560736,1.07106 -0.298173,0.56361 -0.304723,0.59437 -0.144708,0.68001 0.09218,0.0493 0.228767,0.20798 0.303532,0.35256 0.122651,0.23718 0.165429,0.25733 0.437947,0.2062 0.239009,-0.0448 0.302015,-0.0284 0.302015,0.079 0,0.0746 -0.19381,0.29906 -0.430686,0.4988 -0.407632,0.34371 -0.447958,0.41769 -0.753261,1.38189 -0.177412,0.5603 -0.442087,1.27323 -0.588162,1.58428 -0.146077,0.31106 -0.456526,0.80851 -0.689888,1.10546 -0.233363,0.29695 -0.486108,0.56362 -0.561657,0.59261 -0.07555,0.029 -0.208651,0.0527 -0.295785,0.0527 -0.08713,0 -0.280587,-0.11412 -0.429896,-0.2536 z m 0.777436,-0.42472 c 0,-0.0366 0.0885,-0.1649 0.19667,-0.28522 0.108168,-0.12033 0.287146,-0.3756 0.397729,-0.56727 0.110582,-0.19167 0.277315,-0.5179 0.370519,-0.72496 0.0932,-0.20706 0.255177,-0.69874 0.35994,-1.09261 0.104764,-0.39388 0.187175,-0.83414 0.183135,-0.97836 -0.004,-0.14422 -0.03479,-0.39006 -0.06832,-0.54631 -0.03353,-0.15624 -0.0882,-0.28408 -0.121479,-0.28408 -0.03328,0 -0.303292,0.48403 -0.600032,1.07561 -0.29674,0.59158 -0.64248,1.38809 -0.768313,1.77003 -0.125832,0.38193 -0.250156,0.92059 -0.276275,1.19702 -0.04441,0.47001 -0.03537,0.5026 0.139467,0.5026 0.102827,0 0.186958,-0.0299 0.186958,-0.0665 z m 0.789608,-4.50066 c 0.06135,-0.15625 0.237048,-0.48075 0.390439,-0.72112 0.15339,-0.24038 0.406921,-0.69272 0.563399,-1.0052 0.156478,-0.31249 0.317884,-0.60911 0.358672,-0.65915 0.0408,-0.05 0.115166,-0.2739 0.165267,-0.49747 0.05009,-0.22358 0.06906,-0.46393 0.04211,-0.53412 -0.02695,-0.0702 -0.132432,-0.14945 -0.234431,-0.17612 -0.102004,-0.0267 -0.305789,0.0108 -0.452855,0.0833 -0.147062,0.0725 -0.41545,0.31663 -0.596416,0.54249 -0.180966,0.22585 -0.411789,0.62698 -0.512941,0.89139 -0.115751,0.30257 -0.200357,0.77402 -0.228284,1.27203 -0.03739,0.6669 -0.02105,0.8146 0.103992,0.93964 0.0816,0.0816 0.180117,0.14837 0.218926,0.14837 0.0388,0 0.120757,-0.12784 0.182107,-0.28408 z"
         id="path25" /><path
         style="fill:#000000;stroke-width:0.165182"
         d="m 90.859175,140.39734 c -0.0721,-0.0263 -0.21962,-0.12845 -0.32779,-0.22686 -0.108167,-0.0984 -0.196667,-0.23231 -0.196667,-0.29755 0,-0.0652 0.0554,-0.1399 0.12322,-0.16591 0.0678,-0.0259 0.239557,0.0128 0.381737,0.0864 0.250577,0.12958 0.274837,0.12307 0.790814,-0.2122 0.29276,-0.19024 0.573307,-0.34589 0.623457,-0.34589 0.0501,0 0.0912,0.0705 0.0912,0.15662 0,0.0861 -0.16717,0.31491 -0.371477,0.50837 -0.20432,0.19346 -0.481507,0.39832 -0.615977,0.45525 -0.13447,0.057 -0.27214,0.10039 -0.30593,0.0966 -0.0338,-0.004 -0.120447,-0.0284 -0.192547,-0.0548 z"
         id="path24" /><path
         style="fill:#000000;stroke-width:0.165182"
         d="m 30.504196,161.02156 c -0.09586,-0.0536 -0.152424,-0.19 -0.152424,-0.36744 0,-0.15518 0.06541,-0.37939 0.145358,-0.49826 0.07995,-0.11886 0.407851,-0.49146 0.728669,-0.82798 0.402176,-0.42186 0.63071,-0.74758 0.735951,-1.04891 0.08395,-0.24037 0.229007,-0.61405 0.322345,-0.83038 0.112758,-0.26136 0.125363,-0.33468 0.03756,-0.21853 -0.07268,0.0962 -0.3588,0.40203 -0.635822,0.67973 -0.277023,0.2777 -0.599289,0.52959 -0.716145,0.55975 -0.12204,0.0315 -0.308047,0.001 -0.437043,-0.0707 -0.181374,-0.10139 -0.22957,-0.20154 -0.250519,-0.52064 -0.0191,-0.29105 0.04177,-0.54354 0.231141,-0.95868 0.141394,-0.30995 0.397728,-0.86799 0.569631,-1.24008 0.245208,-0.53076 0.277943,-0.65491 0.151927,-0.57621 -0.08835,0.0551 -0.224838,0.0757 -0.303321,0.0456 -0.07848,-0.0301 -0.142691,-0.0871 -0.142691,-0.12671 0,-0.0395 0.175698,-0.24439 0.39044,-0.45514 0.356836,-0.35021 0.409495,-0.37451 0.611864,-0.2823 0.126926,0.0578 0.221421,0.17373 0.221421,0.27158 0,0.0939 -0.256095,0.69458 -0.569102,1.33486 -0.313005,0.64029 -0.602494,1.34865 -0.643304,1.57413 -0.04706,0.26 -0.04196,0.44222 0.01393,0.49812 0.05926,0.0593 0.166213,0.0478 0.326339,-0.0351 0.131002,-0.0677 0.393402,-0.31157 0.583116,-0.54183 0.18971,-0.23026 0.479849,-0.62975 0.644755,-0.88776 0.164899,-0.258 0.53883,-0.92668 0.830952,-1.48595 0.401738,-0.76913 0.577417,-1.02365 0.721121,-1.04478 0.1601,-0.0235 0.189994,0.0146 0.189994,0.24225 0,0.1486 -0.0958,0.41684 -0.212895,0.59609 -0.117094,0.17925 -0.389094,0.75858 -0.604452,1.28741 -0.215355,0.52881 -0.494634,1.19197 -0.62062,1.47366 -0.229063,0.51218 -0.229063,0.51218 -0.01637,0.34964 0.116989,-0.0894 0.374067,-0.29368 0.571287,-0.45396 0.206383,-0.16773 0.358583,-0.24271 0.358583,-0.17664 0,0.0631 -0.31053,0.43027 -0.690067,0.81587 -0.633553,0.64369 -0.719389,0.77507 -1.048117,1.60429 -0.196926,0.49676 -0.435456,1.0119 -0.530064,1.14477 -0.114164,0.16032 -0.254252,0.24391 -0.416525,0.24852 -0.134481,0.004 -0.3131,-0.0314 -0.396932,-0.0784 z m 0.807126,-1.15706 c -9.98e-4,-0.0548 -0.07886,-0.001 -0.172871,0.11895 -0.09401,0.12018 -0.170499,0.25785 -0.169965,0.30593 3.33e-4,0.0481 0.07832,-0.006 0.172871,-0.11895 0.09455,-0.11349 0.171035,-0.25116 0.169965,-0.30593 z"
         id="path23" /><path
         style="fill:#000000;stroke-width:0.165182"
         d="m 75.324946,141.59266 c -0.141627,-0.057 -0.196668,-0.1512 -0.196668,-0.33684 0,-0.1418 0.07403,-0.43053 0.164531,-0.64163 0.09049,-0.21111 0.532997,-0.86894 0.983344,-1.46183 0.450354,-0.59289 0.84256,-1.12161 0.871578,-1.17492 0.029,-0.0533 0.113313,-0.2346 0.187323,-0.40286 0.074,-0.16827 0.175641,-0.42394 0.225854,-0.56816 0.05021,-0.14422 0.117961,-0.39989 0.150559,-0.56816 0.03256,-0.16826 0.09935,-0.35567 0.148338,-0.41647 0.04897,-0.0608 0.108741,-0.3853 0.132762,-0.72112 0.04285,-0.59912 0.03973,-0.61059 -0.167094,-0.61059 -0.115934,0 -0.336604,0.11492 -0.490381,0.25537 -0.153771,0.14045 -0.377149,0.46496 -0.4964,0.72113 -0.11924,0.25616 -0.294649,0.66243 -0.389793,0.9028 -0.09514,0.24038 -0.368247,0.81013 -0.606894,1.26613 -0.238647,0.456 -0.496132,0.86834 -0.572182,0.91631 -0.09985,0.063 -0.177125,0.0483 -0.278119,-0.0526 -0.128203,-0.12819 -0.08064,-0.25741 0.570697,-1.55053 0.491984,-0.97675 0.726452,-1.54495 0.76225,-1.84721 0.05015,-0.42333 0.04491,-0.43654 -0.171555,-0.43654 -0.167163,0 -0.304704,0.11096 -0.547486,0.4417 -0.234331,0.31921 -0.373861,0.43435 -0.5032,0.41519 -0.09843,-0.0146 -0.193137,-0.0696 -0.210465,-0.12232 -0.01734,-0.0527 0.154938,-0.32229 0.382819,-0.59909 0.227874,-0.2768 0.507035,-0.53852 0.620355,-0.5816 0.113313,-0.0431 0.321477,-0.0783 0.462573,-0.0783 0.143891,0 0.336965,0.0804 0.439706,0.18317 0.183169,0.18317 0.183169,0.18317 0.415192,-0.0297 0.12761,-0.11711 0.355816,-0.26164 0.507123,-0.32117 0.229253,-0.0902 0.319094,-0.0855 0.539028,0.0283 0.173545,0.0897 0.284089,0.2283 0.322812,0.4046 0.03967,0.18073 -0.01067,0.4875 -0.154469,0.94117 -0.117356,0.37017 -0.278793,0.89457 -0.35876,1.16533 -0.07997,0.27075 -0.122315,0.55244 -0.0941,0.62595 0.02819,0.0735 -0.04872,0.28482 -0.17098,0.46956 -0.122253,0.18473 -0.303657,0.57173 -0.403129,0.85998 -0.09946,0.28827 -0.238447,0.70112 -0.308858,0.91746 -0.07041,0.21634 -0.236046,0.59768 -0.368085,0.84742 -0.132027,0.24975 -0.409391,0.63325 -0.616357,0.85223 -0.206966,0.219 -0.423301,0.39567 -0.48075,0.39263 -0.05745,-0.002 -0.19295,-0.0411 -0.301117,-0.0846 z m 1.23552,-1.7732 c 0.13809,-0.32492 0.230233,-0.6116 0.204764,-0.63706 -0.02545,-0.0255 -0.22226,0.20219 -0.437317,0.50592 -0.21505,0.30373 -0.454944,0.67811 -0.533096,0.83197 -0.07815,0.15385 -0.141601,0.35052 -0.140996,0.43704 4.61e-4,0.11726 0.0844,0.0676 0.328332,-0.1949 0.179976,-0.19372 0.440224,-0.61806 0.578313,-0.94297 z"
         id="path22" /><path
         style="fill:#000000;stroke-width:0.165182"
         d="m 84.924686,170.27303 c -0.113825,-0.12578 -0.140927,-0.24812 -0.100146,-0.45203 0.03075,-0.15377 0.22082,-0.49901 0.42236,-0.7672 0.201545,-0.26819 0.655863,-0.79243 1.0096,-1.16497 0.35373,-0.37253 0.620407,-0.71412 0.592637,-0.75906 -0.0278,-0.0449 -0.179457,-0.0608 -0.337047,-0.0353 -0.20245,0.0329 -0.321597,0.004 -0.406037,-0.0975 -0.10471,-0.12618 -0.0715,-0.19483 0.268577,-0.55486 0.21344,-0.22597 0.473617,-0.53449 0.578157,-0.68559 0.10455,-0.15111 0.32823,-0.53513 0.497067,-0.85339 0.22903,-0.43171 0.28927,-0.62829 0.23727,-0.77417 -0.0384,-0.10753 -0.20042,-0.26242 -0.36016,-0.34419 -0.187187,-0.0958 -0.339907,-0.12193 -0.429637,-0.0734 -0.0766,0.0414 -0.296547,0.23075 -0.488837,0.42078 -0.192297,0.19003 -0.441127,0.4689 -0.552957,0.61972 -0.11182,0.1508 -0.239656,0.2742 -0.284075,0.2742 -0.04441,0 -0.08076,-0.1265 -0.08076,-0.28111 0,-0.23416 0.108429,-0.38745 0.649195,-0.9178 0.527677,-0.51751 0.700534,-0.63668 0.923534,-0.63668 0.15088,0 0.360257,0.0442 0.465257,0.0981 0.10501,0.054 0.2991,0.19898 0.431307,0.32228 0.14517,0.13541 0.23885,0.31291 0.23653,0.44822 -0.002,0.12321 -0.0573,0.37404 -0.12274,0.55741 -0.0654,0.18335 -0.319337,0.66022 -0.564307,1.05971 -0.244987,0.39948 -0.445417,0.78797 -0.445417,0.86332 0,0.0754 0.037,0.15988 0.0823,0.18784 0.0452,0.028 0.291087,-0.13387 0.546307,-0.35964 0.255227,-0.22577 0.939614,-0.89534 1.520871,-1.48794 0.63962,-0.65208 1.124453,-1.07743 1.228093,-1.07743 0.0942,0 0.218457,0.0472 0.276147,0.10489 0.0604,0.0604 0.10489,0.34981 0.10489,0.68257 0,0.32894 0.0478,0.64301 0.11098,0.72944 0.104027,0.14227 0.132767,0.14278 0.458897,0.008 0.191347,-0.079 0.693144,-0.34193 1.115084,-0.58434 0.42194,-0.24241 0.792503,-0.41541 0.823443,-0.38447 0.0309,0.0309 -0.0389,0.15939 -0.15531,0.28542 -0.116373,0.12603 -0.545923,0.44675 -0.954563,0.71269 -0.555947,0.36183 -0.845274,0.49367 -1.149404,0.52376 -0.355607,0.0352 -0.422627,0.0144 -0.535897,-0.16673 -0.0712,-0.11382 -0.152587,-0.41878 -0.180857,-0.6777 -0.0283,-0.25891 -0.0693,-0.48867 -0.0912,-0.51058 -0.0219,-0.0219 -0.11282,-0.0167 -0.20202,0.0117 -0.0892,0.0283 -0.658313,0.53341 -1.26468,1.12245 -0.606357,0.58903 -1.185204,1.20863 -1.286304,1.3769 -0.10111,0.16826 -0.18398,0.37084 -0.18416,0.45019 -1.7e-4,0.0793 -0.153497,0.47735 -0.340687,0.88447 -0.263657,0.5734 -0.485417,0.89054 -0.984014,1.40725 -0.354016,0.36687 -0.706095,0.66703 -0.782407,0.66703 -0.07631,0 -0.208974,-0.0776 -0.294811,-0.17245 z m 0.787444,-0.71593 c 0.173203,-0.15207 0.432913,-0.51025 0.57713,-0.79594 0.15733,-0.31168 0.21614,-0.50438 0.14701,-0.48181 -0.0633,0.0207 -0.305007,0.2707 -0.537017,0.55557 -0.232009,0.28487 -0.478859,0.62611 -0.548552,0.75831 -0.06969,0.13221 -0.08775,0.24038 -0.04011,0.24038 0.04766,0 0.22833,-0.12443 0.401539,-0.27651 z"
         id="path21" /><path
         style="fill:#000000;stroke-width:0.178135"
         d="m 54.094149,101.56074 c -0.03203,-0.0373 -0.05827,-0.18753 -0.05827,-0.33391 0,-0.14637 0.07538,-0.51614 0.1675,-0.82171 0.09212,-0.30557 0.210424,-0.915908 0.262886,-1.356307 0.05247,-0.440398 0.155524,-1.1037 0.229014,-1.474005 0.07349,-0.370306 0.173042,-0.844825 0.221228,-1.054491 0.0658,-0.28631 0.133059,-0.381203 0.27018,-0.381203 0.166163,0 0.178325,0.04341 0.135318,0.482858 -0.026,0.265581 -0.09788,0.744622 -0.159763,1.064546 -0.108437,0.560592 -0.10499,0.590995 0.09507,0.838661 0.11417,0.14134 0.279739,0.25698 0.367925,0.25698 0.08819,0 0.405837,-0.260111 0.705884,-0.578026 0.300048,-0.317916 0.696155,-0.821109 0.880235,-1.118209 0.290075,-0.468175 0.373872,-0.540189 0.628556,-0.540189 0.161618,0 0.318165,-0.04578 0.347875,-0.101655 0.02969,-0.05589 0.164887,-0.101656 0.300388,-0.101656 0.135501,0 0.298092,0.07249 0.361317,0.161088 0.08776,0.122976 0.204022,0.145556 0.491448,0.09542 0.334102,-0.05826 0.376499,-0.04341 0.376499,0.132189 0,0.108816 -0.09834,0.27278 -0.218524,0.364367 -0.174025,0.132613 -0.218525,0.251029 -0.218525,0.581539 0,0.228255 -0.05913,0.680486 -0.131434,1.004939 -0.07229,0.324458 -0.222603,0.811384 -0.334021,1.082055 -0.111417,0.270679 -0.273615,0.629379 -0.36045,0.797109 -0.08683,0.16773 -0.296857,0.43077 -0.466727,0.58451 -0.169877,0.15376 -0.406054,0.27956 -0.524844,0.27956 -0.118791,0 -0.348526,-0.0953 -0.510524,-0.2117 -0.161995,-0.11644 -0.323294,-0.33373 -0.358437,-0.48287 -0.03514,-0.14913 -0.06458,-0.54562 -0.06541,-0.881097 -6.24e-4,-0.335462 0.03096,-0.78881 0.07064,-1.007453 0.07215,-0.39752 0.07215,-0.39752 -0.389265,0.08495 -0.383074,0.400552 -0.50663,0.474993 -0.727715,0.438428 -0.146464,-0.0242 -0.330054,-0.07652 -0.407985,-0.116208 -0.09408,-0.04791 -0.161539,-0.01198 -0.200782,0.106951 -0.0325,0.09851 -0.08,0.54715 -0.105554,0.996979 -0.02556,0.44984 -0.08935,0.9208 -0.141768,1.0466 -0.05526,0.1326 -0.174822,0.22873 -0.284499,0.22873 -0.104051,0 -0.215405,-0.0305 -0.247455,-0.0678 z m 3.675075,-0.89901 c 0.10367,-0.0845 0.327758,-0.42019 0.497985,-0.746086 0.170226,-0.325887 0.376649,-0.917942 0.45873,-1.315662 0.118947,-0.576411 0.128478,-0.776085 0.04697,-0.984106 -0.0562,-0.143535 -0.201059,-0.304672 -0.321839,-0.358073 -0.12078,-0.05339 -0.219597,-0.143984 -0.219597,-0.201277 0,-0.05726 -0.04242,-0.104163 -0.09426,-0.104163 -0.05183,0 -0.24524,0.182745 -0.429775,0.406116 -0.217483,0.263248 -0.399249,0.62978 -0.516721,1.041966 -0.09967,0.349715 -0.1875,0.841705 -0.195185,1.093301 -0.0077,0.251597 0.01623,0.571814 0.05317,0.711594 0.03693,0.13977 0.127584,0.33419 0.201458,0.43203 0.07388,0.0978 0.178473,0.1779 0.232441,0.1779 0.05396,0 0.182938,-0.0691 0.286608,-0.15354 z"
         id="path20" /><path
         style="fill:#000000;stroke-width:0.165182"
         d="M 44.071814,91.106466 C 43.8707,90.99163 43.656954,90.769993 43.552749,90.568242 43.445765,90.361101 43.377988,90.06644 43.38164,89.824337 c 0.0033,-0.220489 0.06732,-0.640054 0.1422,-0.932351 0.07488,-0.292297 0.256535,-0.783564 0.403669,-1.091686 0.147134,-0.308135 0.399158,-0.742564 0.560054,-0.965411 0.258629,-0.358211 0.304232,-0.508021 0.393427,-1.292415 0.05549,-0.487979 0.100889,-1.01868 0.100889,-1.179338 0,-0.160651 0.05378,-0.336728 0.119516,-0.391283 0.0908,-0.07536 0.145361,-0.06805 0.22708,0.03044 0.07473,0.09005 0.08805,0.27046 0.04364,0.591095 -0.03516,0.253811 -0.0624,0.684285 -0.06052,0.956603 0.0019,0.272318 0.02839,0.573872 0.05894,0.670113 0.03055,0.09624 0.1621,0.214102 0.292341,0.261907 0.130242,0.04778 0.402967,0.246738 0.606055,0.442077 0.203089,0.195339 0.39516,0.458388 0.426826,0.584557 0.03167,0.126163 0.03639,0.569693 0.0105,0.985621 -0.02589,0.415922 -0.109523,0.927573 -0.185852,1.137009 -0.07633,0.209424 -0.344544,0.618297 -0.596034,0.908592 -0.25149,0.290301 -0.584835,0.58112 -0.740767,0.646279 -0.155932,0.06515 -0.392943,0.117811 -0.526694,0.117019 -0.13375,-4.62e-4 -0.39704,-0.08929 -0.585089,-0.196668 z m 1.433741,-0.661212 c 0.391414,-0.39142 0.541918,-0.618222 0.648573,-0.977369 0.07639,-0.257216 0.134963,-0.726033 0.130171,-1.041816 -0.0048,-0.315782 -0.03429,-0.664025 -0.06556,-0.773876 -0.03126,-0.109858 -0.190204,-0.336024 -0.353199,-0.502601 -0.217801,-0.222591 -0.371626,-0.30287 -0.580327,-0.30287 -0.156184,0 -0.364719,0.06883 -0.463412,0.152966 -0.09869,0.08413 -0.297364,0.3892 -0.441491,0.677923 -0.144129,0.288736 -0.302781,0.701744 -0.35256,0.917799 -0.04978,0.216054 -0.09147,0.580097 -0.09264,0.80897 -0.0012,0.242495 0.07197,0.570772 0.175442,0.786683 0.09767,0.203797 0.225505,0.432988 0.28408,0.509324 0.05857,0.07633 0.165499,0.161724 0.237612,0.189769 0.07211,0.02801 0.183427,0.05408 0.247367,0.05788 0.06394,0.0037 0.345614,-0.22246 0.625944,-0.502787 z"
         id="path18" /><path
         style="fill:#000000;stroke-width:0.165182"
         d="m 55.889527,91.402032 c -0.137109,-0.03824 -0.290005,-0.205825 -0.422292,-0.462892 -0.17191,-0.334046 -0.206441,-0.529048 -0.201954,-1.140402 0.0033,-0.450279 0.06954,-0.955905 0.170086,-1.298434 0.09057,-0.308528 0.208463,-0.718305 0.261985,-0.910607 0.05352,-0.192301 0.263897,-0.605303 0.467503,-0.917792 0.203605,-0.312489 0.469977,-0.670918 0.591939,-0.79652 0.121961,-0.125595 0.349901,-0.370736 0.506536,-0.544754 0.156634,-0.174019 0.3828,-0.380617 0.5026,-0.459112 0.119795,-0.0785 0.217814,-0.176775 0.217814,-0.218399 0,-0.04161 -0.186837,-0.05477 -0.415192,-0.02919 -0.228355,0.02558 -0.554721,0.08752 -0.725253,0.137585 -0.221044,0.0649 -0.416818,0.06231 -0.68192,-0.0091 -0.204523,-0.05508 -0.395578,-0.161937 -0.424567,-0.237481 -0.03215,-0.08377 0.0118,-0.173457 0.112638,-0.229889 0.09946,-0.05564 0.729148,-0.08883 1.580158,-0.08325 0.852378,0.0056 1.486973,0.04791 1.596332,0.106434 0.09984,0.05346 0.181529,0.134702 0.181529,0.180612 0,0.04591 -0.245839,0.195076 -0.546308,0.331494 -0.374846,0.170195 -0.710907,0.419197 -1.070759,0.793401 -0.288448,0.299945 -0.612752,0.69023 -0.720674,0.867299 -0.107923,0.177062 -0.196424,0.354087 -0.19667,0.393378 -2.48e-4,0.0393 0.08333,0.04485 0.185721,0.01235 0.102393,-0.0325 0.297623,-0.0668 0.433843,-0.07623 0.136225,-0.0094 0.321721,0.02433 0.412223,0.07505 0.0905,0.05071 0.283159,0.229865 0.428123,0.398126 0.144969,0.168261 0.332829,0.441091 0.417475,0.606283 0.116825,0.228012 0.142911,0.428023 0.108304,0.83039 -0.03219,0.374104 -0.131746,0.688464 -0.33845,1.068632 -0.161063,0.296227 -0.469852,0.738883 -0.686187,0.983662 -0.216342,0.244785 -0.517289,0.503917 -0.668779,0.575856 -0.15149,0.07194 -0.407161,0.126887 -0.568157,0.12209 -0.160997,-0.005 -0.389438,-0.03568 -0.507647,-0.06865 z m 0.971076,-0.574403 c 0.173791,-0.118091 0.458261,-0.408536 0.632155,-0.645424 0.173894,-0.236888 0.316169,-0.486401 0.316169,-0.554479 0,-0.06808 0.03892,-0.162729 0.08657,-0.210341 0.04759,-0.04759 0.111555,-0.268837 0.142088,-0.491597 0.03057,-0.222772 0.03032,-0.53929 -4.37e-4,-0.703372 -0.03081,-0.164089 -0.196118,-0.462081 -0.367417,-0.662198 -0.208856,-0.244005 -0.382332,-0.363856 -0.526642,-0.363856 -0.118355,0 -0.365331,0.07659 -0.548833,0.170208 -0.193589,0.09876 -0.373981,0.273047 -0.429742,0.415191 -0.05286,0.13474 -0.161372,0.477207 -0.241148,0.761034 -0.111104,0.395287 -0.130655,0.681042 -0.08355,1.221068 0.03382,0.387759 0.116216,0.810823 0.183092,0.940148 0.06688,0.129326 0.171588,0.255252 0.232694,0.279841 0.0611,0.02458 0.151136,0.04778 0.20007,0.05159 0.04893,0.0037 0.231162,-0.08972 0.404953,-0.207821 z"
         id="path17" /><path
         style="fill:#000000;stroke-width:0.165182"
         d="M 32.709481,91.248105 C 32.59159,91.1209 32.495133,90.9312 32.495133,90.82655 c 0,-0.104643 -0.117242,-0.432295 -0.260538,-0.728111 -0.185635,-0.383224 -0.297684,-0.523596 -0.389746,-0.488266 -0.07107,0.02726 -0.296528,0.38575 -0.501024,0.796619 -0.289072,0.58079 -0.430896,0.771881 -0.637308,0.858672 -0.185195,0.07787 -0.298538,0.08422 -0.374755,0.02096 -0.06009,-0.04984 -0.10926,-0.125565 -0.10926,-0.16823 0,-0.04267 0.08243,-0.146012 0.183171,-0.229671 0.100738,-0.08366 0.425246,-0.446306 0.721121,-0.805895 0.506063,-0.615016 0.537516,-0.679794 0.530551,-1.09261 -0.0041,-0.241354 -0.07395,-0.630117 -0.155286,-0.863905 -0.08133,-0.2338 -0.228554,-0.602172 -0.327156,-0.818613 -0.0986,-0.216441 -0.186057,-0.497168 -0.19435,-0.62383 -0.0115,-0.175478 0.02564,-0.230295 0.156,-0.230295 0.11793,0 0.263021,0.162922 0.467063,0.524458 0.162793,0.288448 0.31674,0.649903 0.342104,0.803237 0.02537,0.153328 0.106934,0.302128 0.181267,0.330647 0.07433,0.02851 0.173641,0.01335 0.220684,-0.03362 0.04704,-0.04703 0.270476,-0.3925 0.49652,-0.767689 0.226043,-0.37519 0.475981,-0.694883 0.555417,-0.710421 0.07944,-0.01553 0.144431,0.01809 0.144431,0.07473 0,0.05664 -0.118002,0.277844 -0.262227,0.491541 -0.144224,0.213696 -0.262226,0.423806 -0.262226,0.46689 0,0.0431 -0.140456,0.317996 -0.312125,0.610905 -0.253377,0.43232 -0.300712,0.584513 -0.251497,0.808589 0.03334,0.151819 0.217777,0.612452 0.40985,1.023634 0.192072,0.411181 0.389843,0.834762 0.439491,0.941296 0.06585,0.141289 0.06016,0.229958 -0.02102,0.327777 -0.06121,0.07375 -0.16735,0.134091 -0.235871,0.134091 -0.06852,0 -0.221042,-0.104076 -0.338933,-0.231287 z"
         id="path16" /><path
         style="fill:#000000;stroke-width:0.165182"
         d="m 41.800293,101.03533 c -0.145567,-0.0588 -0.198823,-0.17972 -0.246238,-0.55922 -0.03327,-0.26632 -0.03337,-0.672576 -1.64e-4,-0.902802 0.03316,-0.23022 0.170032,-0.851261 0.304167,-1.380085 0.134132,-0.528824 0.289435,-1.187665 0.345114,-1.4641 0.08986,-0.446137 0.125089,-0.502601 0.31356,-0.502601 0.18149,0 0.212324,0.04148 0.212324,0.285492 0,0.157021 -0.137668,0.8321 -0.305929,1.500185 -0.210349,0.835187 -0.305931,1.413451 -0.305931,1.850861 0,0.3499 0.03527,0.65798 0.07836,0.68461 0.0431,0.0266 0.35003,-0.27588 0.682071,-0.672265 0.332038,-0.396379 0.783606,-0.976358 1.003481,-1.288841 0.272199,-0.386854 0.492824,-0.854068 0.691357,-1.4641 0.291435,-0.895493 0.291725,-0.895942 0.578924,-0.895942 0.219703,0 0.287341,0.03749 0.287341,0.159242 0,0.08759 -0.06565,0.353096 -0.145904,0.590015 -0.08025,0.236919 -0.212722,0.550549 -0.294388,0.696954 -0.08167,0.146404 -0.214181,0.590408 -0.294475,0.986681 -0.0803,0.396267 -0.121929,0.846827 -0.09252,1.00124 0.0294,0.154407 0.132879,0.378086 0.229927,0.497066 0.176451,0.21632 0.176451,0.21632 0.430923,-0.0874 0.139961,-0.167048 0.397976,-0.520069 0.57337,-0.784478 0.175395,-0.264408 0.46258,-0.699904 0.638192,-0.967762 0.175612,-0.267852 0.361586,-0.602191 0.413275,-0.742969 0.05169,-0.140784 0.188843,-0.511633 0.304783,-0.824122 0.181071,-0.488029 0.24111,-0.568164 0.42568,-0.568164 0.154297,0 0.222538,0.05377 0.242036,0.190754 0.01493,0.104918 -0.03651,0.313874 -0.114327,0.464357 -0.07782,0.150484 -0.216758,0.618497 -0.308763,1.040032 -0.138072,0.632631 -0.151783,0.862602 -0.07855,1.317341 0.0488,0.302995 0.148164,0.665853 0.220814,0.806341 0.132089,0.25544 0.132089,0.25544 0.436296,-0.01166 0.167316,-0.146909 0.381507,-0.267103 0.475986,-0.267103 0.09448,0 0.171774,0.03019 0.171774,0.06712 0,0.03693 -0.102901,0.218563 -0.228673,0.403653 -0.125772,0.18508 -0.351943,0.44874 -0.502599,0.58588 -0.150661,0.13715 -0.336665,0.25052 -0.413345,0.25193 -0.07668,0.001 -0.2006,-0.0663 -0.275377,-0.15041 -0.07477,-0.0841 -0.201273,-0.3103 -0.281109,-0.5026 -0.07983,-0.1923 -0.154923,-0.614208 -0.166872,-0.937569 -0.01193,-0.323355 -0.04319,-0.609396 -0.06943,-0.635631 -0.02623,-0.02626 -0.200899,0.218661 -0.388136,0.544224 -0.187237,0.325563 -0.565991,0.820636 -0.841674,1.100176 -0.435183,0.44125 -0.538851,0.50461 -0.786513,0.48074 -0.230477,-0.0222 -0.321712,-0.0946 -0.475055,-0.37712 -0.12082,-0.22258 -0.192354,-0.51453 -0.19684,-0.803375 -0.0039,-0.249563 -0.04063,-0.474499 -0.08167,-0.499862 -0.04105,-0.02539 -0.114474,0.04129 -0.16318,0.148226 -0.0487,0.106889 -0.312703,0.469497 -0.586663,0.805791 -0.273966,0.33629 -0.622763,0.68028 -0.775106,0.76441 -0.152344,0.0841 -0.316936,0.15047 -0.365759,0.14743 -0.04883,-0.002 -0.172358,-0.0393 -0.274516,-0.0806 z"
         id="path15" /><path
         style="fill:#000000;stroke-width:0.188464"
         d="m 77.083882,120.64163 c -0.16271,-0.10659 -0.397022,-0.3859 -0.520696,-0.6207 -0.123674,-0.2348 -0.226895,-0.53041 -0.229378,-0.65691 -0.0044,-0.2003 0.03743,-0.22597 0.32061,-0.19883 0.279928,0.0269 0.343047,0.0857 0.453916,0.4231 0.07082,0.21556 0.17763,0.45044 0.237343,0.52194 0.0597,0.0715 0.239695,0.13 0.399966,0.13 0.160258,0 0.396972,-0.0687 0.526017,-0.15278 0.129057,-0.084 0.394245,-0.40975 0.589316,-0.72383 0.195083,-0.31408 0.387272,-0.70006 0.427094,-0.85774 0.06414,-0.25397 0.05071,-0.27825 -0.11763,-0.21272 -0.104531,0.0407 -0.43766,0.11489 -0.740281,0.1649 -0.302627,0.05 -0.674024,0.0912 -0.825344,0.0915 -0.22692,3.4e-4 -0.275113,-0.043 -0.275113,-0.24797 0,-0.20752 0.04753,-0.24854 0.28785,-0.24854 0.158325,0 0.611043,-0.0725 1.006062,-0.16118 0.53566,-0.12021 0.757453,-0.22071 0.872638,-0.39542 0.141907,-0.21522 0.137185,-0.26967 -0.0582,-0.67073 -0.116943,-0.24007 -0.302102,-0.51696 -0.411474,-0.61533 -0.109365,-0.0983 -0.335038,-0.17883 -0.50149,-0.17883 -0.220508,0 -0.382282,0.0922 -0.596116,0.33968 -0.161406,0.18682 -0.34881,0.48507 -0.416452,0.66278 -0.07382,0.19392 -0.192594,0.32311 -0.297069,0.32311 -0.09574,0 -0.20404,-0.0482 -0.240662,-0.10707 -0.03661,-0.0589 0.0081,-0.3014 0.0994,-0.53894 0.09393,-0.2444 0.363687,-0.613 0.62139,-0.84906 0.429502,-0.39344 0.482927,-0.41453 0.939444,-0.37094 0.266217,0.0254 0.598798,0.12094 0.739052,0.21227 0.140266,0.0913 0.371621,0.39471 0.514134,0.6742 0.213577,0.41885 0.251203,0.60633 0.214095,1.06695 -0.02476,0.30734 -0.135395,0.80486 -0.245858,1.1056 -0.110469,0.30074 -0.305047,0.72575 -0.432414,0.94447 -0.127354,0.21872 -0.364997,0.55425 -0.5281,0.74563 -0.163096,0.19138 -0.390896,0.4023 -0.506212,0.46871 -0.115322,0.0664 -0.389755,0.12204 -0.609845,0.12361 -0.233095,0.001 -0.523677,-0.078 -0.696005,-0.19092 z"
         id="path14" /><path
         style="fill:#000000;stroke-width:0.189987"
         d="m 65.593902,120.62523 c -0.189819,-0.0956 -0.438059,-0.33358 -0.551654,-0.52888 -0.115247,-0.19815 -0.177592,-0.42878 -0.141058,-0.52185 0.03599,-0.0917 0.169852,-0.16579 0.297443,-0.16461 0.159323,0.002 0.279747,0.10061 0.384497,0.31652 0.08389,0.1729 0.231916,0.36139 0.328949,0.41885 0.13227,0.0783 0.263555,0.0586 0.524483,-0.0787 0.191428,-0.10077 0.482951,-0.36849 0.647819,-0.59495 0.164875,-0.22644 0.373706,-0.63536 0.464071,-0.90871 0.09036,-0.27336 0.192787,-0.6778 0.227612,-0.89878 0.03481,-0.22098 0.01011,-0.59514 -0.05502,-0.83147 -0.0651,-0.23633 -0.2275,-0.53639 -0.360887,-0.66677 -0.133386,-0.13039 -0.319768,-0.23708 -0.414187,-0.23708 -0.09442,0 -0.393922,0.21726 -0.665566,0.4828 -0.274714,0.26855 -0.493887,0.57472 -0.493887,0.68993 0,0.11392 -0.04161,0.23228 -0.09251,0.26302 -0.0509,0.0308 -0.169165,0.0271 -0.262861,-0.008 -0.134778,-0.0506 -0.156098,-0.13815 -0.102124,-0.41942 0.03755,-0.19552 0.158849,-0.47992 0.269618,-0.63199 0.110762,-0.15206 0.401063,-0.41076 0.645106,-0.5749 0.276279,-0.18581 0.572157,-0.29843 0.784088,-0.29843 0.187199,0 0.442669,0.07 0.567715,0.15567 0.125047,0.0856 0.31267,0.32045 0.416951,0.52185 0.104276,0.2014 0.221394,0.51022 0.260261,0.68628 0.03886,0.17605 0.0169,0.66808 -0.04878,1.09339 -0.06912,0.44749 -0.243125,1.01744 -0.412983,1.35275 -0.161444,0.3187 -0.389431,0.71111 -0.50663,0.872 -0.1172,0.16091 -0.390448,0.38099 -0.607213,0.48909 -0.216765,0.10811 -0.476015,0.19648 -0.576111,0.1964 -0.100102,-9e-5 -0.337302,-0.0784 -0.527127,-0.17395 z"
         id="path13" /><path
         style="fill:#000000;stroke-width:0.168131"
         d="m 44.273932,111.13587 c -0.04807,-0.0185 -0.198436,-0.059 -0.334138,-0.0901 -0.185607,-0.0425 -0.289228,-0.15611 -0.418267,-0.45833 -0.09434,-0.22096 -0.194803,-0.65989 -0.223241,-0.9754 -0.03689,-0.40927 -0.0087,-0.72702 0.09851,-1.10897 0.08262,-0.29445 0.229004,-0.69958 0.325296,-0.90031 0.09629,-0.20072 0.374688,-0.55852 0.618657,-0.7951 0.266713,-0.25864 0.524801,-0.43015 0.647278,-0.43015 0.112033,0 0.203698,-0.0407 0.203698,-0.0906 0,-0.0498 0.115324,-0.0906 0.256275,-0.0906 0.179881,0 0.3072,0.0742 0.427123,0.24904 0.09397,0.13697 0.214429,0.41204 0.267691,0.61126 0.05326,0.19924 0.09684,0.62711 0.09684,0.95086 0,0.32374 -0.04226,0.75163 -0.09391,0.95085 -0.05165,0.19923 -0.207599,0.60747 -0.34655,0.90721 -0.138952,0.29975 -0.40213,0.69622 -0.58484,0.88105 -0.182712,0.18484 -0.449385,0.35559 -0.592606,0.37945 -0.143224,0.0238 -0.299741,0.0282 -0.347817,0.01 z m 0.511797,-0.59862 c 0.126192,-0.10284 0.366548,-0.42935 0.534127,-0.72558 0.167575,-0.29622 0.364308,-0.77697 0.437179,-1.06832 0.105724,-0.4227 0.113626,-0.63744 0.03911,-1.06293 -0.05136,-0.29327 -0.153023,-0.62927 -0.225924,-0.74665 -0.0969,-0.15604 -0.158566,-0.18648 -0.2293,-0.1132 -0.05321,0.0551 -0.191751,0.10024 -0.307857,0.10024 -0.131712,0 -0.325252,0.12771 -0.514619,0.33959 -0.166933,0.18678 -0.376388,0.50259 -0.465457,0.70182 -0.08907,0.19923 -0.207525,0.54458 -0.263234,0.76744 -0.05762,0.2305 -0.07664,0.59778 -0.04411,0.85182 0.03146,0.24563 0.116073,0.5646 0.188051,0.70879 0.07198,0.1442 0.217308,0.29826 0.322958,0.34234 0.105651,0.0441 0.216292,0.0827 0.245862,0.0859 0.02956,0.002 0.157017,-0.0784 0.283211,-0.18124 z"
         id="path12" /><path
         style="fill:#000000;stroke-width:0.170499"
         d="m 88.936245,101.09306 c -0.103987,-0.0536 -0.211617,-0.18695 -0.239177,-0.29635 -0.0276,-0.1094 -0.0492,-0.53417 -0.0482,-0.943929 6.3e-4,-0.409759 0.0548,-0.980874 0.11957,-1.269155 0.0647,-0.288274 0.265027,-0.822992 0.445187,-1.188258 0.18016,-0.365259 0.46152,-0.789433 0.62526,-0.942599 0.221643,-0.207334 0.384743,-0.278487 0.63834,-0.278487 0.28253,0 0.37419,0.05021 0.537227,0.294125 0.12392,0.185408 0.21089,0.478005 0.2353,0.791579 0.0349,0.447516 0.0213,0.497448 -0.13428,0.497448 -0.134187,0 -0.200337,-0.107512 -0.294907,-0.479371 -0.067,-0.263648 -0.18953,-0.524545 -0.27221,-0.579773 -0.121927,-0.08146 -0.210007,-0.03936 -0.466687,0.223265 -0.174023,0.178029 -0.411503,0.521937 -0.527743,0.764252 -0.11624,0.242309 -0.26948,0.703285 -0.34054,1.024388 -0.0711,0.321103 -0.12978,0.81547 -0.13049,1.098585 -4.6e-4,0.31717 0.051,0.5942 0.13477,0.72173 0.0748,0.11384 0.22708,0.20698 0.3383,0.20698 0.11122,0 0.456063,-0.19906 0.766303,-0.44235 0.310237,-0.2433 0.757844,-0.679896 0.994684,-0.970216 0.236837,-0.290326 0.479787,-0.531288 0.539877,-0.535479 0.0601,-0.0044 0.10926,0.04541 0.10926,0.110244 0,0.06482 -0.0688,0.248609 -0.15297,0.408418 -0.0841,0.159803 -0.25129,0.411044 -0.371477,0.558303 -0.12019,0.14726 -0.528297,0.50826 -0.906897,0.80223 -0.582787,0.4525 -0.74367,0.53351 -1.04891,0.52817 -0.19829,-0.004 -0.44562,-0.0502 -0.54961,-0.10375 z"
         id="path11" /><path
         style="fill:#000000;stroke-width:0.165182"
         d="m 66.127691,91.57353 c -0.02738,-0.04435 -0.167419,-0.106502 -0.311092,-0.138058 -0.228816,-0.05028 -0.261221,-0.095 -0.261221,-0.3607 0,-0.166826 0.05888,-0.417238 0.130898,-0.556462 0.072,-0.139232 0.272973,-0.813892 0.446611,-1.49925 0.173632,-0.685364 0.325014,-1.456328 0.336391,-1.713252 0.01135,-0.256929 0.06501,-0.511464 0.119183,-0.565632 0.07304,-0.07304 0.155549,-0.07249 0.319382,0.0019 0.175378,0.07991 0.220894,0.16407 0.220894,0.408456 0,0.16929 0.02763,0.307804 0.06138,0.307804 0.03381,0 0.187729,-0.122458 0.342149,-0.272119 0.204396,-0.198108 0.389312,-0.284356 0.679869,-0.31711 0.280053,-0.03156 0.46248,-0.0037 0.611541,0.09421 0.116844,0.07655 0.259955,0.283172 0.318034,0.459143 0.06038,0.182938 0.08268,0.487106 0.05209,0.71029 -0.02944,0.214682 -0.127473,0.557548 -0.217876,0.761925 -0.09041,0.204371 -0.375845,0.662716 -0.634309,1.018537 -0.258458,0.355828 -0.548447,0.725891 -0.64442,0.822363 -0.09598,0.09648 -0.423557,0.342579 -0.727968,0.5469 -0.30441,0.204321 -0.607069,0.371491 -0.672583,0.371491 -0.06551,0 -0.141551,-0.0363 -0.168978,-0.08068 z m 0.757846,-0.824545 c 0.253948,-0.18539 0.59939,-0.519043 0.767658,-0.741454 0.168255,-0.222404 0.429264,-0.606064 0.580003,-0.852571 0.188771,-0.308696 0.293545,-0.615933 0.336629,-0.987118 0.04385,-0.378134 0.03063,-0.577365 -0.04441,-0.667793 -0.05882,-0.07088 -0.199101,-0.12887 -0.311734,-0.12887 -0.112628,0 -0.342236,0.120699 -0.510248,0.268214 -0.168012,0.147515 -0.425054,0.521288 -0.571202,0.830615 -0.146149,0.309326 -0.265725,0.652772 -0.265725,0.763216 0,0.110444 -0.03412,0.238173 -0.07579,0.283839 -0.04167,0.04566 -0.179358,0.388227 -0.305933,0.76124 -0.126575,0.373006 -0.230145,0.720451 -0.230145,0.772111 0,0.05165 0.03811,0.08081 0.08458,0.06478 0.04653,-0.01603 0.292359,-0.180817 0.546308,-0.366207 z"
         id="path10" /><path
         style="fill:#000000;stroke-width:0.170499"
         d="m 76.506729,100.99358 c -0.198159,-0.28143 -0.212599,-0.3774 -0.20585,-1.368431 0.005,-0.741385 0.03924,-1.077133 0.112347,-1.103095 0.05782,-0.02052 0.239508,-0.316206 0.403783,-0.65707 0.164288,-0.340864 0.490593,-0.836528 0.725124,-1.101492 0.306575,-0.34634 0.516672,-0.499775 0.747516,-0.545921 0.228006,-0.0456 0.382107,-0.02152 0.531618,0.0828 0.115803,0.08083 0.236876,0.274695 0.269056,0.430799 0.04086,0.198214 0.0044,0.403396 -0.121585,0.680193 -0.105666,0.232547 -0.355978,0.536259 -0.605672,0.73486 -0.234068,0.186176 -0.644744,0.47029 -0.912615,0.631359 -0.267877,0.161069 -0.53876,0.359234 -0.60196,0.440367 -0.06572,0.08436 -0.11491,0.377947 -0.11491,0.68577 0,0.396951 0.04329,0.589261 0.165055,0.732571 0.09078,0.10688 0.247467,0.19319 0.34818,0.19181 0.100714,-0.001 0.405449,-0.17949 0.677193,-0.3958 0.271738,-0.21629 0.78982,-0.655194 1.151294,-0.975317 0.361473,-0.320117 0.679987,-0.582031 0.707801,-0.582031 0.02782,0 0.05059,0.09571 0.05059,0.212711 0,0.135388 -0.16682,0.382014 -0.458893,0.678428 -0.252395,0.256139 -0.616232,0.593199 -0.808533,0.749009 -0.192295,0.15581 -0.530096,0.3953 -0.750654,0.53221 -0.25194,0.15638 -0.530159,0.24894 -0.74839,0.24894 -0.289914,0 -0.382619,-0.0501 -0.56048,-0.30268 z m 1.429631,-3.095967 c 0.278537,-0.235771 0.549214,-0.528717 0.601505,-0.651001 0.05227,-0.12227 0.07147,-0.287843 0.0426,-0.367941 -0.02882,-0.0801 -0.124373,-0.145631 -0.212274,-0.145631 -0.08791,0 -0.303557,0.157152 -0.479234,0.349228 -0.175672,0.192071 -0.419658,0.5505 -0.542191,0.796501 -0.122533,0.246002 -0.222785,0.488441 -0.222785,0.538754 0,0.05982 0.0529,0.05988 0.152973,1.19e-4 0.08413,-0.05028 0.380847,-0.284263 0.659384,-0.520029 z"
         id="path9" /><path
         style="fill:#000000;stroke-width:0.165182"
         d="m 66.276079,101.15098 c -0.144221,-0.076 -0.369894,-0.25335 -0.501484,-0.39401 -0.168505,-0.18011 -0.246051,-0.36437 -0.262226,-0.62306 -0.02221,-0.354534 -0.01391,-0.367321 0.237774,-0.367321 0.233826,0 0.26628,0.034 0.314335,0.329681 0.02944,0.18133 0.145157,0.42716 0.257092,0.54631 0.111929,0.11914 0.27908,0.21662 0.371454,0.21662 0.09237,0 0.282604,-0.0677 0.422752,-0.15052 0.140141,-0.0828 0.415316,-0.37933 0.611491,-0.65901 0.196175,-0.279669 0.39308,-0.640307 0.437567,-0.80142 0.05121,-0.185489 0.04909,-0.376593 -0.0056,-0.521014 -0.04766,-0.125446 -0.123419,-0.22808 -0.168268,-0.22808 -0.04491,0 -0.298853,0.177006 -0.564428,0.393341 -0.371279,0.30244 -0.554935,0.393342 -0.794692,0.393342 -0.239308,0 -0.311466,-0.03562 -0.310256,-0.152967 4.62e-4,-0.08413 0.14837,-0.27442 0.327784,-0.422858 0.179414,-0.148444 0.420413,-0.320049 0.535548,-0.381346 0.115141,-0.06132 0.302901,-0.215181 0.417244,-0.341968 0.114343,-0.126787 0.26918,-0.342922 0.344082,-0.480301 0.0791,-0.145101 0.11385,-0.338724 0.08291,-0.461993 -0.02932,-0.116913 -0.152841,-0.250062 -0.275025,-0.29652 -0.121977,-0.04635 -0.312881,-0.08431 -0.42423,-0.08431 -0.12791,0 -0.28674,0.1105 -0.43136,0.300101 -0.125889,0.165055 -0.228891,0.402292 -0.228891,0.527195 0,0.126195 -0.06125,0.250611 -0.13789,0.280016 -0.07584,0.02913 -0.198945,-0.0081 -0.273566,-0.08276 -0.08526,-0.08527 -0.115896,-0.211482 -0.08245,-0.339734 0.02926,-0.112241 0.202956,-0.40074 0.385969,-0.641121 0.201676,-0.264889 0.414375,-0.448751 0.539958,-0.466765 0.113962,-0.01634 0.382993,-0.0031 0.597837,0.02888 0.23536,0.03531 0.473127,0.141078 0.59818,0.266125 0.147353,0.147358 0.207553,0.306213 0.207553,0.54773 0,0.187099 -0.06342,0.467301 -0.140928,0.622663 -0.136973,0.274576 -0.134528,0.289166 0.08741,0.52082 0.19083,0.199182 0.22833,0.319032 0.22833,0.729727 0,0.441621 -0.04304,0.556251 -0.424548,1.131527 -0.291193,0.43907 -0.562719,0.72937 -0.864442,0.92422 -0.241947,0.15624 -0.532741,0.2825 -0.64621,0.28058 -0.113476,-0.002 -0.324315,-0.0657 -0.468543,-0.14177 z"
         id="path8" /><path
         style="fill:#000000;stroke-width:0.165182"
         d="m 88.344821,91.239023 c 0.0276,-0.276429 0.112087,-0.758271 0.187747,-1.070759 0.0757,-0.312489 0.19614,-0.843496 0.26773,-1.180018 0.0716,-0.336523 0.189987,-0.926538 0.263137,-1.311134 0.0731,-0.384602 0.16997,-0.787774 0.21517,-0.895948 0.0452,-0.108168 0.13722,-0.196661 0.20448,-0.196661 0.0673,0 0.16201,0.04915 0.21055,0.109259 0.0608,0.07528 0.0207,0.421841 -0.12906,1.114466 -0.11952,0.552857 -0.25339,1.182207 -0.29747,1.398536 -0.0441,0.216335 -0.10161,0.570342 -0.12784,0.786683 -0.0477,0.393341 -0.0477,0.393341 0.15436,0.163502 0.11112,-0.126413 0.37905,-0.436388 0.59538,-0.688839 0.216343,-0.252451 0.433973,-0.503031 0.483633,-0.556843 0.0496,-0.05383 0.185887,-0.23551 0.302747,-0.403771 0.11686,-0.168261 0.339587,-0.442376 0.494967,-0.60914 0.15537,-0.166764 0.373137,-0.487225 0.483927,-0.712143 0.11078,-0.224911 0.30604,-0.472104 0.433907,-0.549308 0.12787,-0.07721 0.29503,-0.116376 0.37149,-0.08704 0.0765,0.02932 0.139,0.08672 0.139,0.127517 0,0.04079 -0.0954,0.214813 -0.21209,0.386698 -0.11664,0.171891 -0.29376,0.57681 -0.393577,0.899828 -0.0998,0.323005 -0.23972,0.862632 -0.31086,1.199149 -0.0711,0.336535 -0.13003,0.890484 -0.13086,1.231017 -4.7e-4,0.340533 0.0238,0.64447 0.0548,0.675427 0.0309,0.03094 0.18966,-0.06082 0.35268,-0.203953 0.163017,-0.143129 0.354027,-0.260235 0.424467,-0.260235 0.0704,0 0.12806,0.03019 0.12806,0.06712 0,0.03693 -0.0955,0.207621 -0.21215,0.379338 -0.11669,0.171723 -0.337157,0.372763 -0.489927,0.446754 -0.15278,0.07399 -0.354837,0.114368 -0.449037,0.08974 -0.0942,-0.02464 -0.23443,-0.141183 -0.31163,-0.259 -0.124057,-0.189345 -0.128117,-0.319556 -0.0349,-1.121184 0.058,-0.498833 0.16157,-1.093521 0.23019,-1.321539 0.0686,-0.228024 0.10316,-0.436088 0.0767,-0.462373 -0.0264,-0.02626 -0.17248,0.108186 -0.324577,0.298809 -0.15209,0.190617 -0.576287,0.708138 -0.942657,1.150027 -0.366373,0.441896 -0.834253,1.043114 -1.039723,1.336041 -0.242717,0.346004 -0.434077,0.532591 -0.546257,0.532591 -0.157727,0 -0.168317,-0.04341 -0.122467,-0.502606 z"
         id="path7" /><path
         style="fill:#000000;stroke-width:0.168131"
         d="m 54.263329,120.68779 c -0.03161,-0.0854 0.09194,-0.59708 0.278816,-1.15462 0.184579,-0.5507 0.431378,-1.20097 0.54843,-1.44506 0.11706,-0.24408 0.267741,-0.63121 0.334857,-0.86029 0.06712,-0.22908 0.122449,-0.48499 0.122967,-0.5687 3.33e-4,-0.089 -0.08031,-0.16418 -0.19483,-0.18111 -0.107678,-0.016 -0.209468,-0.10333 -0.226199,-0.19425 -0.01673,-0.0909 0.04187,-0.22207 0.13022,-0.29143 0.08835,-0.0694 0.230806,-0.12742 0.316563,-0.129 0.08656,-0.001 0.234121,0.13444 0.331737,0.30585 0.175825,0.30874 0.175825,0.30874 0.38037,0.11321 0.112499,-0.10755 0.349448,-0.28724 0.526562,-0.3993 0.181256,-0.11469 0.463701,-0.20376 0.646146,-0.20376 0.178273,0 0.411549,0.0634 0.518395,0.14098 0.134696,0.0977 0.194272,0.23355 0.194272,0.44287 0,0.16604 -0.09606,0.68331 -0.21346,1.14947 -0.117405,0.46617 -0.3128,1.23055 -0.43421,1.69864 -0.12141,0.46809 -0.198208,0.88885 -0.170657,0.93503 0.02757,0.0462 0.14076,-0.004 0.251591,-0.11216 0.110824,-0.10787 0.273846,-0.18183 0.362265,-0.16437 0.08842,0.0175 0.172297,0.11486 0.1864,0.21643 0.01821,0.1312 -0.08948,0.27031 -0.371952,0.48047 -0.268052,0.19943 -0.475223,0.28649 -0.635892,0.2672 -0.169118,-0.0203 -0.262902,-0.10149 -0.32302,-0.27963 -0.05619,-0.16648 -0.05341,-0.3647 0.0082,-0.58862 0.05112,-0.18569 0.277739,-1.01826 0.503594,-1.85017 0.328338,-1.20943 0.391438,-1.5497 0.314859,-1.69795 -0.05265,-0.10197 -0.154957,-0.1854 -0.227301,-0.1854 -0.07233,0 -0.277459,0.0775 -0.45582,0.1723 -0.178367,0.0948 -0.408472,0.26796 -0.511334,0.38487 -0.102871,0.11692 -0.321564,0.4367 -0.485991,0.71064 -0.164422,0.27393 -0.420784,0.82407 -0.569681,1.22253 -0.148901,0.39845 -0.31782,0.90761 -0.375378,1.13146 -0.05755,0.22384 -0.180012,0.56004 -0.272123,0.74709 -0.09211,0.18706 -0.226906,0.3401 -0.299555,0.3401 -0.07264,0 -0.157641,-0.069 -0.188876,-0.15332 z"
         id="path6" /><path
         style="fill:#000000;stroke-width:0.168131"
         d="m 42.782684,120.80314 c -0.138222,-0.11415 -0.143118,-0.24343 -0.04372,-1.15461 0.09686,-0.88793 0.178707,-1.2181 0.607928,-2.45236 0.465246,-1.33785 0.508763,-1.42628 0.701893,-1.42628 0.115143,0 0.199981,0.0542 0.192482,0.12294 -0.0074,0.0676 -0.239831,0.75623 -0.516563,1.53026 -0.35359,0.98897 -0.523769,1.59629 -0.572503,2.04303 -0.03814,0.34965 -0.05291,0.69865 -0.03281,0.77556 0.03245,0.1242 0.06026,0.12485 0.24871,0.006 0.116689,-0.0738 0.467518,-0.45168 0.779618,-0.83984 0.312099,-0.38815 0.756663,-1.02922 0.987921,-1.42461 0.231258,-0.39539 0.502936,-0.90226 0.603725,-1.12639 0.10079,-0.22414 0.24438,-0.5807 0.31909,-0.79238 0.112425,-0.31854 0.1719,-0.38487 0.345098,-0.38487 0.123923,0 0.222238,0.0658 0.241083,0.16129 0.01749,0.0887 -0.113333,0.56754 -0.290731,1.06405 -0.240614,0.67344 -0.345078,1.12129 -0.411242,1.76306 -0.04862,0.47316 -0.06906,0.98255 -0.04507,1.13197 0.0337,0.20985 0.08746,0.26522 0.236258,0.24334 0.130143,-0.0192 0.187417,0.0195 0.176547,0.11915 -0.0089,0.0811 -0.06541,0.22631 -0.125682,0.32265 -0.07621,0.1218 -0.202504,0.17516 -0.41461,0.17516 -0.250601,0 -0.317742,-0.0444 -0.376336,-0.24904 -0.04,-0.13965 -0.01821,-0.70379 0.04959,-1.28435 0.120905,-1.03532 0.120905,-1.03532 -0.200013,-0.54335 -0.176511,0.27059 -0.472987,0.69573 -0.658836,0.94477 -0.185849,0.24903 -0.553663,0.66672 -0.817363,0.92821 -0.269416,0.26716 -0.555976,0.47543 -0.654134,0.47543 -0.09607,0 -0.244725,-0.0578 -0.330333,-0.12853 z"
         id="path5" /><path
         style="fill:#000000;stroke-width:0.168131"
         d="m 30.013666,120.85545 c -0.08631,-0.061 -0.109123,-0.21246 -0.07912,-0.52544 0.02317,-0.24186 0.163223,-0.7064 0.311203,-1.0323 0.14798,-0.32591 0.409418,-1.09768 0.580973,-1.71504 0.28501,-1.02563 0.300675,-1.14026 0.181558,-1.32861 -0.0717,-0.11337 -0.130362,-0.26378 -0.130362,-0.33426 0,-0.0908 0.159257,-0.14461 0.546303,-0.18465 0.300471,-0.0311 0.949479,-0.0821 1.442246,-0.11331 0.895943,-0.0568 0.895943,-0.0568 0.895943,0.17048 0,0.16789 -0.06954,0.25711 -0.266167,0.34149 -0.186377,0.08 -0.323939,0.0872 -0.458897,0.0241 -0.115517,-0.054 -0.415208,-0.0626 -0.748053,-0.0215 -0.305426,0.0377 -0.592836,0.10748 -0.638691,0.15498 -0.04585,0.0475 -0.142908,0.32653 -0.215672,0.62004 -0.07277,0.29352 -0.154816,0.65388 -0.182334,0.80083 -0.05002,0.26717 -0.05002,0.26717 0.326325,-0.0666 0.206993,-0.18355 0.512889,-0.36028 0.679771,-0.39271 0.214632,-0.0417 0.383125,-0.0117 0.575788,0.10259 0.1498,0.0888 0.341197,0.22298 0.42533,0.29806 0.09472,0.0845 0.151521,0.26047 0.149174,0.46205 -0.002,0.17906 -0.09059,0.47213 -0.19667,0.65127 -0.106084,0.17915 -0.26863,0.44403 -0.361212,0.58863 -0.09258,0.14461 -0.346777,0.45648 -0.564875,0.69306 -0.218094,0.23658 -0.431276,0.43016 -0.47374,0.43016 -0.04246,0 -0.194369,0.0864 -0.337577,0.19208 -0.175179,0.12922 -0.437012,0.20486 -0.800174,0.23112 -0.296888,0.0215 -0.594366,3.4e-4 -0.661067,-0.0467 z m 1.145985,-0.53741 c 0.178991,-0.0859 0.562178,-0.39113 0.851526,-0.67838 0.289353,-0.28726 0.623514,-0.72145 0.742583,-0.96489 0.216492,-0.44261 0.216492,-0.44261 0.03807,-0.67761 -0.120017,-0.15808 -0.262828,-0.235 -0.436259,-0.235 -0.181628,0 -0.376315,0.11314 -0.658683,0.3828 -0.220465,0.21053 -0.509266,0.54672 -0.641789,0.74709 -0.132515,0.20037 -0.306754,0.60002 -0.38719,0.88812 -0.08044,0.28808 -0.122773,0.56315 -0.09407,0.61126 0.0287,0.0481 0.09902,0.0864 0.156276,0.0851 0.05725,-10e-4 0.250548,-0.0726 0.429543,-0.15847 z"
         id="path4" /><path
         style="fill:#000000;stroke-width:0.165182"
         d="m 89.036765,93.430853 c -0.10817,-0.07546 -0.196667,-0.209679 -0.196667,-0.298273 0,-0.08859 0.0781,-0.202892 0.173597,-0.253985 0.13909,-0.07445 0.20376,-0.0577 0.32536,0.08433 0.0921,0.107581 0.25577,0.176021 0.41641,0.174144 0.14556,-0.0019 0.362993,-0.05932 0.483183,-0.128016 0.12018,-0.06871 0.270417,-0.126313 0.333857,-0.128016 0.0702,-0.0019 0.10441,0.07385 0.0874,0.193574 -0.0173,0.122121 -0.1439,0.254597 -0.333867,0.349497 -0.16826,0.08406 -0.482933,0.150826 -0.699273,0.148381 -0.21633,-0.0025 -0.48183,-0.06619 -0.59001,-0.141639 z"
         id="path3" /><path
         style="fill:#000000;stroke-width:0.165182"
         d="m 77.317495,93.966239 c -0.220021,-0.06779 -0.46979,-0.200323 -0.555034,-0.294518 -0.141845,-0.15674 -0.144932,-0.218038 -0.03637,-0.722896 0.100258,-0.466247 0.149711,-0.556057 0.319469,-0.580197 0.110469,-0.01572 0.257684,0.01859 0.327147,0.07626 0.06947,0.05764 0.126301,0.1799 0.126301,0.271681 0,0.09177 -0.05901,0.189495 -0.13111,0.217171 -0.07298,0.02801 -0.131116,0.157907 -0.131116,0.29299 0,0.172259 0.05277,0.256481 0.181747,0.290208 0.129557,0.03387 0.254684,-0.03219 0.435776,-0.230177 0.139718,-0.152742 0.333585,-0.438284 0.430818,-0.634539 0.09723,-0.196263 0.314815,-1.022274 0.483525,-1.835585 0.168698,-0.813318 0.367368,-1.907156 0.441472,-2.430753 0.09011,-0.636623 0.105697,-0.981036 0.04709,-1.03967 -0.05863,-0.05863 -0.175466,-0.05134 -0.35269,0.02208 -0.145756,0.06038 -0.460409,0.348362 -0.699231,0.639973 -0.346128,0.422646 -0.514533,0.753149 -0.830134,1.629174 -0.217758,0.604437 -0.44557,1.228522 -0.506262,1.386866 -0.08951,0.233532 -0.151832,0.283046 -0.330111,0.262225 -0.200279,-0.02339 -0.218224,-0.05938 -0.202368,-0.405698 0.0095,-0.209018 0.07327,-0.465306 0.14157,-0.569543 0.0683,-0.104226 0.212043,-0.523223 0.319456,-0.931098 0.107413,-0.407875 0.253886,-0.977599 0.325507,-1.266054 0.102984,-0.414749 0.109078,-0.583759 0.02919,-0.808016 -0.05558,-0.155966 -0.07661,-0.323136 -0.04672,-0.37149 0.02988,-0.04834 0.111018,-0.08792 0.180287,-0.08792 0.06928,0 0.204627,0.07867 0.300775,0.174817 0.102709,0.102715 0.174823,0.291361 0.174823,0.457371 0,0.282548 0,0.282548 0.376836,-0.109259 0.207266,-0.215499 0.479465,-0.44595 0.604893,-0.512107 0.144607,-0.07629 0.33941,-0.09941 0.532447,-0.0632 0.19285,0.03618 0.360369,0.142531 0.457128,0.290201 0.14618,0.223091 0.144383,0.287619 -0.04185,1.505438 -0.107038,0.699785 -0.249376,1.528017 -0.316312,1.840506 -0.06693,0.312489 -0.182296,0.859813 -0.256368,1.216284 -0.07408,0.35647 -0.270223,0.926818 -0.435883,1.267426 -0.165654,0.340621 -0.422945,0.747142 -0.571751,0.903384 -0.148806,0.156247 -0.298067,0.281337 -0.331682,0.277994 -0.03362,-0.0031 -0.241148,-0.06157 -0.461164,-0.129344 z"
         id="path2" /><path
         style="fill:#000000;stroke-width:0.168131"
         d="m 31.789933,113.99293 c -0.02986,-0.0975 0.0092,-0.57629 0.0867,-1.06405 0.07755,-0.48776 0.255978,-1.43696 0.396516,-2.10935 0.140534,-0.67239 0.311657,-1.45685 0.38027,-1.74324 0.06862,-0.28638 0.09806,-0.52071 0.06543,-0.52071 -0.03263,0 -0.302428,0.35658 -0.599555,0.79239 -0.297125,0.4358 -0.743927,1.02889 -0.992886,1.31795 -0.387176,0.44956 -0.490847,0.5216 -0.716732,0.49808 -0.145244,-0.0151 -0.305407,-0.0959 -0.355923,-0.17954 -0.06806,-0.11266 -0.0328,-0.38228 0.136242,-1.04141 0.125449,-0.48917 0.346414,-1.23797 0.491042,-1.664 0.144624,-0.42603 0.290231,-0.92523 0.323569,-1.10933 0.05731,-0.31651 0.04819,-0.33473 -0.167639,-0.33473 -0.163586,0 -0.228251,-0.0474 -0.228251,-0.16708 0,-0.0919 0.07193,-0.23452 0.15985,-0.31695 0.08792,-0.0824 0.289872,-0.14988 0.448788,-0.14988 0.288942,0 0.288942,0 0.240913,0.61127 -0.02643,0.3362 -0.170749,0.97802 -0.320742,1.42628 -0.149995,0.44827 -0.349328,1.10028 -0.442969,1.44892 -0.09364,0.34865 -0.170926,0.70763 -0.171749,0.79773 -6.24e-4,0.0943 0.0385,0.13821 0.09269,0.10351 0.0518,-0.0332 0.39598,-0.45329 0.764828,-0.93359 0.368848,-0.48029 0.89716,-1.22301 1.174026,-1.65047 0.276866,-0.42745 0.58633,-1.03163 0.687701,-1.34263 0.101371,-0.31098 0.239183,-0.58725 0.306254,-0.61391 0.06707,-0.0267 0.183604,0.004 0.25897,0.0693 0.07901,0.0679 0.118167,0.19684 0.09248,0.30445 -0.0245,0.10263 -0.166536,0.52928 -0.315627,0.94809 -0.149094,0.41881 -0.403715,1.3357 -0.565828,2.03754 -0.162116,0.70184 -0.357196,1.60208 -0.433509,2.00054 -0.07632,0.39846 -0.180691,1.14975 -0.231947,1.66956 -0.05126,0.51979 -0.112967,0.97825 -0.137141,1.01876 -0.02417,0.0406 -0.117644,0.0737 -0.20772,0.0737 -0.09007,0 -0.1882,-0.0797 -0.218061,-0.17722 z"
         id="path1" /><path
         style="fill:#000000;stroke:#000000;stroke-width:0.0781356;stroke-linejoin:round;stroke-dasharray:none;stroke-opacity:1;paint-order:markers stroke fill"
         d="M 27.663267,138.59275 H 93.964746"
         id="path45" /><path
         style="fill:#000000;stroke:#000000;stroke-width:0.0781356;stroke-linejoin:round;stroke-dasharray:none;stroke-opacity:1;paint-order:markers stroke fill"
         d="M 27.663267,148.38452 H 93.964746"
         id="path46" /><path
         style="fill:#000000;stroke-width:0.165182"
         d="m 89.595665,138.39638 c -0.0332,-0.0864 0.27409,-0.78692 0.791483,-1.80439 0.465127,-0.91472 0.822064,-1.68673 0.793194,-1.7156 -0.0288,-0.0288 -0.1615,0.0811 -0.294757,0.24437 -0.14159,0.17348 -0.28409,0.271 -0.3429,0.23465 -0.0553,-0.0342 -0.100637,-0.13264 -0.100637,-0.21874 0,-0.0861 0.232897,-0.35912 0.517557,-0.6067 0.338917,-0.29479 0.596294,-0.45016 0.745704,-0.45016 0.1255,0 0.25078,0.0589 0.2784,0.1309 0.0276,0.072 -0.0609,0.3375 -0.19681,0.59002 -0.13589,0.2525 -0.416987,0.80823 -0.624687,1.23494 -0.207697,0.42672 -0.356597,0.79688 -0.330887,0.82259 0.0257,0.0257 0.654047,-0.55942 1.396291,-1.30029 0.74226,-0.74088 1.400803,-1.34705 1.46342,-1.34705 0.0626,0 0.12734,0.0701 0.14383,0.15565 0.0165,0.0856 -0.14685,0.51828 -0.362957,0.9615 -0.21612,0.44322 -0.521333,1.19013 -0.678253,1.65981 -0.1842,0.55135 -0.25527,0.884 -0.20057,0.93871 0.0547,0.0547 0.24884,-0.0234 0.547833,-0.22026 0.2547,-0.16774 0.47933,-0.30498 0.49918,-0.30498 0.0198,0 0.0361,0.0709 0.0361,0.15767 0,0.0867 -0.127837,0.27867 -0.284077,0.42656 -0.15624,0.14788 -0.370003,0.31293 -0.475003,0.36678 -0.10501,0.0538 -0.30365,0.0979 -0.44142,0.0979 -0.13777,0 -0.29769,-0.0472 -0.35538,-0.10489 -0.0577,-0.0577 -0.104887,-0.19009 -0.104887,-0.29422 0,-0.10413 0.214717,-0.75345 0.477157,-1.44292 0.26245,-0.68947 0.46449,-1.26626 0.449,-1.28175 -0.0155,-0.0155 -0.50178,0.45484 -1.080627,1.0452 -0.578847,0.59037 -1.259094,1.31922 -1.511651,1.61969 -0.25256,0.30047 -0.513243,0.54631 -0.579303,0.54631 -0.0661,0 -0.1445,-0.0636 -0.17431,-0.14129 z"
         id="path47" /><path
         style="fill:#000000;stroke:#000000;stroke-width:0.0781356;stroke-linejoin:round;stroke-dasharray:none;stroke-opacity:1;paint-order:markers stroke fill"
         d="m 27.663266,158.25442 h 66.30148"
         id="path49" /><path
         style="fill:#000000;stroke:#000000;stroke-width:0.0781356;stroke-linejoin:round;stroke-dasharray:none;stroke-opacity:1;paint-order:markers stroke fill"
         d="m 27.663266,168.04619 h 66.30148"
         id="path51" /><path
         style="fill:#000000;stroke:#000000;stroke-width:0.0781356;stroke-linejoin:round;stroke-dasharray:none;stroke-opacity:1;paint-order:markers stroke fill"
         d="M 27.663267,91.421724 H 93.964746"
         id="path75" /><path
         style="fill:#000000;stroke:#000000;stroke-width:0.0781356;stroke-linejoin:round;stroke-dasharray:none;stroke-opacity:1;paint-order:markers stroke fill"
         d="M 27.663267,101.2135 H 93.964746"
         id="path76" /><path
         style="fill:#000000;stroke:#000000;stroke-width:0.0781356;stroke-linejoin:round;stroke-dasharray:none;stroke-opacity:1;paint-order:markers stroke fill"
         d="m 27.663266,111.0834 h 66.30148"
         id="path78" /><path
         style="fill:#000000;stroke:#000000;stroke-width:0.0781356;stroke-linejoin:round;stroke-dasharray:none;stroke-opacity:1;paint-order:markers stroke fill"
         d="m 27.663266,120.87517 h 66.30148"
         id="path79" /><path
         style="fill:#000000;stroke-width:0.165182"
         d="m 30.1325,100.68437 c 0.0276,-0.27642 0.112087,-0.758265 0.18775,-1.070754 0.07566,-0.312489 0.19614,-0.843496 0.267728,-1.180018 0.07159,-0.336529 0.19,-0.926538 0.263144,-1.311134 0.07314,-0.384602 0.169969,-0.787774 0.215175,-0.895948 0.04521,-0.108168 0.137222,-0.196661 0.204476,-0.196661 0.06726,0 0.162006,0.04915 0.210548,0.109259 0.06082,0.07528 0.0207,0.421841 -0.129055,1.11446 -0.119527,0.552863 -0.253392,1.182207 -0.297475,1.398542 -0.04408,0.216335 -0.101611,0.570342 -0.127839,0.786683 -0.04769,0.393335 -0.04769,0.393335 0.154354,0.163502 0.111124,-0.126413 0.379047,-0.436388 0.595386,-0.688839 0.216338,-0.252451 0.433969,-0.503031 0.483624,-0.556849 0.04966,-0.05383 0.185898,-0.235504 0.302751,-0.403765 0.116856,-0.168261 0.339591,-0.442376 0.494968,-0.609146 0.155373,-0.166764 0.373144,-0.487225 0.483928,-0.712137 0.110787,-0.224918 0.306047,-0.472104 0.433916,-0.549314 0.127869,-0.07721 0.295038,-0.116376 0.371488,-0.08703 0.07645,0.02932 0.139001,0.08672 0.139001,0.12751 0,0.0408 -0.09544,0.214813 -0.212088,0.386699 -0.116646,0.171897 -0.293761,0.576816 -0.393587,0.899834 -0.09982,0.323005 -0.239705,0.862626 -0.310849,1.199149 -0.07114,0.336528 -0.130032,0.890484 -0.130866,1.231011 -6.24e-4,0.340526 0.0238,0.644476 0.05477,0.675426 0.03096,0.0309 0.189661,-0.0608 0.352677,-0.20396 0.163016,-0.14312 0.354026,-0.26023 0.424466,-0.26023 0.07044,0 0.128072,0.0302 0.128072,0.0671 0,0.0369 -0.09548,0.20762 -0.212161,0.37934 -0.11669,0.17172 -0.337158,0.37276 -0.489932,0.44675 -0.152773,0.074 -0.354839,0.11437 -0.449034,0.0897 -0.09419,-0.0246 -0.23443,-0.14118 -0.31163,-0.25901 -0.124063,-0.18934 -0.128122,-0.31955 -0.03494,-1.121178 0.05798,-0.498826 0.161573,-1.093513 0.230197,-1.321538 0.06862,-0.228018 0.103151,-0.436088 0.07673,-0.462367 -0.02643,-0.02626 -0.172481,0.10818 -0.324578,0.298809 -0.152097,0.190617 -0.576298,0.708132 -0.942669,1.150021 -0.366372,0.441902 -0.834245,1.043113 -1.039722,1.336043 -0.242712,0.346 -0.434076,0.53259 -0.54625,0.53259 -0.157736,0 -0.168322,-0.0434 -0.122476,-0.50261 z"
         id="path80" /><path
         style="fill:#000000;stroke:#000000;stroke-width:0.0781356;stroke-linejoin:round;stroke-dasharray:none;stroke-opacity:1;paint-order:markers stroke fill"
         d="M 27.663267,45.674509 H 93.964746"
         id="path100" /><path
         style="fill:#000000;stroke:#000000;stroke-width:0.0781356;stroke-linejoin:round;stroke-dasharray:none;stroke-opacity:1;paint-order:markers stroke fill"
         d="M 27.663267,55.466279 H 93.964746"
         id="path101" /><path
         style="fill:#000000;stroke:#000000;stroke-width:0.0781356;stroke-linejoin:round;stroke-dasharray:none;stroke-opacity:1;paint-order:markers stroke fill"
         d="m 27.663266,65.33618 h 66.30148"
         id="path102" /><path
         style="fill:#000000;stroke:#000000;stroke-width:0.0781356;stroke-linejoin:round;stroke-dasharray:none;stroke-opacity:1;paint-order:markers stroke fill"
         d="m 27.663266,75.127957 h 66.30148"
         id="path103" /><text
         xml:space="preserve"
         style="font-size:10.5624px;line-height:1.2;font-family:acil_lujot;-inkscape-font-specification:acil_lujot;text-align:start;text-decoration-color:#000000;letter-spacing:7.60659px;word-spacing:0px;writing-mode:lr-tb;direction:ltr;text-anchor:start;fill:#000000;stroke:none;stroke-width:0.249792;stroke-linejoin:round;stroke-dasharray:none;stroke-opacity:1;paint-order:markers stroke fill"
         x="29.42728"
         y="45.632492"
         id="text107"><tspan
           sodipodi:role="line"
           id="tspan107"
           style="font-size:10.5624px;letter-spacing:7.60659px;word-spacing:0px;stroke:none;stroke-width:0.249792"
           x="29.42728"
           y="45.632492">pbmcxz</tspan></text><text
         xml:space="preserve"
         style="font-size:10.5624px;line-height:1.2;font-family:acil_lujot;-inkscape-font-specification:acil_lujot;text-align:start;text-decoration-color:#000000;letter-spacing:7.59175px;word-spacing:0px;writing-mode:lr-tb;direction:ltr;text-anchor:start;fill:#000000;stroke:none;stroke-width:0.249792;stroke-linejoin:round;stroke-dasharray:none;stroke-opacity:1;paint-order:markers stroke fill"
         x="29.42728"
         y="55.460865"
         id="text108"><tspan
           sodipodi:role="line"
           id="tspan108"
           style="font-size:10.5624px;letter-spacing:7.59175px;word-spacing:0px;stroke:none;stroke-width:0.249792"
           x="29.42728"
           y="55.460865"
           dx="0 -0.74918103 -2.6221335 -0.56188577 0.56188577 0.74918103">tdnlkh</tspan></text><text
         xml:space="preserve"
         style="font-size:10.5624px;line-height:1.2;font-family:acil_lujot;-inkscape-font-specification:acil_lujot;text-align:start;text-decoration-color:#000000;letter-spacing:6.60906px;word-spacing:-0.667518px;writing-mode:lr-tb;direction:ltr;text-anchor:start;fill:#000000;stroke:none;stroke-width:0.249792;stroke-linejoin:round;stroke-dasharray:none;stroke-opacity:1;paint-order:markers stroke fill"
         x="29.42728"
         y="65.432022"
         id="text109"><tspan
           sodipodi:role="line"
           id="tspan109"
           style="font-size:10.5624px;letter-spacing:6.60906px;stroke:none;stroke-width:0.249792"
           x="29.42728"
           y="65.432022"
           dx="0 1.3110667">jw</tspan></text><text
         xml:space="preserve"
         style="font-size:10.5624px;line-height:1.2;font-family:acil_lujot;-inkscape-font-specification:acil_lujot;text-align:start;text-decoration-color:#000000;letter-spacing:7.59175px;word-spacing:0px;writing-mode:lr-tb;direction:ltr;text-anchor:start;fill:#000000;stroke:none;stroke-width:0.249792;stroke-linejoin:round;stroke-dasharray:none;stroke-opacity:1;paint-order:markers stroke fill"
         x="29.42728"
         y="75.126854"
         id="text110"><tspan
           sodipodi:role="line"
           id="tspan110"
           style="font-size:10.5624px;letter-spacing:7.59175px;word-spacing:0px;stroke:none;stroke-width:0.249792"
           x="29.42728"
           y="75.126854">aeiuo</tspan></text><text
         xml:space="preserve"
         style="font-size:6.79376px;line-height:1.2;font-family:acil_lujot;-inkscape-font-specification:acil_lujot;text-align:start;text-decoration-color:#000000;letter-spacing:0px;word-spacing:0px;writing-mode:lr-tb;direction:ltr;text-anchor:start;fill:#000000;stroke:none;stroke-width:0.0802414;stroke-linejoin:round;stroke-dasharray:none;stroke-opacity:1;paint-order:markers stroke fill"
         x="83.808212"
         y="174.98056"
         id="text111"><tspan
           sodipodi:role="line"
           id="tspan111"
           style="letter-spacing:0px;stroke-width:0.0802414"
           x="83.808212"
           y="174.98056">leti</tspan></text></g><text
       xml:space="preserve"
       style="font-style:normal;font-variant:normal;font-weight:normal;font-stretch:normal;font-size:10.2263px;line-height:1.2;font-family:xedixel;-inkscape-font-specification:xedixel;text-align:start;text-decoration-color:#000000;letter-spacing:0px;word-spacing:0px;writing-mode:lr-tb;direction:ltr;text-anchor:start;fill:#000000;stroke:none;stroke-width:0.120782;stroke-linejoin:round;stroke-dasharray:none;stroke-opacity:1;paint-order:markers stroke fill"
       x="32.60527"
       y="30.68189"
       id="text112"><tspan
         sodipodi:role="line"
         id="tspan112"
         style="font-style:normal;font-variant:normal;font-weight:normal;font-stretch:normal;font-family:xedixel;-inkscape-font-specification:xedixel;stroke-width:0.120782"
         x="32.60527"
         y="30.68189">pemecepe lujot</tspan></text><rect
       style="fill:none;stroke:#000000;stroke-width:0.604199;stroke-linejoin:round;stroke-dasharray:none;stroke-opacity:1;paint-order:markers stroke fill"
       id="rect112"
       width="91.773895"
       height="144.79094"
       x="18.113052"
       y="18.60453" /></g></svg>
