<?xml version="1.0" encoding="UTF-8" standalone="no"?>
<!-- Created with Inkscape (http://www.inkscape.org/) -->

<svg
   width="128mm"
   height="182mm"
   viewBox="0 0 128 182"
   version="1.1"
   id="svg1"
   xml:space="preserve"
   inkscape:version="1.3 (0e150ed6c4, 2023-07-21)"
   sodipodi:docname="pmcp_map_linzklar_and_pmcp_lukup.svg"
   inkscape:export-filename="pmcp_map_linzklar.png"
   inkscape:export-xdpi="288"
   inkscape:export-ydpi="288"
   xmlns:inkscape="http://www.inkscape.org/namespaces/inkscape"
   xmlns:sodipodi="http://sodipodi.sourceforge.net/DTD/sodipodi-0.dtd"
   xmlns:xlink="http://www.w3.org/1999/xlink"
   xmlns="http://www.w3.org/2000/svg"
   xmlns:svg="http://www.w3.org/2000/svg"><sodipodi:namedview
     id="namedview1"
     pagecolor="#ffffff"
     bordercolor="#000000"
     borderopacity="0.25"
     inkscape:showpageshadow="2"
     inkscape:pageopacity="0.0"
     inkscape:pagecheckerboard="0"
     inkscape:deskcolor="#d1d1d1"
     inkscape:document-units="mm"
     inkscape:zoom="0.95519256"
     inkscape:cx="628.1456"
     inkscape:cy="344.95662"
     inkscape:window-width="1920"
     inkscape:window-height="1009"
     inkscape:window-x="-8"
     inkscape:window-y="-8"
     inkscape:window-maximized="1"
     inkscape:current-layer="layer1"
     showguides="true"><sodipodi:guide
       position="19.761252,160.01715"
       orientation="0,-1"
       id="guide1"
       inkscape:locked="false" /><sodipodi:guide
       position="11.012367,160.01715"
       orientation="1,0"
       id="guide2"
       inkscape:locked="false" /><sodipodi:guide
       position="242.59389,145.33409"
       orientation="0,-1"
       id="guide29"
       inkscape:locked="false" /><sodipodi:guide
       position="62.20266,141.60648"
       orientation="0,-1"
       id="guide38"
       inkscape:locked="false" /><inkscape:page
       x="0"
       y="0"
       width="128"
       height="182"
       id="page38"
       margin="0"
       bleed="0"
       inkscape:export-filename="pmcp_map_pmcp_lukup.png"
       inkscape:export-xdpi="96"
       inkscape:export-ydpi="96" /><inkscape:page
       x="138"
       y="0"
       width="128"
       height="182"
       id="page39"
       margin="0"
       bleed="0" /></sodipodi:namedview><defs
     id="defs1" /><g
     inkscape:label="Layer 1"
     inkscape:groupmode="layer"
     id="layer1"><path
       style="fill:#000000"
       d="m 33.732659,170.67659 c -0.366325,-0.53612 -2.953503,-1.58541 -3.909063,-1.58541 -0.535474,0 -1.613313,-1.14898 -1.613313,-1.7198 0,-0.70135 -1.095378,-1.71979 -1.849708,-1.71979 -0.569511,0 -0.887153,-0.21712 -1.303713,-0.89112 -0.688848,-1.11458 -0.688457,-1.50586 0.0029,-2.86095 0.428386,-0.83971 0.514522,-1.34578 0.380816,-2.2374 -0.147549,-0.98392 -0.04691,-1.38841 0.688925,-2.76898 0.473942,-0.88921 1.021921,-1.67822 1.21773,-1.75336 0.350665,-0.13456 3.645674,-4.04779 4.180048,-4.96432 0.671177,-1.15117 2.239292,0.57928 2.239292,2.4711 0,0.60995 0.238319,1.47246 0.555301,2.0097 0.305416,0.51764 0.469431,0.94117 0.364478,0.94117 -0.104953,0 -0.05513,0.1635 0.110722,0.36334 0.16585,0.19983 0.227119,0.55729 0.136154,0.79434 -0.280366,0.73062 0.107324,1.65636 1.420807,3.39264 1.37528,1.81798 1.910454,2.85152 1.910454,3.68953 0,0.29812 0.199388,0.87958 0.443084,1.29212 0.389885,0.66002 0.402716,0.93046 0.106869,2.25245 -0.273697,1.22301 -0.561678,1.7184 -1.548751,2.66418 -0.986032,0.94478 -1.395365,1.16181 -2.191264,1.16181 -0.683097,0 -1.088374,-0.16047 -1.341728,-0.53125 z m 3.240227,-1.01633 c 1.273644,-1.35367 1.840104,-3.38152 1.199911,-4.29552 -0.240633,-0.34355 -0.437514,-0.96125 -0.437514,-1.37266 0,-0.93074 -0.588328,-2.08948 -1.844162,-3.63215 -1.157274,-1.42161 -1.592294,-2.37554 -1.604399,-3.51818 -0.0049,-0.4661 -0.239023,-1.3237 -0.520189,-1.90578 -0.281166,-0.58209 -0.515251,-1.54829 -0.520189,-2.14713 -0.0057,-0.69018 -0.209839,-1.34416 -0.557605,-1.78627 l -0.548628,-0.69747 -1.23731,1.65063 c -0.68052,0.90784 -1.811367,2.23843 -2.512992,2.95686 -1.781673,1.82434 -2.617258,3.54572 -2.39521,4.93434 0.131888,0.82478 0.03299,1.37625 -0.42039,2.34424 -0.56288,1.20177 -0.57108,1.30785 -0.162218,2.09851 0.327409,0.63314 0.60821,0.83275 1.171466,0.83275 0.824973,0 1.722089,0.82067 2.024586,1.85208 0.266339,0.90812 0.909103,1.5875 1.50194,1.5875 0.937586,0 3.525029,1.05528 3.887259,1.58541 0.615654,0.90102 1.861425,0.69706 2.975644,-0.48716 z m -0.03135,-19.63111 c 0,-0.15214 -0.302147,-0.57876 -0.671437,-0.94805 -0.566853,-0.56685 -0.696598,-0.9977 -0.832966,-2.7661 l -0.161529,-2.09466 h 0.681775 c 0.696231,0 1.255802,0.41934 1.927475,1.44445 0.543839,0.83 0.806732,3.72943 0.384301,4.23843 -0.378617,0.4562 -1.327619,0.54622 -1.327619,0.12593 z m 0.909489,-1.60171 c -0.02262,-1.59148 -0.29693,-2.53621 -0.916219,-3.15549 -0.916624,-0.91663 -1.136344,-0.66731 -0.940152,1.0668 0.180101,1.59188 1.095425,3.48892 1.60834,3.33333 0.145521,-0.0441 0.257135,-0.60423 0.248031,-1.24464 z m 1.770163,-6.12533 c -0.1761,-0.32742 -0.687416,-0.83546 -1.136258,-1.12899 -0.777474,-0.50843 -0.817818,-0.62249 -0.852931,-2.41146 -0.02263,-1.15285 -0.17705,-2.0467 -0.400003,-2.31535 -0.294479,-0.35482 -0.326938,-1.34102 -0.171658,-5.21536 0.173683,-4.33349 0.148644,-4.82515 -0.269246,-5.28691 -0.253406,-0.28001 -0.63659,-0.50911 -0.851521,-0.50911 -0.747791,0 -2.049408,-1.02969 -2.797322,-2.21293 -0.41398,-0.65493 -0.919121,-1.25465 -1.122536,-1.33271 -0.203414,-0.0781 -0.371667,-0.41355 -0.373895,-0.74554 -0.005,-0.73767 -0.247255,-1.11767 -0.855845,-1.34221 -0.254661,-0.094 -0.46302,-0.35713 -0.46302,-0.58481 0,-0.22769 -0.304981,-1.01583 -0.677736,-1.75142 -0.761628,-1.50301 -0.786564,-1.27473 0.784444,-7.18109 0.377873,-1.42064 0.687042,-3.05189 0.687042,-3.62499 0,-1.65483 0.537998,-3.72272 1.119935,-4.30466 0.454369,-0.45436 0.767999,-0.51381 2.0821,-0.39465 0.889002,0.0806 1.926648,0.37483 2.439259,0.69164 0.490659,0.30324 0.956873,0.48659 1.03603,0.40743 0.152753,-0.15275 4.990947,0.73806 6.551842,1.20633 0.509323,0.1528 1.517634,0.33608 2.240691,0.40729 1.724659,0.16987 4.665792,0.65127 5.167642,0.84584 0.218281,0.0846 0.515937,0.17701 0.661458,0.20529 0.145521,0.0283 0.324115,0.079 0.396875,0.11277 0.07276,0.0337 0.747533,0.10195 1.499495,0.15158 0.751962,0.0496 1.607338,0.21875 1.900835,0.37583 0.293498,0.15707 0.771613,0.28559 1.062479,0.28559 0.635417,0 2.186533,1.82715 2.792265,3.28917 0.408078,0.98495 0.403081,1.09954 -0.09407,2.15718 -0.478315,1.01757 -1.737002,2.22657 -2.318082,2.22657 -0.129119,0 -0.674971,0.41521 -1.213003,0.9227 -0.996233,0.93968 -1.69987,2.21504 -2.425717,4.39669 -0.40376,1.21357 -1.010953,2.65708 -1.435148,3.41186 -0.725203,1.29036 -1.107153,2.21526 -1.718956,4.1625 -0.906639,2.88564 -2.44166,6.08071 -3.087419,6.42631 -0.285413,0.15275 -0.518932,0.43607 -0.518932,0.62961 0,0.19353 -0.239781,0.65671 -0.532847,1.02929 -0.293066,0.37257 -0.891692,1.40066 -1.330279,2.28464 -0.438588,0.88397 -0.959975,1.60723 -1.158637,1.60723 -0.198663,0 -0.421933,0.15825 -0.496155,0.35167 -0.07422,0.19343 -0.639883,1.02686 -1.257024,1.85209 -1.266118,1.69302 -2.269791,2.01019 -2.864155,0.90509 z m 2.487722,-1.41479 c 1.15874,-1.63378 1.584265,-2.13111 1.938599,-2.26575 0.129941,-0.0494 0.638083,-0.84476 1.129204,-1.76753 1.590635,-2.98865 1.790555,-3.30613 2.431216,-3.86093 0.65322,-0.56566 2.091368,-3.60411 2.417587,-5.10775 0.102244,-0.47128 0.295801,-0.92479 0.430125,-1.00781 0.134325,-0.083 0.244228,-0.40398 0.244228,-0.71324 0,-0.51169 0.743338,-2.39198 1.334323,-3.37522 0.475339,-0.79083 1.009917,-2.02323 1.721519,-3.96875 1.061295,-2.90157 2.048949,-4.14834 4.213134,-5.31844 0.432677,-0.23393 1.054587,-0.90698 1.382023,-1.49566 0.569122,-1.02319 0.57629,-1.10935 0.162774,-1.95675 -0.712667,-1.46044 -1.942535,-2.87081 -2.5034,-2.87081 -0.288381,0 -0.75759,-0.12484 -1.042687,-0.27742 -0.285097,-0.15258 -1.080942,-0.32066 -1.768544,-0.3735 -0.687601,-0.0529 -1.250184,-0.1218 -1.250184,-0.15323 0,-0.0314 -0.238125,-0.0976 -0.529167,-0.14712 -0.291041,-0.0495 -1.719791,-0.31779 -3.175,-0.59622 -1.455208,-0.27844 -2.736694,-0.45288 -2.847747,-0.38766 -0.111053,0.0652 -0.825428,-0.0611 -1.5875,-0.28082 -1.76525,-0.50885 -6.584642,-1.4882 -7.323435,-1.4882 -0.309683,0 -0.847305,-0.18624 -1.194716,-0.41388 -0.34741,-0.22763 -1.284641,-0.48127 -2.082735,-0.56364 -1.419019,-0.14645 -1.460594,-0.13137 -1.881649,0.68287 -0.236814,0.45794 -0.538368,1.87244 -0.670122,3.14333 -0.237574,2.29161 -0.523868,3.64431 -1.581013,7.47007 l -0.548328,1.98438 0.730498,1.57072 c 0.401774,0.8639 0.998389,1.84075 1.32581,2.17079 0.327422,0.33003 0.595313,0.90313 0.595313,1.27354 0,0.37042 0.120163,0.67349 0.267029,0.67349 0.146866,0 0.62611,0.58358 1.064986,1.29684 0.818034,1.32948 1.76858,2.14274 2.504443,2.14274 0.228521,0 0.705016,0.1897 1.058879,0.42156 l 0.643385,0.42157 0.0033,5.06854 c 0.0018,2.78769 0.124801,5.48447 0.273347,5.99283 0.148547,0.50837 0.270085,1.45636 0.270085,2.10665 0,1.03305 0.140602,1.32562 1.113422,2.31686 0.612382,0.62397 1.24106,1.13449 1.397062,1.13449 0.156002,0 0.75629,-0.66642 1.333974,-1.48094 z m 24.995125,-4.71436 c -0.867854,-0.3132 -0.926042,-0.40753 -0.926042,-1.50122 0,-1.15403 0.01031,-1.16722 0.926042,-1.18445 0.509323,-0.01 1.402291,0.18605 1.984375,0.43475 0.582083,0.2487 1.862005,0.53391 2.844271,0.6338 0.982265,0.0999 1.78089,0.26144 1.77472,0.359 -0.0062,0.0976 -0.690778,0.50897 -1.521354,0.91425 -1.667734,0.81378 -3.44647,0.93414 -5.082012,0.34387 z m 4.690205,-0.76276 c 0.423972,-0.42398 0.385459,-0.45027 -0.659405,-0.45027 -1.005492,0 -2.670581,-0.46518 -3.803838,-1.06269 -0.559811,-0.29516 -0.756129,-0.0822 -0.756129,0.82015 0,0.54956 0.178044,0.79604 0.727604,1.00728 1.106632,0.42537 3.951065,0.22623 4.491768,-0.31447 z m 7.554689,-0.46989 c -0.873572,-0.33025 -1.028093,-1.37837 -0.362079,-2.45601 0.869876,-1.40749 1.109904,-1.52264 2.699912,-1.29531 1.309376,0.1872 1.431514,0.26419 1.510522,0.95216 0.05463,0.47571 -0.164595,1.1271 -0.601534,1.78736 -0.550824,0.83235 -0.832403,1.02783 -1.416446,0.98333 -0.400925,-0.0305 -0.84461,0.0133 -0.985966,0.0975 -0.141357,0.0842 -0.52134,0.0531 -0.844409,-0.069 z m 2.796132,-1.26643 c 1.08447,-1.56703 0.785912,-2.15354 -1.096241,-2.15354 -0.807594,0 -0.975738,0.13187 -1.538748,1.2068 -0.584403,1.11576 -0.598592,1.23166 -0.188105,1.53659 0.720021,0.53486 2.268656,0.21129 2.823094,-0.58985 z m 6.982322,-5.00725 -0.598526,-0.4607 0.598526,-1.18098 c 0.538799,-1.06312 0.704137,-1.19032 1.656859,-1.27459 0.60132,-0.0532 1.315404,-0.33281 1.653646,-0.64752 l 0.595313,-0.5539 v 1.18724 c 0,1.2289 -0.442273,1.85066 -2.109392,2.96546 -0.815871,0.54557 -1.048027,0.54105 -1.796426,-0.035 z m 2.270693,-1.00336 c 1.230742,-1.05347 1.464954,-1.78206 0.510646,-1.58853 -0.327422,0.0664 -0.900896,0.18452 -1.274387,0.26249 -0.898655,0.18759 -1.521388,1.29665 -1.048203,1.8668 0.465005,0.5603 0.55804,0.53253 1.811944,-0.54076 z m 5.317128,-4.00643 c -0.150507,-0.39586 -0.219383,-0.92727 -0.153057,-1.1809 0.06633,-0.25363 -0.04571,-0.59916 -0.248969,-0.76785 -0.548546,-0.45525 -0.508773,-4.42333 0.05237,-5.22447 0.341701,-0.48785 0.393907,-1.065 0.274565,-3.03543 -0.181228,-2.99223 -0.288469,-3.83302 -0.518189,-4.06274 -0.09807,-0.0981 -0.178303,-0.68843 -0.178303,-1.31192 0,-0.62349 -0.178593,-1.81929 -0.396875,-2.65732 -0.494455,-1.89834 -0.580107,-12.64513 -0.103131,-12.939917 0.186596,-0.115323 0.225934,-0.531191 0.107845,-1.140094 -0.494755,-2.551107 -0.427485,-2.886278 0.777444,-3.873626 1.479539,-1.212372 2.30294,-1.209384 3.022965,0.01097 0.716171,1.213814 1.112311,1.337581 3.049621,0.952813 1.21683,-0.241671 1.79489,-0.518133 2.35837,-1.12791 0.41054,-0.444273 0.8135,-0.740711 0.89546,-0.658751 0.082,0.08196 0.5495,-0.375476 1.03898,-1.016524 0.8345,-1.09292 0.95181,-1.156124 1.88266,-1.014366 0.54599,0.08315 1.40942,0.323569 1.91875,0.534271 0.50932,0.210702 1.34147,0.437546 1.84922,0.504097 1.12048,0.146864 1.54868,0.50528 1.18754,0.994015 -1.5083,2.04118 -1.67742,2.461926 -1.40753,3.501632 0.3754,1.446165 0.52539,2.379227 0.67508,4.199693 0.1556,1.892354 -0.27001,2.864215 -1.6757,3.826389 -0.88139,0.603287 -1.34434,1.333031 -1.5023,2.368048 -0.0361,0.23643 -0.74723,1.65021 -1.58033,3.14172 -0.8331,1.49152 -1.51473,2.87852 -1.51473,3.08223 0,0.20371 -0.75759,1.30378 -1.68353,2.4446 -1.71746,2.11603 -2.34244,3.08794 -2.4397,3.79401 -0.35476,2.57531 -1.55936,6.11565 -2.869526,8.43357 -0.519612,0.91929 -0.944749,1.7606 -0.944749,1.86959 0,0.30045 -0.924885,1.07392 -1.284153,1.07392 -0.174045,0 -0.439587,-0.32388 -0.590094,-0.71975 z m 2.45156,-2.6421 c 1.244206,-2.38762 2.016796,-4.56327 2.611366,-7.35377 0.42336,-1.98699 0.42785,-1.99552 2.22472,-4.23333 0.81793,-1.01865 1.98835,-2.83283 2.60093,-4.03151 0.61259,-1.19868 1.43916,-2.80602 1.83684,-3.57187 0.39767,-0.76585 0.79615,-1.81586 0.88551,-2.333357 0.12756,-0.738754 0.40633,-1.095171 1.29761,-1.659038 1.42814,-0.903507 1.81757,-1.811784 1.62931,-3.800075 -0.0801,-0.845611 -0.16162,-1.716069 -0.18124,-1.93435 -0.0196,-0.218281 -0.21331,-0.962571 -0.4304,-1.653978 -0.37654,-1.199246 -0.36736,-1.302752 0.19946,-2.248958 0.3268,-0.545521 0.75603,-1.183025 0.95386,-1.416677 0.32043,-0.37847 0.17855,-0.47361 -1.30041,-0.87199 -3.56749,-0.960959 -3.41905,-0.963225 -4.37206,0.06674 -0.47294,0.511129 -0.8599,1.026761 -0.8599,1.145847 0,0.119087 -0.127,0.216521 -0.28223,0.216521 -0.15523,0 -0.66125,0.285101 -1.12448,0.633557 -0.97263,0.731641 -3.51985,1.367528 -4.49629,1.122456 -0.367327,-0.09219 -0.925538,-0.584543 -1.240468,-1.09411 -0.670822,-1.085413 -1.006298,-1.13461 -2.258274,-0.331174 -1.130388,0.72541 -1.347345,1.439525 -0.910917,2.998292 0.253649,0.905946 0.261157,1.349485 0.03138,1.853793 -0.48239,1.05873 -0.400774,10.995701 0.106301,12.942491 0.224591,0.86226 0.386767,1.81001 0.360391,2.10611 -0.06709,0.75318 0.318326,2.77384 0.557241,2.9215 0.108975,0.0674 0.218159,1.37582 0.242629,2.9077 0.0342,2.14124 -0.05023,2.92048 -0.365183,3.37013 -0.584009,0.83379 -0.578705,4.38765 0.0069,4.61236 0.291803,0.11198 0.367842,0.35395 0.253895,0.80795 -0.08947,0.35645 -0.08831,0.88236 0.0026,1.16869 0.244943,0.77175 0.634408,0.32081 2.020959,-2.33995 z m -82.055326,1.39393 c -0.240966,-0.29035 -0.225529,-0.54434 0.06819,-1.12192 0.693262,-1.36329 1.574031,-4.55031 1.427835,-5.16655 -0.07922,-0.33393 -0.230612,-0.88859 -0.336426,-1.23258 -0.166621,-0.54167 -0.121001,-0.60278 0.340617,-0.45627 0.41442,0.13153 0.601977,0.003 0.843007,-0.57924 0.525673,-1.26909 1.546862,-2.17552 2.450952,-2.17552 0.802716,0 0.81414,0.0181 0.624994,0.99219 -0.535997,2.76025 -0.554323,3.15879 -0.202292,4.39927 0.201411,0.70972 0.297598,1.56375 0.213748,1.89783 -0.480527,1.91457 -4.555127,4.4977 -5.430624,3.44279 z m 2.352546,-0.93481 c 1.112227,-0.56742 2.663201,-2.26736 2.657035,-2.91224 -0.0021,-0.2215 -0.178516,-0.90408 -0.391995,-1.51683 -0.376812,-1.08157 -0.303298,-2.16388 0.288245,-4.24372 0.113559,-0.39926 0.05586,-0.59531 -0.175217,-0.59531 -0.426641,0 -1.569266,1.04696 -1.569266,1.43789 0,0.15802 -0.280512,0.58983 -0.623359,0.95957 -0.461973,0.49822 -0.592022,0.88579 -0.502318,1.49698 0.101138,0.6891 -0.553945,3.23291 -1.398879,5.43212 -0.241352,0.6282 0.413525,0.60588 1.715754,-0.0585 z m 73.116713,-6.0931 c -0.09802,-0.37482 -0.360896,-0.52917 -0.901272,-0.52917 -1.174709,0 -1.821224,-0.82724 -1.821224,-2.33033 0,-1.22072 0.04091,-1.29005 1.014947,-1.71979 1.473624,-0.65016 1.803343,-0.57039 2.68756,0.65024 0.583058,0.80489 0.793059,1.38764 0.786607,2.18281 -0.01347,1.6596 -1.424531,3.05438 -1.766618,1.74624 z m 1.246254,-1.47946 c 0,-1.79625 -1.61704,-3.77634 -2.248959,-2.75387 -0.08994,0.14552 -0.394619,0.26458 -0.677073,0.26458 -0.428726,0 -0.513552,0.18792 -0.513552,1.13771 0,1.32426 0.34748,1.77271 1.373592,1.77271 0.445624,0 0.866342,0.20456 1.06066,0.51571 0.4501,0.72073 1.005332,0.20332 1.005332,-0.93684 z m -34.881127,-9.23146 c -0.339672,-0.18716 -0.750438,-0.47315 -0.912813,-0.63552 -0.162374,-0.16237 -0.4968,-0.29523 -0.743168,-0.29523 -0.246369,0 -0.516476,-0.17859 -0.600238,-0.39687 -0.08376,-0.21828 -0.291207,-0.39688 -0.460988,-0.39688 -0.169782,0 -0.579022,-0.26789 -0.909424,-0.59531 -0.98125,-0.9724 -1.358104,-1.22656 -2.490547,-1.67967 -0.592497,-0.23707 -1.321965,-0.774677 -1.621039,-1.194687 -0.299074,-0.420007 -0.757803,-0.763654 -1.019398,-0.763654 -0.261595,0 -1.157159,-0.654837 -1.990144,-1.455201 -0.832984,-0.800367 -1.608298,-1.455212 -1.722918,-1.455212 -0.114621,0 -0.356621,-0.178593 -0.537778,-0.396875 -0.247214,-0.297874 -0.911405,-0.396874 -2.662615,-0.396874 -1.283281,0 -2.394883,-0.09974 -2.470227,-0.221652 -0.229722,-0.371698 -5.791442,-0.03001 -6.265075,0.3849 -0.290787,0.254734 -1.157544,0.365918 -2.852574,0.365918 -2.086158,0 -2.456059,-0.06631 -2.582846,-0.463021 -0.08139,-0.254661 -0.270289,-0.719558 -0.419778,-1.033104 -0.14949,-0.313546 -0.191198,-0.700499 -0.09268,-0.859896 0.102584,-0.165985 -0.01031,-0.289812 -0.264235,-0.289812 -0.313087,0 -0.402691,-0.155477 -0.304969,-0.529167 0.07611,-0.291041 0.04435,-0.529166 -0.07057,-0.529166 -0.162087,0 -0.509492,-0.837584 -0.522421,-1.259543 -0.0012,-0.0379 -0.191733,-0.435605 -0.423492,-0.883777 -0.231758,-0.448172 -0.35697,-0.982705 -0.278248,-1.187852 0.07872,-0.205147 0.01223,-0.372995 -0.147767,-0.372995 -0.186679,0 -0.235054,-0.344123 -0.135026,-0.960527 0.100662,-0.620304 0.0123,-1.23817 -0.249474,-1.744379 -0.22294,-0.431119 -0.335946,-0.853252 -0.251125,-0.938074 0.08482,-0.08482 -0.100056,-0.424886 -0.410839,-0.7557 -0.319677,-0.340281 -0.496783,-0.779405 -0.407833,-1.011204 0.08907,-0.232103 -0.193197,-0.928952 -0.651101,-1.607438 -0.444579,-0.658742 -0.919117,-1.598962 -1.054527,-2.089377 -0.176404,-0.638882 -0.507387,-1.015606 -1.167509,-1.328854 -0.50672,-0.240455 -0.921309,-0.53157 -0.921309,-0.646923 0,-0.115353 -0.446485,-0.710486 -0.992188,-1.322519 -0.742792,-0.833078 -0.999614,-1.359161 -1.021734,-2.092958 -0.01625,-0.539094 -0.112682,-1.222242 -0.214291,-1.518105 -0.148579,-0.432627 0.03019,-0.678656 0.913186,-1.256771 0.603863,-0.39536 1.194288,-0.718837 1.312057,-0.718837 0.295888,0 1.325886,-2.025883 1.325886,-2.60786 0,-0.588704 1.067905,-1.625473 1.674289,-1.625473 0.247257,0 0.656302,0.105862 0.908989,0.23525 0.252687,0.129387 0.905915,0.454119 1.451618,0.721625 0.545703,0.267507 0.992187,0.624285 0.992187,0.79284 0,1.040823 3.106995,4.600285 4.015512,4.600285 0.265323,0 0.713889,-0.231484 0.996814,-0.514409 0.282925,-0.282925 0.934271,-0.593176 1.447436,-0.689446 1.076796,-0.202008 4.123571,-2.997467 4.123571,-3.783434 0,-0.262196 0.297657,-0.756353 0.661459,-1.098128 0.363802,-0.341774 0.661458,-0.740106 0.661458,-0.885183 0,-0.145076 0.175375,-0.457562 0.389722,-0.694413 0.214347,-0.236851 0.839425,-1.211668 1.389062,-2.166261 1.709457,-2.96893 2.721706,-4.168147 3.668174,-4.345706 0.468122,-0.08782 1.182743,-0.505801 1.588046,-0.928846 0.405303,-0.423046 1.005544,-0.769174 1.333869,-0.769174 0.67733,0 1.42071,-0.904217 1.42071,-1.728093 0,-0.303609 0.174807,-0.783133 0.38846,-1.065608 0.213654,-0.282475 0.395158,-0.930309 0.403343,-1.439632 0.03193,-1.986523 0.51806,-3.215099 1.797481,-4.542661 1.285654,-1.33403 2.173216,-2.708032 2.173216,-3.364275 0,-0.206013 0.31369,-1.041308 0.697088,-1.856212 2.496831,-5.30695 2.582942,-5.393091 5.148233,-5.150041 1.636137,0.155017 1.773642,0.219786 2.217879,1.044684 0.26048,0.483682 0.68703,1.108512 0.94789,1.388512 0.425887,0.457136 0.437824,0.614933 0.116967,1.546228 -0.240525,0.698129 -0.374254,2.63297 -0.409121,5.919306 -0.05051,4.760672 0.07222,6.117526 0.615666,6.80679 0.146192,0.185418 0.192824,0.410104 0.103626,0.499301 -0.248391,0.248392 0.86429,1.677118 1.306127,1.677118 0.344383,0 1.867127,-0.925523 2.220228,-1.349453 0.702793,-0.843768 3.648044,-0.826933 4.630208,0.02646 0.291042,0.252885 0.847389,0.534907 1.236328,0.626716 0.388939,0.09181 1.06439,0.524153 1.501002,0.960765 0.436612,0.436612 0.86253,0.79384 0.946484,0.79384 0.08395,0 0.390769,0.238125 0.681811,0.529167 0.450308,0.450308 0.529167,0.881944 0.529167,2.896416 0,2.027827 -0.09651,2.548754 -0.673072,3.633123 -0.370189,0.69623 -0.804092,1.803858 -0.964228,2.461396 -0.160137,0.657537 -0.407615,1.344351 -0.549951,1.526252 -0.142336,0.181901 -0.190504,0.330729 -0.107041,0.330729 0.201004,0 -0.656615,1.893925 -1.082025,2.389496 -0.183485,0.213746 -0.57908,0.716051 -0.8791,1.116233 -0.30002,0.400182 -0.685677,0.730874 -0.857016,0.73487 -0.398692,0.0093 -1.500943,2.180374 -1.506001,2.966333 -0.0021,0.329052 -0.174427,1.087752 -0.38291,1.686001 -0.557505,1.599783 -0.678643,11.438347 -0.160893,13.067483 0.208113,0.654844 0.463226,1.309687 0.566918,1.455208 0.247002,0.346641 0.171806,4.791938 -0.08541,5.049145 -0.109141,0.10913 -0.198438,0.537387 -0.198438,0.951664 0,0.41428 -0.110371,0.959987 -0.245269,1.212664 -0.134898,0.25269 -0.310441,0.669577 -0.390095,0.926414 -0.134159,0.4326 -1.357753,1.12876 -1.812032,1.03095 -0.10914,-0.0235 -0.198437,0.0491 -0.198437,0.16123 0,0.11218 -0.557607,0.49914 -1.239127,0.8599 -0.681519,0.36076 -1.444795,0.85366 -1.696168,1.09533 -0.484473,0.46577 -1.613814,1.00188 -3.168907,1.5043 -1.119843,0.36181 -1.249602,0.35632 -2.054009,-0.0869 z m 1.675919,-0.40158 c 0.08994,-0.14552 0.387814,-0.26458 0.66195,-0.26458 0.561978,0 2.270486,-0.94806 2.971112,-1.64869 0.254576,-0.25457 1.001315,-0.71597 1.65942,-1.02531 0.658106,-0.30935 1.261596,-0.66769 1.34109,-0.79631 0.07949,-0.12862 0.379368,-0.23386 0.666389,-0.23386 0.28702,0 0.588446,-0.20836 0.669835,-0.463017 0.08139,-0.25466 0.270289,-0.719557 0.419778,-1.033094 0.149489,-0.31355 0.192718,-0.698037 0.09606,-0.854427 -0.09665,-0.156387 -0.02762,-0.554697 0.153417,-0.885124 0.4166,-0.760397 0.541805,-4.769716 0.1564,-5.008244 -0.154742,-0.09577 -0.297659,-0.395519 -0.317594,-0.66611 -0.01994,-0.27059 -0.129387,-0.64269 -0.243228,-0.826888 -0.602525,-0.974906 -0.308905,-12.979018 0.333172,-13.621095 0.162655,-0.162655 0.295737,-0.690835 0.295737,-1.173732 0,-1.242256 1.224796,-3.47938 2.013259,-3.677272 0.347916,-0.08732 0.632574,-0.309873 0.632574,-0.494561 0,-0.184687 0.185473,-0.489724 0.412161,-0.677858 0.444513,-0.368913 1.289029,-2.092038 1.206919,-2.46256 -0.02758,-0.124458 0.05591,-0.362583 0.185533,-0.529166 0.129623,-0.166584 0.3667,-0.840865 0.526837,-1.498403 0.160137,-0.657537 0.59404,-1.765166 0.964229,-2.461396 0.568012,-1.068285 0.673071,-1.614723 0.673071,-3.500831 0,-1.621953 -0.09151,-2.234957 -0.333633,-2.234957 -0.183499,0 -0.628676,-0.357188 -0.989284,-0.79375 -0.360607,-0.436563 -0.791206,-0.79375 -0.956886,-0.79375 -0.16568,0 -0.449456,-0.178594 -0.630614,-0.396875 -0.181157,-0.218282 -0.546172,-0.396875 -0.811144,-0.396875 -0.264971,0 -0.637346,-0.219207 -0.827499,-0.487126 -0.361162,-0.508866 -3.38844,-1.058479 -3.38844,-0.615183 0,0.123877 -0.444668,0.452339 -0.988151,0.729915 -0.543483,0.277577 -1.1473,0.653513 -1.341815,0.835414 -0.616693,0.5767 -1.565097,0.383609 -2.149934,-0.437718 -0.300951,-0.422647 -0.547183,-0.951401 -0.547183,-1.17501 0,-0.22361 -0.103423,-0.470482 -0.22983,-0.548605 -0.126406,-0.07812 -0.312952,-0.650697 -0.414546,-1.272386 -0.268187,-1.641134 -0.17347,-10.574817 0.12308,-11.608827 0.214069,-0.746417 0.15253,-1.029997 -0.407001,-1.875505 -0.362561,-0.547868 -0.659203,-1.100777 -0.659203,-1.228688 0,-0.12791 -0.744141,-0.312104 -1.653646,-0.40932 -1.529117,-0.163444 -1.693495,-0.129157 -2.182812,0.455311 -1.018437,1.216477 -1.627405,2.444372 -2.842495,5.731478 -0.846574,2.290182 -1.103494,2.732909 -2.046333,3.526255 -0.439842,0.370103 -0.799714,0.793748 -0.799714,0.941433 0,0.147685 -0.165873,0.363731 -0.368606,0.480102 -0.447719,0.256996 -0.950819,1.983499 -0.952835,3.269869 -8.11e-4,0.51789 -0.176283,1.172734 -0.389936,1.455208 -0.213653,0.282475 -0.392247,0.846425 -0.396875,1.253222 -0.009,0.789427 -1.043407,2.038494 -1.688198,2.038494 -0.209507,0 -0.748706,0.343563 -1.198221,0.763473 -0.449516,0.41991 -1.236013,0.842024 -1.747773,0.938031 -0.51176,0.09601 -0.930472,0.271462 -0.930472,0.389901 0,0.118439 -0.453728,0.738122 -1.008283,1.377073 -0.554556,0.638952 -1.166322,1.553532 -1.35948,2.032402 -0.193158,0.478869 -0.69193,1.341041 -1.108383,1.915938 -0.416453,0.574896 -0.757187,1.144605 -0.757187,1.26602 0,0.121415 -0.297657,0.500387 -0.661459,0.842162 -0.363802,0.341774 -0.661458,0.879179 -0.661458,1.194232 0,0.315054 -0.403678,0.940164 -0.897062,1.389134 -0.493384,0.448969 -1.060381,1.033647 -1.259993,1.299283 -0.465944,0.620062 -1.207784,1.02786 -2.31034,1.270022 -0.482983,0.10608 -1.104153,0.418876 -1.380378,0.695101 -0.735456,0.735456 -1.600168,0.617437 -2.911575,-0.397383 -1.465133,-1.133779 -1.935506,-1.703845 -2.588359,-3.136946 -0.295125,-0.64784 -0.817678,-1.284937 -1.201812,-1.46525 -0.373806,-0.175465 -0.976147,-0.457589 -1.338535,-0.626944 -0.548824,-0.25648 -0.747712,-0.227532 -1.190625,0.173299 -0.292455,0.264669 -0.531737,0.662669 -0.531737,0.884445 0,0.560748 -0.606233,2.237012 -0.926042,2.560551 -0.145521,0.147218 -0.562239,0.419823 -0.926041,0.605788 -1.685357,0.861507 -1.812039,0.983669 -1.534447,1.479699 0.146951,0.262587 0.20051,0.810799 0.11902,1.218249 -0.102983,0.514913 0.0096,0.922671 0.369048,1.33717 0.284466,0.327992 0.517212,0.697195 0.517212,0.82045 0,0.123254 0.17057,0.224099 0.379045,0.224099 0.208475,0 0.445913,0.21068 0.527639,0.468177 0.08173,0.257497 0.566,0.692964 1.076163,0.967705 0.510163,0.274742 0.928658,0.629609 0.929989,0.788595 0.003,0.362983 1.027462,2.433318 1.680318,3.395876 0.270661,0.399059 0.423226,0.905075 0.339033,1.124479 -0.08419,0.219405 -0.04002,0.398918 0.09816,0.398918 0.138181,0 0.324209,0.327422 0.413395,0.727604 0.08919,0.400182 0.339954,1.124648 0.557262,1.609925 0.217308,0.485276 0.324763,1.162588 0.238789,1.505139 -0.08597,0.34255 -0.03197,0.699666 0.119999,0.793592 0.151974,0.09392 0.207158,0.388672 0.122631,0.654994 -0.0928,0.292387 0.273256,1.299593 0.923985,2.542355 0.592719,1.131974 1.019422,2.209929 0.948229,2.395456 -0.07119,0.185527 -0.01558,0.407692 0.123586,0.493701 0.139165,0.08601 0.253028,0.387478 0.253028,0.669932 0,0.466448 0.198301,0.513552 2.161979,0.513552 1.451785,0 2.299193,-0.119154 2.579687,-0.362728 0.537431,-0.466691 6.441376,-0.783813 6.856881,-0.368308 0.161106,0.161106 1.174258,0.257243 2.376157,0.225473 1.600765,-0.04232 2.192719,0.04203 2.508064,0.357379 0.227022,0.227022 0.52963,0.412767 0.672464,0.412767 0.142833,0 0.941229,0.654844 1.774213,1.455211 0.832985,0.800364 1.722526,1.455201 1.976758,1.455201 0.254232,0 0.772638,0.406957 1.152014,0.904344 0.399174,0.523337 1.025375,0.978044 1.486358,1.079294 0.438121,0.0962 1.60037,0.79939 2.582775,1.56259 0.982405,0.7632 1.964784,1.46946 2.183065,1.56945 0.218282,0.1 0.754063,0.40992 1.190625,0.68872 0.908597,0.58026 1.353843,0.65908 1.5875,0.28101 z M 15.423257,91.879213 c -1.294356,-1.325542 -1.307893,-2.300169 -0.04994,-3.595517 0.624031,-0.642581 1.160031,-0.948756 1.660921,-0.948756 0.406754,0 1.021645,-0.197585 1.366426,-0.439079 0.590476,-0.413586 0.648863,-0.409746 1.005625,0.06615 0.774369,1.032946 1.442863,2.586475 1.634422,3.79827 l 0.197384,1.248645 -1.474843,0.304341 c -3.206421,0.661659 -3.276952,0.654605 -4.339995,-0.43405 z m 4.254214,-0.08537 c 1.029404,-0.319164 1.096303,-0.869453 0.315058,-2.591591 -0.836206,-1.843293 -0.866651,-1.86079 -2.43844,-1.401427 -2.609052,0.762508 -3.261822,2.168669 -1.732764,3.732627 0.757242,0.774525 0.946656,0.842974 1.918229,0.693192 0.592912,-0.09141 1.464974,-0.286167 1.937917,-0.432801 z m 75.20781,-11.330149 c 0,-0.286685 -0.363917,-0.790302 -0.808705,-1.119148 -0.524944,-0.388108 -0.765755,-0.762146 -0.686298,-1.065991 0.06733,-0.257448 0.01452,-0.534765 -0.117336,-0.616259 -0.312893,-0.193378 -0.310816,-1.629285 0.0026,-1.823009 0.472788,-0.292199 1.595568,0.367001 1.763288,1.035253 0.0926,0.368949 0.264809,0.670816 0.382685,0.670816 0.244715,0 1.315813,1.653975 1.315813,2.031861 0,0.40371 -1.04523,1.407722 -1.465515,1.407722 -0.212612,0 -0.386568,-0.23456 -0.386568,-0.521245 z m 1.127324,-1.360174 c -0.07679,-0.293651 -0.41005,-0.711102 -0.740576,-0.927671 -0.330526,-0.216569 -0.67409,-0.685151 -0.763476,-1.041294 -0.08939,-0.356143 -0.338846,-0.647532 -0.554354,-0.647532 -0.450933,0 -0.529852,0.677221 -0.109214,0.937189 0.155442,0.09607 0.217998,0.343075 0.139014,0.548904 -0.08011,0.208764 0.204384,0.706794 0.643421,1.126361 0.432865,0.41367 0.790814,0.91783 0.795442,1.120357 0.0061,0.26488 0.109589,0.234824 0.368889,-0.107087 0.198261,-0.261425 0.297646,-0.715577 0.220854,-1.009227 z m -8.347792,-3.813077 c -0.361162,-0.496288 -0.408496,-0.772418 -0.199386,-1.163143 0.415099,-0.77562 0.07201,-1.304876 -1.294887,-1.997536 -1.448751,-0.734138 -1.988373,-1.298966 -1.774205,-1.85708 0.20578,-0.536253 0.648902,-0.504344 1.90019,0.136831 0.695201,0.356229 1.4721,0.518454 2.307231,0.481776 1.396884,-0.06135 2.312775,0.587015 2.312775,1.637226 0,0.785496 -1.81026,3.431113 -2.340831,3.421025 -0.240512,-0.0046 -0.650411,-0.301168 -0.910887,-0.659099 z m 2.423578,-2.007947 c 0.289771,-0.573395 0.289066,-0.787268 -0.0041,-1.25677 -0.293833,-0.470501 -0.607346,-0.565786 -1.86158,-0.565786 -0.829532,0 -1.574579,-0.107339 -1.65566,-0.238531 -0.08108,-0.131192 -0.518108,-0.367753 -0.97117,-0.525691 -0.720217,-0.25107 -0.782393,-0.23733 -0.494699,0.109319 0.180977,0.218064 0.848478,0.626249 1.483335,0.907076 1.280954,0.566627 1.905123,1.520327 1.485615,2.269947 -0.18578,0.33197 -0.145902,0.595574 0.140741,0.930349 0.377873,0.441323 0.431142,0.42829 0.964168,-0.235898 0.310309,-0.386666 0.721336,-1.013973 0.913393,-1.394015 z M 34.696823,62.735566 c -0.110627,-0.178998 -0.610976,-0.496692 -1.111887,-0.705986 -0.688829,-0.287811 -0.890487,-0.516527 -0.827596,-0.938646 0.118147,-0.793003 1.346638,-1.615769 2.470833,-1.654808 0.857178,-0.02977 1.037983,-0.171455 1.718752,-1.346913 0.418441,-0.722506 0.880365,-1.574298 1.026498,-1.892872 0.146133,-0.318574 0.49735,-0.703203 0.780483,-0.854731 0.420009,-0.224782 0.589864,-0.160922 0.922576,0.346861 0.356664,0.544339 0.363369,0.834673 0.05348,2.315785 -0.538713,2.574771 -0.891693,3.769052 -1.261664,4.268741 -0.4316,0.582925 -3.467004,0.955215 -3.771476,0.462569 z m 3.415028,-0.809864 c 0.454034,-0.448295 1.432566,-5.386476 1.139899,-5.752522 -0.287734,-0.359876 -0.654339,0.09591 -2.071284,2.575148 -0.60771,1.063313 -0.797405,1.205453 -1.641594,1.230058 -0.95413,0.02781 -2.301506,0.699816 -2.301506,1.147882 0,0.130604 0.347241,0.313728 0.771647,0.406943 0.424406,0.09322 0.84317,0.355868 0.930586,0.583673 0.129287,0.336915 0.417251,0.380218 1.543458,0.232099 0.761484,-0.100151 1.494442,-0.290627 1.628794,-0.423281 z"
       id="path38" /><text
       xml:space="preserve"
       style="font-size:8.46667px;line-height:1.2;font-family:linzklar_rounded;-inkscape-font-specification:linzklar_rounded;text-align:center;text-decoration-color:#000000;text-anchor:middle;white-space:pre;fill:#000000;stroke:none;stroke-width:0.499999;stroke-linecap:round;stroke-linejoin:round;stroke-dasharray:none"
       x="89.027916"
       y="13.455971"
       id="text2"><tspan
         sodipodi:role="line"
         id="tspan2"
         style="font-style:normal;font-variant:normal;font-weight:900;font-stretch:normal;font-size:8.46667px;font-family:'Source Han Serif';-inkscape-font-specification:'Source Han Serif Heavy';stroke-width:0.5"
         x="89.027916"
         y="13.455971">東諸島共和国連合</tspan></text><text
       xml:space="preserve"
       style="font-size:8.46667px;line-height:1.2;font-family:linzklar_rounded;-inkscape-font-specification:linzklar_rounded;text-align:center;text-decoration-color:#000000;writing-mode:tb-rl;text-anchor:middle;white-space:pre;fill:#000000;stroke:#000000;stroke-width:0.2;stroke-linecap:round;stroke-linejoin:round;stroke-dasharray:none;stroke-opacity:0.909804"
       x="50.814835"
       y="77.715637"
       id="text1-3"><tspan
         sodipodi:role="line"
         id="tspan1-0"
         style="font-size:8.46667px;writing-mode:tb-rl;fill:#000000;stroke:#000000;stroke-width:0.2;stroke-dasharray:none;stroke-opacity:0.909804"
         x="50.814835"
         y="77.715637">母島</tspan></text><text
       xml:space="preserve"
       style="font-size:7.05556px;line-height:1.2;font-family:linzklar_rounded;-inkscape-font-specification:linzklar_rounded;text-align:center;text-decoration-color:#000000;writing-mode:tb-rl;text-anchor:middle;white-space:pre;fill:#000000;stroke:#000000;stroke-width:0.2;stroke-linecap:round;stroke-linejoin:round;stroke-dasharray:none;stroke-opacity:0.909804"
       x="9.4669809"
       y="85.402214"
       id="text1-3-0"><tspan
         sodipodi:role="line"
         id="tspan1-0-8"
         style="font-size:7.05556px;writing-mode:tb-rl;fill:#000000;stroke:#000000;stroke-width:0.2;stroke-dasharray:none;stroke-opacity:0.909804"
         x="9.4669809"
         y="85.402214">皇島</tspan></text><text
       xml:space="preserve"
       style="font-size:7.05556px;line-height:1.2;font-family:linzklar_rounded;-inkscape-font-specification:linzklar_rounded;text-align:center;text-decoration-color:#000000;writing-mode:tb-rl;text-anchor:middle;white-space:pre;fill:#000000;stroke:#000000;stroke-width:0.2;stroke-linecap:round;stroke-linejoin:round;stroke-dasharray:none;stroke-opacity:0.909804"
       x="30.96698"
       y="49.402214"
       id="text3"><tspan
         sodipodi:role="line"
         id="tspan3"
         style="font-size:7.05556px;writing-mode:tb-rl;fill:#000000;stroke:#000000;stroke-width:0.2;stroke-dasharray:none;stroke-opacity:0.909804"
         x="30.96698"
         y="49.402214">光島</tspan></text><text
       xml:space="preserve"
       style="font-size:7.05556px;line-height:1.2;font-family:linzklar_rounded;-inkscape-font-specification:linzklar_rounded;text-align:center;text-decoration-color:#000000;writing-mode:tb-rl;text-anchor:middle;white-space:pre;fill:#000000;stroke:#000000;stroke-width:0.2;stroke-linecap:round;stroke-linejoin:round;stroke-dasharray:none;stroke-opacity:0.909804"
       x="84.96698"
       y="60.402214"
       id="text4"><tspan
         sodipodi:role="line"
         id="tspan4"
         style="font-size:7.05556px;writing-mode:tb-rl;fill:#000000;stroke:#000000;stroke-width:0.2;stroke-dasharray:none;stroke-opacity:0.909804"
         x="84.96698"
         y="60.402214">闇島</tspan></text><text
       xml:space="preserve"
       style="font-size:8.46667px;line-height:1.2;font-family:linzklar_rounded;-inkscape-font-specification:linzklar_rounded;text-align:center;text-decoration-color:#000000;writing-mode:tb-rl;text-anchor:middle;white-space:pre;fill:#000000;stroke:#000000;stroke-width:0.2;stroke-linecap:round;stroke-linejoin:round;stroke-dasharray:none;stroke-opacity:0.94902"
       x="43.814835"
       y="117.7156"
       id="text5"><tspan
         sodipodi:role="line"
         id="tspan5"
         style="font-size:8.46667px;writing-mode:tb-rl;fill:#000000;stroke:#000000;stroke-width:0.2;stroke-dasharray:none;stroke-opacity:0.94902"
         x="43.814835"
         y="117.7156">父島</tspan></text><text
       xml:space="preserve"
       style="font-size:7.05556px;line-height:1.2;font-family:linzklar_rounded;-inkscape-font-specification:linzklar_rounded;text-align:center;text-decoration-color:#000000;writing-mode:tb-rl;text-anchor:middle;white-space:pre;fill:#000000;stroke:#000000;stroke-width:0.2;stroke-linecap:round;stroke-linejoin:round;stroke-dasharray:none;stroke-opacity:0.909804"
       x="30.690567"
       y="140.46301"
       id="text6"><tspan
         sodipodi:role="line"
         id="tspan6"
         style="font-size:7.05556px;writing-mode:tb-rl;fill:#000000;stroke:#000000;stroke-width:0.2;stroke-dasharray:none;stroke-opacity:0.909804"
         x="30.690567"
         y="140.46301">小島</tspan></text><text
       xml:space="preserve"
       style="font-size:7.05556px;line-height:1.2;font-family:linzklar_rounded;-inkscape-font-specification:linzklar_rounded;text-align:center;text-decoration-color:#000000;writing-mode:tb-rl;text-anchor:middle;white-space:pre;fill:#000000;stroke:#000000;stroke-width:0.2;stroke-linecap:round;stroke-linejoin:round;stroke-dasharray:none;stroke-opacity:0.909804"
       x="11.966981"
       y="119.40221"
       id="text7"><tspan
         sodipodi:role="line"
         id="tspan7"
         style="font-size:7.05556px;writing-mode:tb-rl;fill:#000000;stroke:#000000;stroke-width:0.2;stroke-dasharray:none;stroke-opacity:0.909804"
         x="11.966981"
         y="119.40221">皇月島</tspan></text><text
       xml:space="preserve"
       style="font-size:7.05556px;line-height:1.2;font-family:linzklar_rounded;-inkscape-font-specification:linzklar_rounded;text-align:center;text-decoration-color:#000000;writing-mode:tb-rl;text-anchor:middle;white-space:pre;fill:#000000;stroke:#000000;stroke-width:0.2;stroke-linecap:round;stroke-linejoin:round;stroke-dasharray:none;stroke-opacity:0.909804"
       x="20.314835"
       y="163.71544"
       id="text8"><tspan
         sodipodi:role="line"
         id="tspan8"
         style="font-size:7.05556px;writing-mode:tb-rl;fill:#000000;stroke:#000000;stroke-width:0.2;stroke-dasharray:none;stroke-opacity:0.909804"
         x="20.314835"
         y="163.71544">輩島</tspan></text><text
       xml:space="preserve"
       style="font-size:7.05556px;line-height:1.2;font-family:linzklar_rounded;-inkscape-font-specification:linzklar_rounded;text-align:center;text-decoration-color:#000000;writing-mode:tb-rl;text-anchor:middle;white-space:pre;fill:#000000;stroke:#000000;stroke-width:0.2;stroke-linecap:round;stroke-linejoin:round;stroke-dasharray:none;stroke-opacity:0.909804"
       x="100.96698"
       y="66.402214"
       id="text9"><tspan
         sodipodi:role="line"
         id="tspan9"
         style="font-size:7.05556px;writing-mode:tb-rl;fill:#000000;stroke:#000000;stroke-width:0.2;stroke-dasharray:none;stroke-opacity:0.909804"
         x="100.96698"
         y="66.402214">蜜石島</tspan></text><text
       xml:space="preserve"
       style="font-size:8.46667px;line-height:1.2;font-family:linzklar_rounded;-inkscape-font-specification:linzklar_rounded;text-align:center;text-decoration-color:#000000;writing-mode:tb-rl;text-anchor:middle;white-space:pre;fill:#000000;stroke:#000000;stroke-width:0.2;stroke-linecap:round;stroke-linejoin:round;stroke-dasharray:none;stroke-opacity:0.909804"
       x="117.81483"
       y="97.215637"
       id="text10"><tspan
         sodipodi:role="line"
         id="tspan10"
         style="font-size:8.46667px;writing-mode:tb-rl;fill:#000000;stroke:#000000;stroke-width:0.2;stroke-dasharray:none;stroke-opacity:0.909804"
         x="117.81483"
         y="97.215637">大月島</tspan></text><text
       xml:space="preserve"
       style="font-size:7.05556px;line-height:1.2;font-family:linzklar_rounded;-inkscape-font-specification:linzklar_rounded;text-align:center;text-decoration-color:#000000;writing-mode:tb-rl;text-anchor:middle;white-space:pre;fill:#000000;stroke:#000000;stroke-width:0.2;stroke-linecap:round;stroke-linejoin:round;stroke-dasharray:none;stroke-opacity:0.909804"
       x="85.190567"
       y="110.96317"
       id="text11"><tspan
         sodipodi:role="line"
         id="tspan11"
         style="font-size:7.05556px;writing-mode:tb-rl;fill:#000000;stroke:#000000;stroke-width:0.2;stroke-dasharray:none;stroke-opacity:0.909804"
         x="85.190567"
         y="110.96317">享島</tspan></text><text
       xml:space="preserve"
       style="font-size:7.05556px;line-height:1.2;font-family:linzklar_rounded;-inkscape-font-specification:linzklar_rounded;text-align:center;text-decoration-color:#000000;writing-mode:tb-rl;text-anchor:middle;white-space:pre;fill:#000000;stroke:#000000;stroke-width:0.2;stroke-linecap:round;stroke-linejoin:round;stroke-dasharray:none;stroke-opacity:0.909804"
       x="62.190567"
       y="135.46307"
       id="text12"><tspan
         sodipodi:role="line"
         id="tspan12"
         style="font-size:7.05556px;writing-mode:tb-rl;fill:#000000;stroke:#000000;stroke-width:0.2;stroke-dasharray:none;stroke-opacity:0.909804"
         x="62.190567"
         y="135.46307">豊民島</tspan></text><text
       xml:space="preserve"
       style="font-size:7.05556px;line-height:1.2;font-family:linzklar_rounded;-inkscape-font-specification:linzklar_rounded;text-align:center;text-decoration-color:#000000;writing-mode:tb-rl;text-anchor:middle;white-space:pre;fill:#000000;stroke:#000000;stroke-width:0.2;stroke-linecap:round;stroke-linejoin:round;stroke-dasharray:none;stroke-opacity:0.909804"
       x="80.690567"
       y="144.46298"
       id="text13"><tspan
         sodipodi:role="line"
         id="tspan13"
         style="font-size:7.05556px;writing-mode:tb-rl;fill:#000000;stroke:#000000;stroke-width:0.2;stroke-dasharray:none;stroke-opacity:0.909804"
         x="80.690567"
         y="144.46298">広島</tspan></text><text
       xml:space="preserve"
       style="font-size:7.05556px;line-height:1.2;font-family:linzklar_rounded;-inkscape-font-specification:linzklar_rounded;text-align:center;text-decoration-color:#000000;writing-mode:tb-rl;text-anchor:middle;white-space:pre;fill:#000000;stroke:#000000;stroke-width:0.2;stroke-linecap:round;stroke-linejoin:round;stroke-dasharray:none;stroke-opacity:0.909804"
       x="95.690567"
       y="136.46306"
       id="text14"><tspan
         sodipodi:role="line"
         id="tspan14"
         style="font-size:7.05556px;writing-mode:tb-rl;fill:#000000;stroke:#000000;stroke-width:0.2;stroke-dasharray:none;stroke-opacity:0.909804"
         x="95.690567"
         y="136.46306">石島</tspan></text><g
       id="g37"
       transform="matrix(0.7400626,0,0,0.7400626,-119.29485,-9.3194084)"
       style="stroke:#000000;stroke-width:0.594544;stroke-linecap:butt;stroke-dasharray:none;stroke-opacity:0.94902"><g
         id="g38"
         transform="matrix(0.82970325,0,0,0.82970325,57.858966,6.736693)"
         style="stroke:#000000;stroke-width:0.716575;stroke-linecap:butt;stroke-dasharray:none;stroke-opacity:0.94902"><path
           style="fill:#000000;stroke:#000000;stroke-width:0.716575;stroke-linecap:butt;stroke-linejoin:round;stroke-dasharray:none;stroke-opacity:0.94902;paint-order:markers stroke fill"
           d="m 194.03052,36.665905 1.37831,2.861131 c 0,0 -6.46695,12.54621 -13.0351,14.306141 0,0 7.86091,-3.193868 11.65679,-17.167272 z"
           id="path2"
           sodipodi:nodetypes="cccc" /><path
           style="fill:#000000;stroke:#000000;stroke-width:0.716575;stroke-linecap:butt;stroke-linejoin:round;stroke-dasharray:none;stroke-opacity:0.94902;paint-order:markers stroke fill"
           d="M 194.83745,40.370773 205.44889,51.6037 208.24086,51.042622 194.49519,39.383819 Z"
           id="path3"
           sodipodi:nodetypes="ccccc" /><path
           style="fill:#000000;stroke:#000000;stroke-width:0.716575;stroke-linecap:butt;stroke-linejoin:round;stroke-dasharray:none;stroke-opacity:0.94902;paint-order:markers stroke fill"
           d="m 189.35915,47.907614 1.893,1.674582 9.62635,-1.601774 -2.06359,-1.458773 c 0,0 -5.16009,1.750005 -9.45576,1.385965 z"
           id="path4"
           sodipodi:nodetypes="ccccc" /><path
           style="fill:#000000;stroke:#000000;stroke-width:0.716575;stroke-linecap:butt;stroke-linejoin:round;stroke-dasharray:none;stroke-opacity:0.94902;paint-order:markers stroke fill"
           d="m 191.76181,48.655205 1.23773,1.674582 c 0,0 -0.69429,6.208185 -6.3005,7.882769 0.43685,-0.364042 3.60661,-1.475671 5.06277,-9.557351 z"
           id="path5"
           sodipodi:nodetypes="cccc" /><path
           style="fill:#000000;stroke:#000000;stroke-width:0.716575;stroke-linecap:butt;stroke-linejoin:round;stroke-dasharray:none;stroke-opacity:0.94902;paint-order:markers stroke fill"
           d="m 191.03373,53.149785 2.96764,3.04044 1.38335,-1.528967 z"
           id="path6"
           sodipodi:nodetypes="cccc" /><path
           style="fill:#000000;stroke:#000000;stroke-width:0.716575;stroke-linecap:butt;stroke-linejoin:round;stroke-dasharray:none;stroke-opacity:0.94902;paint-order:markers stroke fill"
           d="m 197.58645,47.999933 1.23773,1.674582 c 0,0 -0.69429,6.208185 -6.3005,7.882769 1.31054,-1.019313 3.60661,-1.475671 5.06277,-9.557351 z"
           id="path7"
           sodipodi:nodetypes="cccc" /><path
           style="fill:#000000;stroke:#000000;stroke-width:0.716575;stroke-linecap:butt;stroke-linejoin:round;stroke-dasharray:none;stroke-opacity:0.94902;paint-order:markers stroke fill"
           d="m 196.85837,52.494513 5.39303,5.994998 1.38335,-1.528967 z"
           id="path8"
           sodipodi:nodetypes="cccc" /><path
           style="fill:#000000;stroke:#000000;stroke-width:0.716575;stroke-linecap:butt;stroke-linejoin:round;stroke-dasharray:none;stroke-opacity:0.94902;paint-order:markers stroke fill"
           d="m 215.53623,39.577527 1.23773,1.674582 c 0,0 -0.98515,12.002481 -7.888,14.232769 0.43685,-0.364042 6.14061,-5.204586 6.65027,-15.907351 z"
           id="path12"
           sodipodi:nodetypes="cccc" /><path
           style="fill:#000000;stroke:#000000;stroke-width:0.716575;stroke-linecap:butt;stroke-linejoin:round;stroke-dasharray:none;stroke-opacity:0.94902;paint-order:markers stroke fill"
           d="m 215.02657,45.091418 2.50224,7.38321 1.38335,-1.528967 z"
           id="path13"
           sodipodi:nodetypes="cccc" /><path
           style="fill:#000000;stroke:#000000;stroke-width:0.716575;stroke-linecap:butt;stroke-linejoin:round;stroke-dasharray:none;stroke-opacity:0.94902;paint-order:markers stroke fill"
           d="m 221.36087,38.922255 1.23773,1.674582 c 0,0 -0.69429,12.558185 -6.3005,14.232769 1.31054,-1.019313 4.4075,-6.733552 5.06277,-15.907351 z"
           id="path14"
           sodipodi:nodetypes="cccc" /><path
           style="fill:#000000;stroke:#000000;stroke-width:0.716575;stroke-linecap:butt;stroke-linejoin:round;stroke-dasharray:none;stroke-opacity:0.94902;paint-order:markers stroke fill"
           d="m 220.74342,45.514365 6.34073,8.659968 1.38335,-1.528967 z"
           id="path15"
           sodipodi:nodetypes="cccc" /><path
           style="fill:#000000;stroke:#000000;stroke-width:0.716575;stroke-linecap:butt;stroke-linejoin:round;stroke-dasharray:none;stroke-opacity:0.94902;paint-order:markers stroke fill"
           d="m 209.97327,44.767292 1.893,1.674582 7.63317,-1.416539 -1.68445,-1.273538 c 0,0 -3.54605,1.379535 -7.84172,1.015495 z"
           id="path16"
           sodipodi:nodetypes="ccccc" /><use
           x="0"
           y="0"
           xlink:href="#path16"
           id="use16"
           transform="translate(6.7301986,-0.18523482)"
           style="fill:#000000;stroke:#000000;stroke-width:0.716575;stroke-linecap:butt;stroke-dasharray:none;stroke-opacity:0.94902" /><path
           style="fill:#000000;stroke:#000000;stroke-width:0.716575;stroke-linecap:butt;stroke-linejoin:round;stroke-dasharray:none;stroke-opacity:0.94902;paint-order:markers stroke fill"
           d="m 212.92837,54.981745 1.893,1.674582 10.12031,-1.601774 -2.24883,-1.361821 c 0,0 -5.46881,1.653053 -9.76448,1.289013 z"
           id="path17"
           sodipodi:nodetypes="ccccc" /><path
           style="fill:#000000;stroke:#000000;stroke-width:0.716575;stroke-linecap:butt;stroke-linejoin:round;stroke-dasharray:none;stroke-opacity:0.94902;paint-order:markers stroke fill"
           d="m 241.00639,36.665905 1.37831,2.861131 c 0,0 -6.46695,12.54621 -13.0351,14.306141 0,0 7.86091,-3.193868 11.65679,-17.167272 z"
           id="path18"
           sodipodi:nodetypes="cccc" /><path
           style="fill:#000000;stroke:#000000;stroke-width:0.716575;stroke-linecap:butt;stroke-linejoin:round;stroke-dasharray:none;stroke-opacity:0.94902;paint-order:markers stroke fill"
           d="M 241.81332,40.370773 252.42476,51.6037 255.21673,51.042622 241.47106,39.383819 Z"
           id="path19"
           sodipodi:nodetypes="ccccc" /><path
           style="fill:#000000;stroke:#000000;stroke-width:0.716575;stroke-linecap:butt;stroke-linejoin:round;stroke-dasharray:none;stroke-opacity:0.94902;paint-order:markers stroke fill"
           d="m 236.33502,47.907614 1.893,1.674582 9.62635,-1.601774 -2.06359,-1.458773 c 0,0 -5.16009,1.750005 -9.45576,1.385965 z"
           id="path20"
           sodipodi:nodetypes="ccccc" /><path
           style="fill:#000000;stroke:#000000;stroke-width:0.716575;stroke-linecap:butt;stroke-linejoin:round;stroke-dasharray:none;stroke-opacity:0.94902;paint-order:markers stroke fill"
           d="m 238.73768,48.655205 1.23773,1.674582 c 0,0 -0.69429,6.208185 -6.3005,7.882769 0.43685,-0.364042 3.60661,-1.475671 5.06277,-9.557351 z"
           id="path21"
           sodipodi:nodetypes="cccc" /><path
           style="fill:#000000;stroke:#000000;stroke-width:0.716575;stroke-linecap:butt;stroke-linejoin:round;stroke-dasharray:none;stroke-opacity:0.94902;paint-order:markers stroke fill"
           d="m 238.0096,53.149785 2.96764,3.04044 1.38335,-1.528967 z"
           id="path22"
           sodipodi:nodetypes="cccc" /><path
           style="fill:#000000;stroke:#000000;stroke-width:0.716575;stroke-linecap:butt;stroke-linejoin:round;stroke-dasharray:none;stroke-opacity:0.94902;paint-order:markers stroke fill"
           d="m 244.56232,47.999933 1.23773,1.674582 c 0,0 -0.69429,6.208185 -6.3005,7.882769 1.31054,-1.019313 3.60661,-1.475671 5.06277,-9.557351 z"
           id="path23"
           sodipodi:nodetypes="cccc" /><path
           style="fill:#000000;stroke:#000000;stroke-width:0.716575;stroke-linecap:butt;stroke-linejoin:round;stroke-dasharray:none;stroke-opacity:0.94902;paint-order:markers stroke fill"
           d="m 243.83424,52.494513 5.39303,5.994998 1.38335,-1.528967 z"
           id="path24"
           sodipodi:nodetypes="cccc" /><path
           style="fill:#000000;stroke:#000000;stroke-width:0.716575;stroke-linecap:butt;stroke-linejoin:round;stroke-dasharray:none;stroke-opacity:0.94902;paint-order:markers stroke fill"
           d="m 259.356,37.274396 2.02642,1.510398 0.40135,8.162948 -1.85008,-1.721529 c 0,0 0.65741,-3.821464 -0.57769,-7.951817 z"
           id="path25"
           sodipodi:nodetypes="ccccc" /><path
           style="fill:#000000;stroke:#000000;stroke-width:0.716575;stroke-linecap:butt;stroke-linejoin:round;stroke-dasharray:none;stroke-opacity:0.94902;paint-order:markers stroke fill"
           d="m 259.99832,38.29584 1.893,1.674582 11.21385,-1.601774 -2.06359,-1.458773 c 0,0 -6.74759,1.750005 -11.04326,1.385965 z"
           id="path26"
           sodipodi:nodetypes="ccccc" /><path
           style="fill:#000000;stroke:#000000;stroke-width:0.716575;stroke-linecap:butt;stroke-linejoin:round;stroke-dasharray:none;stroke-opacity:0.94902;paint-order:markers stroke fill"
           d="m 271.07875,36.85825 2.02642,1.510398 -1.18615,8.162948 -1.85008,-1.721529 c 0,0 2.24491,-3.821464 1.00981,-7.951817 z"
           id="path27"
           sodipodi:nodetypes="ccccc" /><path
           style="fill:#000000;stroke:#000000;stroke-width:0.716575;stroke-linecap:butt;stroke-linejoin:round;stroke-dasharray:none;stroke-opacity:0.94902;paint-order:markers stroke fill"
           d="m 260.40922,41.402341 1.893,1.674582 9.95979,-1.322688 -2.06359,-1.458773 c 0,0 -5.49353,1.470919 -9.7892,1.106879 z"
           id="path28"
           sodipodi:nodetypes="ccccc" /><path
           style="fill:#000000;stroke:#000000;stroke-width:0.716575;stroke-linecap:butt;stroke-linejoin:round;stroke-dasharray:none;stroke-opacity:0.94902;paint-order:markers stroke fill"
           d="m 260.35487,44.432314 1.893,1.674582 9.95979,-1.322688 -2.06359,-1.458773 c 0,0 -5.49353,1.470919 -9.7892,1.106879 z"
           id="path29"
           sodipodi:nodetypes="ccccc" /><path
           style="fill:#000000;stroke:#000000;stroke-width:0.716575;stroke-linecap:butt;stroke-linejoin:round;stroke-dasharray:none;stroke-opacity:0.94902;paint-order:markers stroke fill"
           d="m 258.15306,48.082879 1.74829,1.303093 0.29012,4.490982 -1.59615,-1.485247 c 0,0 0.62332,-0.745372 -0.44226,-4.308828 z"
           id="path30"
           sodipodi:nodetypes="ccccc" /><path
           style="fill:#000000;stroke:#000000;stroke-width:0.716575;stroke-linecap:butt;stroke-linejoin:round;stroke-dasharray:none;stroke-opacity:0.94902;paint-order:markers stroke fill"
           d="m 263.90404,47.18395 1.74829,1.303094 -1.02335,5.672958 -1.59616,-1.485246 c 0,0 1.9368,-1.92735 0.87122,-5.490806 z"
           id="path31"
           sodipodi:nodetypes="ccccc" /><path
           style="fill:#000000;stroke:#000000;stroke-width:0.716575;stroke-linecap:butt;stroke-linejoin:round;stroke-dasharray:none;stroke-opacity:0.94902;paint-order:markers stroke fill"
           d="m 259.01483,52.43221 1.17664,1.444744 4.68653,-1.224508 -1.78036,-1.258554 c 0,0 -1.11173,1.092979 -4.08281,1.038318 z"
           id="path32"
           sodipodi:nodetypes="ccccc" /><path
           style="fill:#000000;stroke:#000000;stroke-width:0.716575;stroke-linecap:butt;stroke-linejoin:round;stroke-dasharray:none;stroke-opacity:0.94902;paint-order:markers stroke fill"
           d="m 261.39882,46.136996 1.52438,1.444744 c 0,0 0.54156,9.75333 -6.34881,11.677508 0.37688,-0.314078 5.70794,-2.252243 4.82443,-13.122252 z"
           id="path33"
           sodipodi:nodetypes="cccc" /><path
           style="fill:#000000;stroke:#000000;stroke-width:0.716575;stroke-linecap:butt;stroke-linejoin:round;stroke-dasharray:none;stroke-opacity:0.94902;paint-order:markers stroke fill"
           d="m 266.61978,47.553712 1.74829,1.303093 0.29012,4.490982 -1.59615,-1.485247 c 0,0 0.62332,-0.745372 -0.44226,-4.308828 z"
           id="path34"
           sodipodi:nodetypes="ccccc" /><path
           style="fill:#000000;stroke:#000000;stroke-width:0.716575;stroke-linecap:butt;stroke-linejoin:round;stroke-dasharray:none;stroke-opacity:0.94902;paint-order:markers stroke fill"
           d="m 273.4291,46.654783 1.74829,1.303094 -1.02335,5.672958 -1.59616,-1.485246 c 0,0 1.9368,-1.92735 0.87122,-5.490806 z"
           id="path35"
           sodipodi:nodetypes="ccccc" /><path
           style="fill:#000000;stroke:#000000;stroke-width:0.716575;stroke-linecap:butt;stroke-linejoin:round;stroke-dasharray:none;stroke-opacity:0.94902;paint-order:markers stroke fill"
           d="m 267.48155,51.903043 1.17664,1.444744 5.74487,-1.224508 -1.78036,-1.258554 c 0,0 -2.90507,0.703859 -5.14115,1.038318 z"
           id="path36"
           sodipodi:nodetypes="ccccc" /><path
           style="fill:#000000;stroke:#000000;stroke-width:0.716575;stroke-linecap:butt;stroke-linejoin:round;stroke-dasharray:none;stroke-opacity:0.94902;paint-order:markers stroke fill"
           d="m 269.85872,45.370473 1.83702,1.735817 -0.0215,13.4459 -1.63732,-1.925007 c 0,0 0.56821,-9.010745 -0.17816,-13.25671 z"
           id="path37"
           sodipodi:nodetypes="cccccc" /></g></g><text
       xml:space="preserve"
       style="font-size:8.46667px;line-height:1.2;font-family:linzklar_rounded;-inkscape-font-specification:linzklar_rounded;text-align:center;text-decoration-color:#000000;text-anchor:middle;white-space:pre;fill:#000000;stroke:none;stroke-width:0.499999;stroke-linecap:round;stroke-linejoin:round;stroke-dasharray:none"
       x="189.32651"
       y="13.455971"
       id="text39"><tspan
         sodipodi:role="line"
         id="tspan39"
         style="font-style:normal;font-variant:normal;font-weight:900;font-stretch:normal;font-size:8.46667px;font-family:'Source Han Serif';-inkscape-font-specification:'Source Han Serif Heavy';stroke-width:0.5"
         x="189.32651"
         y="13.455971">島名一覧<tspan
   style="font-size:6.35px"
   id="tspan40">(燐字・東島通商語)</tspan></tspan></text><path
       style="fill:#000000"
       d="m 170.93669,170.67659 c -0.36632,-0.53612 -2.9535,-1.58541 -3.90906,-1.58541 -0.53547,0 -1.61331,-1.14898 -1.61331,-1.7198 0,-0.70135 -1.09538,-1.71979 -1.84971,-1.71979 -0.56951,0 -0.88715,-0.21712 -1.30371,-0.89112 -0.68885,-1.11458 -0.68846,-1.50586 0.003,-2.86095 0.42838,-0.83971 0.51452,-1.34578 0.38081,-2.2374 -0.14755,-0.98392 -0.0469,-1.38841 0.68893,-2.76898 0.47394,-0.88921 1.02192,-1.67822 1.21773,-1.75336 0.35066,-0.13456 3.64567,-4.04779 4.18005,-4.96432 0.67117,-1.15117 2.23929,0.57928 2.23929,2.4711 0,0.60995 0.23832,1.47246 0.5553,2.0097 0.30542,0.51764 0.46943,0.94117 0.36448,0.94117 -0.10496,0 -0.0551,0.1635 0.11072,0.36334 0.16585,0.19983 0.22712,0.55729 0.13615,0.79434 -0.28036,0.73062 0.10733,1.65636 1.42081,3.39264 1.37528,1.81798 1.91045,2.85152 1.91045,3.68953 0,0.29812 0.19939,0.87958 0.44309,1.29212 0.38988,0.66002 0.40271,0.93046 0.10687,2.25245 -0.2737,1.22301 -0.56168,1.7184 -1.54875,2.66418 -0.98604,0.94478 -1.39537,1.16181 -2.19127,1.16181 -0.68309,0 -1.08837,-0.16047 -1.34173,-0.53125 z m 3.24023,-1.01633 c 1.27365,-1.35367 1.84011,-3.38152 1.19991,-4.29552 -0.24063,-0.34355 -0.43751,-0.96125 -0.43751,-1.37266 0,-0.93074 -0.58833,-2.08948 -1.84416,-3.63215 -1.15728,-1.42161 -1.5923,-2.37554 -1.6044,-3.51818 -0.005,-0.4661 -0.23903,-1.3237 -0.52019,-1.90578 -0.28117,-0.58209 -0.51525,-1.54829 -0.52019,-2.14713 -0.006,-0.69018 -0.20984,-1.34416 -0.55761,-1.78627 l -0.54862,-0.69747 -1.23731,1.65063 c -0.68052,0.90784 -1.81137,2.23843 -2.513,2.95686 -1.78167,1.82434 -2.61725,3.54572 -2.39521,4.93434 0.13189,0.82478 0.033,1.37625 -0.42039,2.34424 -0.56288,1.20177 -0.57108,1.30785 -0.16221,2.09851 0.32741,0.63314 0.60821,0.83275 1.17146,0.83275 0.82498,0 1.72209,0.82067 2.02459,1.85208 0.26634,0.90812 0.9091,1.5875 1.50194,1.5875 0.93758,0 3.52503,1.05528 3.88726,1.58541 0.61565,0.90102 1.86142,0.69706 2.97564,-0.48716 z m -0.0314,-19.63111 c 0,-0.15214 -0.30215,-0.57876 -0.67144,-0.94805 -0.56685,-0.56685 -0.69659,-0.9977 -0.83296,-2.7661 l -0.16153,-2.09466 h 0.68177 c 0.69624,0 1.25581,0.41934 1.92748,1.44445 0.54384,0.83 0.80673,3.72943 0.3843,4.23843 -0.37862,0.4562 -1.32762,0.54622 -1.32762,0.12593 z m 0.90949,-1.60171 c -0.0226,-1.59148 -0.29693,-2.53621 -0.91622,-3.15549 -0.91662,-0.91663 -1.13634,-0.66731 -0.94015,1.0668 0.1801,1.59188 1.09542,3.48892 1.60834,3.33333 0.14552,-0.0441 0.25713,-0.60423 0.24803,-1.24464 z m 1.77016,-6.12533 c -0.1761,-0.32742 -0.68741,-0.83546 -1.13625,-1.12899 -0.77748,-0.50843 -0.81782,-0.62249 -0.85294,-2.41146 -0.0226,-1.15285 -0.17705,-2.0467 -0.4,-2.31535 -0.29448,-0.35482 -0.32694,-1.34102 -0.17166,-5.21536 0.17369,-4.33349 0.14865,-4.82515 -0.26924,-5.28691 -0.25341,-0.28001 -0.63659,-0.50911 -0.85152,-0.50911 -0.74779,0 -2.04941,-1.02969 -2.79733,-2.21293 -0.41398,-0.65493 -0.91912,-1.25465 -1.12253,-1.33271 -0.20342,-0.0781 -0.37167,-0.41355 -0.3739,-0.74554 -0.005,-0.73767 -0.24725,-1.11767 -0.85584,-1.34221 -0.25466,-0.094 -0.46302,-0.35713 -0.46302,-0.58481 0,-0.22769 -0.30498,-1.01583 -0.67774,-1.75142 -0.76163,-1.50301 -0.78656,-1.27473 0.78445,-7.18109 0.37787,-1.42064 0.68704,-3.05189 0.68704,-3.62499 0,-1.65483 0.538,-3.72272 1.11993,-4.30466 0.45437,-0.45436 0.768,-0.51381 2.0821,-0.39465 0.88901,0.0806 1.92665,0.37483 2.43926,0.69164 0.49066,0.30324 0.95688,0.48659 1.03603,0.40743 0.15276,-0.15275 4.99095,0.73806 6.55184,1.20633 0.50933,0.1528 1.51764,0.33608 2.2407,0.40729 1.72465,0.16987 4.66579,0.65127 5.16764,0.84584 0.21828,0.0846 0.51593,0.17701 0.66146,0.20529 0.14552,0.0283 0.32411,0.079 0.39687,0.11277 0.0728,0.0337 0.74753,0.10195 1.4995,0.15158 0.75196,0.0496 1.60733,0.21875 1.90083,0.37583 0.2935,0.15707 0.77161,0.28559 1.06248,0.28559 0.63542,0 2.18653,1.82715 2.79226,3.28917 0.40808,0.98495 0.40309,1.09954 -0.0941,2.15718 -0.47831,1.01757 -1.737,2.22657 -2.31808,2.22657 -0.12912,0 -0.67497,0.41521 -1.213,0.9227 -0.99623,0.93968 -1.69987,2.21504 -2.42572,4.39669 -0.40376,1.21357 -1.01095,2.65708 -1.43515,3.41186 -0.7252,1.29036 -1.10715,2.21526 -1.71895,4.1625 -0.90664,2.88564 -2.44166,6.08071 -3.08742,6.42631 -0.28541,0.15275 -0.51893,0.43607 -0.51893,0.62961 0,0.19353 -0.23978,0.65671 -0.53285,1.02929 -0.29307,0.37257 -0.89169,1.40066 -1.33028,2.28464 -0.43859,0.88397 -0.95997,1.60723 -1.15864,1.60723 -0.19866,0 -0.42193,0.15825 -0.49615,0.35167 -0.0742,0.19343 -0.63988,1.02686 -1.25702,1.85209 -1.26612,1.69302 -2.2698,2.01019 -2.86416,0.90509 z m 2.48773,-1.41479 c 1.15874,-1.63378 1.58426,-2.13111 1.93859,-2.26575 0.12995,-0.0494 0.63809,-0.84476 1.12921,-1.76753 1.59063,-2.98865 1.79055,-3.30613 2.43121,-3.86093 0.65322,-0.56566 2.09137,-3.60411 2.41759,-5.10775 0.10225,-0.47128 0.2958,-0.92479 0.43013,-1.00781 0.13432,-0.083 0.24422,-0.40398 0.24422,-0.71324 0,-0.51169 0.74334,-2.39198 1.33433,-3.37522 0.47534,-0.79083 1.00991,-2.02323 1.72152,-3.96875 1.06129,-2.90157 2.04895,-4.14834 4.21313,-5.31844 0.43268,-0.23393 1.05459,-0.90698 1.38202,-1.49566 0.56913,-1.02319 0.57629,-1.10935 0.16278,-1.95675 -0.71267,-1.46044 -1.94254,-2.87081 -2.5034,-2.87081 -0.28838,0 -0.75759,-0.12484 -1.04269,-0.27742 -0.2851,-0.15258 -1.08094,-0.32066 -1.76854,-0.3735 -0.6876,-0.0529 -1.25019,-0.1218 -1.25019,-0.15323 0,-0.0314 -0.23812,-0.0976 -0.52916,-0.14712 -0.29105,-0.0495 -1.7198,-0.31779 -3.175,-0.59622 -1.45521,-0.27844 -2.7367,-0.45288 -2.84775,-0.38766 -0.11105,0.0652 -0.82543,-0.0611 -1.5875,-0.28082 -1.76525,-0.50885 -6.58464,-1.4882 -7.32344,-1.4882 -0.30968,0 -0.8473,-0.18624 -1.19471,-0.41388 -0.34741,-0.22763 -1.28464,-0.48127 -2.08274,-0.56364 -1.41902,-0.14645 -1.46059,-0.13137 -1.88165,0.68287 -0.23681,0.45794 -0.53836,1.87244 -0.67012,3.14333 -0.23757,2.29161 -0.52387,3.64431 -1.58101,7.47007 l -0.54833,1.98438 0.7305,1.57072 c 0.40177,0.8639 0.99839,1.84075 1.32581,2.17079 0.32742,0.33003 0.59531,0.90313 0.59531,1.27354 0,0.37042 0.12016,0.67349 0.26703,0.67349 0.14687,0 0.62611,0.58358 1.06499,1.29684 0.81803,1.32948 1.76858,2.14274 2.50444,2.14274 0.22852,0 0.70502,0.1897 1.05888,0.42156 l 0.64338,0.42157 0.003,5.06854 c 0.002,2.78769 0.1248,5.48447 0.27335,5.99283 0.14855,0.50837 0.27009,1.45636 0.27009,2.10665 0,1.03305 0.1406,1.32562 1.11342,2.31686 0.61238,0.62397 1.24106,1.13449 1.39706,1.13449 0.156,0 0.75629,-0.66642 1.33397,-1.48094 z m 24.99512,-4.71436 c -0.86785,-0.3132 -0.92604,-0.40753 -0.92604,-1.50122 0,-1.15403 0.0103,-1.16722 0.92604,-1.18445 0.50932,-0.01 1.40229,0.18605 1.98438,0.43475 0.58208,0.2487 1.862,0.53391 2.84427,0.6338 0.98226,0.0999 1.78089,0.26144 1.77472,0.359 -0.006,0.0976 -0.69078,0.50897 -1.52136,0.91425 -1.66773,0.81378 -3.44647,0.93414 -5.08201,0.34387 z m 4.69021,-0.76276 c 0.42397,-0.42398 0.38545,-0.45027 -0.65941,-0.45027 -1.00549,0 -2.67058,-0.46518 -3.80384,-1.06269 -0.55981,-0.29516 -0.75613,-0.0822 -0.75613,0.82015 0,0.54956 0.17805,0.79604 0.72761,1.00728 1.10663,0.42537 3.95106,0.22623 4.49177,-0.31447 z m 7.55468,-0.46989 c -0.87357,-0.33025 -1.02809,-1.37837 -0.36207,-2.45601 0.86987,-1.40749 1.1099,-1.52264 2.69991,-1.29531 1.30937,0.1872 1.43151,0.26419 1.51052,0.95216 0.0546,0.47571 -0.1646,1.1271 -0.60153,1.78736 -0.55083,0.83235 -0.83241,1.02783 -1.41645,0.98333 -0.40093,-0.0305 -0.84461,0.0133 -0.98597,0.0975 -0.14135,0.0842 -0.52134,0.0531 -0.84441,-0.069 z m 2.79614,-1.26643 c 1.08447,-1.56703 0.78591,-2.15354 -1.09624,-2.15354 -0.8076,0 -0.97574,0.13187 -1.53875,1.2068 -0.58441,1.11576 -0.59859,1.23166 -0.18811,1.53659 0.72002,0.53486 2.26866,0.21129 2.8231,-0.58985 z m 6.98232,-5.00725 -0.59853,-0.4607 0.59853,-1.18098 c 0.5388,-1.06312 0.70414,-1.19032 1.65686,-1.27459 0.60132,-0.0532 1.3154,-0.33281 1.65364,-0.64752 l 0.59532,-0.5539 v 1.18724 c 0,1.2289 -0.44228,1.85066 -2.1094,2.96546 -0.81587,0.54557 -1.04802,0.54105 -1.79642,-0.035 z m 2.27069,-1.00336 c 1.23074,-1.05347 1.46496,-1.78206 0.51065,-1.58853 -0.32742,0.0664 -0.9009,0.18452 -1.27439,0.26249 -0.89865,0.18759 -1.52139,1.29665 -1.0482,1.8668 0.465,0.5603 0.55804,0.53253 1.81194,-0.54076 z m 5.31713,-4.00643 c -0.15051,-0.39586 -0.21938,-0.92727 -0.15306,-1.1809 0.0663,-0.25363 -0.0457,-0.59916 -0.24897,-0.76785 -0.54854,-0.45525 -0.50877,-4.42333 0.0524,-5.22447 0.3417,-0.48785 0.39391,-1.065 0.27457,-3.03543 -0.18123,-2.99223 -0.28847,-3.83302 -0.51819,-4.06274 -0.0981,-0.0981 -0.1783,-0.68843 -0.1783,-1.31192 0,-0.62349 -0.1786,-1.81929 -0.39688,-2.65732 -0.49445,-1.89834 -0.58011,-12.64513 -0.10313,-12.939917 0.1866,-0.115323 0.22593,-0.531191 0.10785,-1.140094 -0.49476,-2.551107 -0.42749,-2.886278 0.77744,-3.873626 1.47954,-1.212372 2.30294,-1.209384 3.02296,0.01097 0.71618,1.213814 1.11232,1.337581 3.04963,0.952813 1.21683,-0.241671 1.79489,-0.518133 2.35837,-1.12791 0.41054,-0.444273 0.8135,-0.740711 0.89546,-0.658751 0.082,0.08196 0.5495,-0.375476 1.03898,-1.016524 0.8345,-1.09292 0.95181,-1.156124 1.88266,-1.014366 0.54599,0.08315 1.40942,0.323569 1.91875,0.534271 0.50932,0.210702 1.34147,0.437546 1.84922,0.504097 1.12048,0.146864 1.54868,0.50528 1.18754,0.994015 -1.5083,2.04118 -1.67742,2.461926 -1.40753,3.501632 0.3754,1.446165 0.52539,2.379227 0.67508,4.199693 0.1556,1.892354 -0.27001,2.864215 -1.6757,3.826389 -0.88139,0.603287 -1.34434,1.333031 -1.5023,2.368048 -0.0361,0.23643 -0.74723,1.65021 -1.58033,3.14172 -0.8331,1.49152 -1.51473,2.87852 -1.51473,3.08223 0,0.20371 -0.75759,1.30378 -1.68353,2.4446 -1.71746,2.11603 -2.34244,3.08794 -2.4397,3.79401 -0.35476,2.57531 -1.55936,6.11565 -2.86953,8.43357 -0.51961,0.91929 -0.94475,1.7606 -0.94475,1.86959 0,0.30045 -0.92488,1.07392 -1.28415,1.07392 -0.17405,0 -0.43959,-0.32388 -0.5901,-0.71975 z m 2.45156,-2.6421 c 1.24421,-2.38762 2.0168,-4.56327 2.61137,-7.35377 0.42336,-1.98699 0.42785,-1.99552 2.22472,-4.23333 0.81793,-1.01865 1.98835,-2.83283 2.60093,-4.03151 0.61259,-1.19868 1.43916,-2.80602 1.83684,-3.57187 0.39767,-0.76585 0.79615,-1.81586 0.88551,-2.333357 0.12756,-0.738754 0.40633,-1.095171 1.29761,-1.659038 1.42814,-0.903507 1.81757,-1.811784 1.62931,-3.800075 -0.0801,-0.845611 -0.16162,-1.716069 -0.18124,-1.93435 -0.0196,-0.218281 -0.21331,-0.962571 -0.4304,-1.653978 -0.37654,-1.199246 -0.36736,-1.302752 0.19946,-2.248958 0.3268,-0.545521 0.75603,-1.183025 0.95386,-1.416677 0.32043,-0.37847 0.17855,-0.47361 -1.30041,-0.87199 -3.56749,-0.960959 -3.41905,-0.963225 -4.37206,0.06674 -0.47294,0.511129 -0.8599,1.026761 -0.8599,1.145847 0,0.119087 -0.127,0.216521 -0.28223,0.216521 -0.15523,0 -0.66125,0.285101 -1.12448,0.633557 -0.97263,0.731641 -3.51985,1.367528 -4.49629,1.122456 -0.36733,-0.09219 -0.92554,-0.584543 -1.24047,-1.09411 -0.67082,-1.085413 -1.0063,-1.13461 -2.25828,-0.331174 -1.13038,0.72541 -1.34734,1.439525 -0.91091,2.998292 0.25365,0.905946 0.26115,1.349485 0.0314,1.853793 -0.48239,1.05873 -0.40078,10.995701 0.1063,12.942491 0.22459,0.86226 0.38676,1.81001 0.36039,2.10611 -0.0671,0.75318 0.31832,2.77384 0.55724,2.9215 0.10897,0.0674 0.21816,1.37582 0.24263,2.9077 0.0342,2.14124 -0.0502,2.92048 -0.36518,3.37013 -0.58401,0.83379 -0.57871,4.38765 0.007,4.61236 0.2918,0.11198 0.36784,0.35395 0.25389,0.80795 -0.0895,0.35645 -0.0883,0.88236 0.003,1.16869 0.24494,0.77175 0.63441,0.32081 2.02096,-2.33995 z m -82.05533,1.39393 c -0.24096,-0.29035 -0.22553,-0.54434 0.0682,-1.12192 0.69327,-1.36329 1.57403,-4.55031 1.42784,-5.16655 -0.0792,-0.33393 -0.23061,-0.88859 -0.33643,-1.23258 -0.16662,-0.54167 -0.121,-0.60278 0.34062,-0.45627 0.41442,0.13153 0.60198,0.003 0.84301,-0.57924 0.52567,-1.26909 1.54686,-2.17552 2.45095,-2.17552 0.80271,0 0.81414,0.0181 0.62499,0.99219 -0.53599,2.76025 -0.55432,3.15879 -0.20229,4.39927 0.20141,0.70972 0.2976,1.56375 0.21375,1.89783 -0.48053,1.91457 -4.55513,4.4977 -5.43063,3.44279 z m 2.35255,-0.93481 c 1.11223,-0.56742 2.6632,-2.26736 2.65703,-2.91224 -0.002,-0.2215 -0.17851,-0.90408 -0.39199,-1.51683 -0.37681,-1.08157 -0.3033,-2.16388 0.28824,-4.24372 0.11356,-0.39926 0.0559,-0.59531 -0.17521,-0.59531 -0.42664,0 -1.56927,1.04696 -1.56927,1.43789 0,0.15802 -0.28051,0.58983 -0.62336,0.95957 -0.46197,0.49822 -0.59202,0.88579 -0.50232,1.49698 0.10114,0.6891 -0.55394,3.23291 -1.39887,5.43212 -0.24136,0.6282 0.41352,0.60588 1.71575,-0.0585 z m 73.11671,-6.0931 c -0.098,-0.37482 -0.36089,-0.52917 -0.90127,-0.52917 -1.17471,0 -1.82122,-0.82724 -1.82122,-2.33033 0,-1.22072 0.0409,-1.29005 1.01494,-1.71979 1.47363,-0.65016 1.80335,-0.57039 2.68756,0.65024 0.58306,0.80489 0.79306,1.38764 0.78661,2.18281 -0.0135,1.6596 -1.42453,3.05438 -1.76662,1.74624 z m 1.24626,-1.47946 c 0,-1.79625 -1.61704,-3.77634 -2.24896,-2.75387 -0.0899,0.14552 -0.39462,0.26458 -0.67708,0.26458 -0.42872,0 -0.51355,0.18792 -0.51355,1.13771 0,1.32426 0.34748,1.77271 1.37359,1.77271 0.44563,0 0.86635,0.20456 1.06066,0.51571 0.4501,0.72073 1.00534,0.20332 1.00534,-0.93684 z m -34.88113,-9.23146 c -0.33967,-0.18716 -0.75044,-0.47315 -0.91281,-0.63552 -0.16238,-0.16237 -0.4968,-0.29523 -0.74317,-0.29523 -0.24637,0 -0.51648,-0.17859 -0.60024,-0.39687 -0.0838,-0.21828 -0.29121,-0.39688 -0.46099,-0.39688 -0.16978,0 -0.57902,-0.26789 -0.90942,-0.59531 -0.98125,-0.9724 -1.35811,-1.22656 -2.49055,-1.67967 -0.5925,-0.23707 -1.32196,-0.774677 -1.62104,-1.194687 -0.29907,-0.420007 -0.7578,-0.763654 -1.0194,-0.763654 -0.26159,0 -1.15715,-0.654837 -1.99014,-1.455201 -0.83298,-0.800367 -1.6083,-1.455212 -1.72292,-1.455212 -0.11462,0 -0.35662,-0.178593 -0.53778,-0.396875 -0.24721,-0.297874 -0.9114,-0.396874 -2.66261,-0.396874 -1.28328,0 -2.39488,-0.09974 -2.47023,-0.221652 -0.22972,-0.371698 -5.79144,-0.03001 -6.26507,0.3849 -0.29079,0.254734 -1.15755,0.365918 -2.85258,0.365918 -2.08615,0 -2.45606,-0.06631 -2.58284,-0.463021 -0.0814,-0.254661 -0.27029,-0.719558 -0.41978,-1.033104 -0.14949,-0.313546 -0.1912,-0.700499 -0.0927,-0.859896 0.10258,-0.165985 -0.0103,-0.289812 -0.26424,-0.289812 -0.31308,0 -0.40269,-0.155477 -0.30496,-0.529167 0.0761,-0.291041 0.0443,-0.529166 -0.0706,-0.529166 -0.16209,0 -0.5095,-0.837584 -0.52243,-1.259543 -0.001,-0.0379 -0.19173,-0.435605 -0.42349,-0.883777 -0.23176,-0.448172 -0.35697,-0.982705 -0.27825,-1.187852 0.0787,-0.205147 0.0122,-0.372995 -0.14776,-0.372995 -0.18668,0 -0.23506,-0.344123 -0.13503,-0.960527 0.10066,-0.620304 0.0123,-1.23817 -0.24947,-1.744379 -0.22294,-0.431119 -0.33595,-0.853252 -0.25113,-0.938074 0.0848,-0.08482 -0.10005,-0.424886 -0.41084,-0.7557 -0.31967,-0.340281 -0.49678,-0.779405 -0.40783,-1.011204 0.0891,-0.232103 -0.1932,-0.928952 -0.6511,-1.607438 -0.44458,-0.658742 -0.91912,-1.598962 -1.05453,-2.089377 -0.1764,-0.638882 -0.50738,-1.015606 -1.16751,-1.328854 -0.50672,-0.240455 -0.92131,-0.53157 -0.92131,-0.646923 0,-0.115353 -0.44648,-0.710486 -0.99218,-1.322519 -0.7428,-0.833078 -0.99962,-1.359161 -1.02174,-2.092958 -0.0163,-0.539094 -0.11268,-1.222242 -0.21429,-1.518105 -0.14858,-0.432627 0.0302,-0.678656 0.91319,-1.256771 0.60386,-0.39536 1.19429,-0.718837 1.31205,-0.718837 0.29589,0 1.32589,-2.025883 1.32589,-2.60786 0,-0.588704 1.06791,-1.625473 1.67429,-1.625473 0.24726,0 0.6563,0.105862 0.90899,0.23525 0.25269,0.129387 0.90591,0.454119 1.45162,0.721625 0.5457,0.267507 0.99218,0.624285 0.99218,0.79284 0,1.040823 3.107,4.600285 4.01552,4.600285 0.26532,0 0.71388,-0.231484 0.99681,-0.514409 0.28292,-0.282925 0.93427,-0.593176 1.44744,-0.689446 1.07679,-0.202008 4.12357,-2.997467 4.12357,-3.783434 0,-0.262196 0.29765,-0.756353 0.66146,-1.098128 0.3638,-0.341774 0.66145,-0.740106 0.66145,-0.885183 0,-0.145076 0.17538,-0.457562 0.38973,-0.694413 0.21434,-0.236851 0.83942,-1.211668 1.38906,-2.166261 1.70945,-2.96893 2.7217,-4.168147 3.66817,-4.345706 0.46812,-0.08782 1.18274,-0.505801 1.58805,-0.928846 0.4053,-0.423046 1.00554,-0.769174 1.33387,-0.769174 0.67733,0 1.42071,-0.904217 1.42071,-1.728093 0,-0.303609 0.1748,-0.783133 0.38846,-1.065608 0.21365,-0.282475 0.39515,-0.930309 0.40334,-1.439632 0.0319,-1.986523 0.51806,-3.215099 1.79748,-4.542661 1.28565,-1.33403 2.17322,-2.708032 2.17322,-3.364275 0,-0.206013 0.31369,-1.041308 0.69708,-1.856212 2.49684,-5.30695 2.58295,-5.393091 5.14824,-5.150041 1.63613,0.155017 1.77364,0.219786 2.21788,1.044684 0.26048,0.483682 0.68703,1.108512 0.94789,1.388512 0.42588,0.457136 0.43782,0.614933 0.11696,1.546228 -0.24052,0.698129 -0.37425,2.63297 -0.40912,5.919306 -0.0505,4.760672 0.0722,6.117526 0.61567,6.80679 0.14619,0.185418 0.19282,0.410104 0.10362,0.499301 -0.24839,0.248392 0.86429,1.677118 1.30613,1.677118 0.34438,0 1.86713,-0.925523 2.22023,-1.349453 0.70279,-0.843768 3.64804,-0.826933 4.63021,0.02646 0.29104,0.252885 0.84739,0.534907 1.23633,0.626716 0.38893,0.09181 1.06439,0.524153 1.501,0.960765 0.43661,0.436612 0.86253,0.79384 0.94648,0.79384 0.084,0 0.39077,0.238125 0.68181,0.529167 0.45031,0.450308 0.52917,0.881944 0.52917,2.896416 0,2.027827 -0.0965,2.548754 -0.67307,3.633123 -0.37019,0.69623 -0.80409,1.803858 -0.96423,2.461396 -0.16014,0.657537 -0.40762,1.344351 -0.54995,1.526252 -0.14234,0.181901 -0.19051,0.330729 -0.10704,0.330729 0.201,0 -0.65662,1.893925 -1.08203,2.389496 -0.18348,0.213746 -0.57908,0.716051 -0.8791,1.116233 -0.30002,0.400182 -0.68567,0.730874 -0.85701,0.73487 -0.3987,0.0093 -1.50095,2.180374 -1.506,2.966333 -0.002,0.329052 -0.17443,1.087752 -0.38291,1.686001 -0.55751,1.599783 -0.67865,11.438347 -0.1609,13.067483 0.20812,0.654844 0.46323,1.309687 0.56692,1.455208 0.247,0.346641 0.17181,4.791938 -0.0854,5.049145 -0.10914,0.10913 -0.19844,0.537387 -0.19844,0.951664 0,0.41428 -0.11037,0.959987 -0.24527,1.212664 -0.13489,0.25269 -0.31044,0.669577 -0.39009,0.926414 -0.13416,0.4326 -1.35775,1.12876 -1.81203,1.03095 -0.10914,-0.0235 -0.19844,0.0491 -0.19844,0.16123 0,0.11218 -0.55761,0.49914 -1.23913,0.8599 -0.68152,0.36076 -1.44479,0.85366 -1.69617,1.09533 -0.48447,0.46577 -1.61381,1.00188 -3.1689,1.5043 -1.11985,0.36181 -1.2496,0.35632 -2.05401,-0.0869 z m 1.67592,-0.40158 c 0.0899,-0.14552 0.38781,-0.26458 0.66195,-0.26458 0.56198,0 2.27048,-0.94806 2.97111,-1.64869 0.25458,-0.25457 1.00132,-0.71597 1.65942,-1.02531 0.65811,-0.30935 1.2616,-0.66769 1.34109,-0.79631 0.0795,-0.12862 0.37937,-0.23386 0.66639,-0.23386 0.28702,0 0.58845,-0.20836 0.66983,-0.463017 0.0814,-0.25466 0.27029,-0.719557 0.41978,-1.033094 0.14949,-0.31355 0.19272,-0.698037 0.0961,-0.854427 -0.0966,-0.156387 -0.0276,-0.554697 0.15342,-0.885124 0.4166,-0.760397 0.5418,-4.769716 0.1564,-5.008244 -0.15474,-0.09577 -0.29766,-0.395519 -0.31759,-0.66611 -0.0199,-0.27059 -0.12939,-0.64269 -0.24323,-0.826888 -0.60253,-0.974906 -0.30891,-12.979018 0.33317,-13.621095 0.16265,-0.162655 0.29574,-0.690835 0.29574,-1.173732 0,-1.242256 1.22479,-3.47938 2.01326,-3.677272 0.34791,-0.08732 0.63257,-0.309873 0.63257,-0.494561 0,-0.184687 0.18547,-0.489724 0.41216,-0.677858 0.44451,-0.368913 1.28903,-2.092038 1.20692,-2.46256 -0.0276,-0.124458 0.0559,-0.362583 0.18553,-0.529166 0.12963,-0.166584 0.3667,-0.840865 0.52684,-1.498403 0.16014,-0.657537 0.59404,-1.765166 0.96423,-2.461396 0.56801,-1.068285 0.67307,-1.614723 0.67307,-3.500831 0,-1.621953 -0.0915,-2.234957 -0.33363,-2.234957 -0.1835,0 -0.62868,-0.357188 -0.98929,-0.79375 -0.3606,-0.436563 -0.7912,-0.79375 -0.95688,-0.79375 -0.16568,0 -0.44946,-0.178594 -0.63062,-0.396875 -0.18115,-0.218282 -0.54617,-0.396875 -0.81114,-0.396875 -0.26497,0 -0.63735,-0.219207 -0.8275,-0.487126 -0.36116,-0.508866 -3.38844,-1.058479 -3.38844,-0.615183 0,0.123877 -0.44467,0.452339 -0.98815,0.729915 -0.54348,0.277577 -1.1473,0.653513 -1.34182,0.835414 -0.61669,0.5767 -1.56509,0.383609 -2.14993,-0.437718 -0.30095,-0.422647 -0.54718,-0.951401 -0.54718,-1.17501 0,-0.22361 -0.10343,-0.470482 -0.22983,-0.548605 -0.12641,-0.07812 -0.31296,-0.650697 -0.41455,-1.272386 -0.26819,-1.641134 -0.17347,-10.574817 0.12308,-11.608827 0.21407,-0.746417 0.15253,-1.029997 -0.407,-1.875505 -0.36256,-0.547868 -0.6592,-1.100777 -0.6592,-1.228688 0,-0.12791 -0.74414,-0.312104 -1.65365,-0.40932 -1.52912,-0.163444 -1.69349,-0.129157 -2.18281,0.455311 -1.01844,1.216477 -1.62741,2.444372 -2.8425,5.731478 -0.84657,2.290182 -1.10349,2.732909 -2.04633,3.526255 -0.43984,0.370103 -0.79971,0.793748 -0.79971,0.941433 0,0.147685 -0.16588,0.363731 -0.36861,0.480102 -0.44772,0.256996 -0.95082,1.983499 -0.95283,3.269869 -8.2e-4,0.51789 -0.17629,1.172734 -0.38994,1.455208 -0.21365,0.282475 -0.39225,0.846425 -0.39688,1.253222 -0.009,0.789427 -1.0434,2.038494 -1.68819,2.038494 -0.20951,0 -0.74871,0.343563 -1.19822,0.763473 -0.44952,0.41991 -1.23602,0.842024 -1.74778,0.938031 -0.51176,0.09601 -0.93047,0.271462 -0.93047,0.389901 0,0.118439 -0.45373,0.738122 -1.00828,1.377073 -0.55456,0.638952 -1.16632,1.553532 -1.35948,2.032402 -0.19316,0.478869 -0.69193,1.341041 -1.10839,1.915938 -0.41645,0.574896 -0.75718,1.144605 -0.75718,1.26602 0,0.121415 -0.29766,0.500387 -0.66146,0.842162 -0.3638,0.341774 -0.66146,0.879179 -0.66146,1.194232 0,0.315054 -0.40368,0.940164 -0.89706,1.389134 -0.49339,0.448969 -1.06038,1.033647 -1.25999,1.299283 -0.46595,0.620062 -1.20779,1.02786 -2.31034,1.270022 -0.48299,0.10608 -1.10416,0.418876 -1.38038,0.695101 -0.73546,0.735456 -1.60017,0.617437 -2.91158,-0.397383 -1.46513,-1.133779 -1.9355,-1.703845 -2.58836,-3.136946 -0.29512,-0.64784 -0.81767,-1.284937 -1.20181,-1.46525 -0.3738,-0.175465 -0.97615,-0.457589 -1.33853,-0.626944 -0.54883,-0.25648 -0.74772,-0.227532 -1.19063,0.173299 -0.29245,0.264669 -0.53174,0.662669 -0.53174,0.884445 0,0.560748 -0.60623,2.237012 -0.92604,2.560551 -0.14552,0.147218 -0.56224,0.419823 -0.92604,0.605788 -1.68536,0.861507 -1.81204,0.983669 -1.53445,1.479699 0.14696,0.262587 0.20051,0.810799 0.11902,1.218249 -0.10298,0.514913 0.01,0.922671 0.36905,1.33717 0.28447,0.327992 0.51721,0.697195 0.51721,0.82045 0,0.123254 0.17057,0.224099 0.37905,0.224099 0.20847,0 0.44591,0.21068 0.52764,0.468177 0.0817,0.257497 0.566,0.692964 1.07616,0.967705 0.51016,0.274742 0.92866,0.629609 0.92999,0.788595 0.003,0.362983 1.02746,2.433318 1.68032,3.395876 0.27066,0.399059 0.42322,0.905075 0.33903,1.124479 -0.0842,0.219405 -0.04,0.398918 0.0982,0.398918 0.13818,0 0.32421,0.327422 0.4134,0.727604 0.0892,0.400182 0.33995,1.124648 0.55726,1.609925 0.21731,0.485276 0.32476,1.162588 0.23879,1.505139 -0.086,0.34255 -0.032,0.699666 0.12,0.793592 0.15197,0.09392 0.20715,0.388672 0.12263,0.654994 -0.0928,0.292387 0.27325,1.299593 0.92398,2.542355 0.59272,1.131974 1.01942,2.209929 0.94823,2.395456 -0.0712,0.185527 -0.0156,0.407692 0.12359,0.493701 0.13916,0.08601 0.25303,0.387478 0.25303,0.669932 0,0.466448 0.1983,0.513552 2.16197,0.513552 1.45179,0 2.2992,-0.119154 2.57969,-0.362728 0.53743,-0.466691 6.44138,-0.783813 6.85688,-0.368308 0.16111,0.161106 1.17426,0.257243 2.37616,0.225473 1.60076,-0.04232 2.19272,0.04203 2.50806,0.357379 0.22703,0.227022 0.52963,0.412767 0.67247,0.412767 0.14283,0 0.94123,0.654844 1.77421,1.455211 0.83299,0.800364 1.72253,1.455201 1.97676,1.455201 0.25423,0 0.77264,0.406957 1.15201,0.904344 0.39918,0.523337 1.02538,0.978044 1.48636,1.079294 0.43812,0.0962 1.60037,0.79939 2.58278,1.56259 0.9824,0.7632 1.96478,1.46946 2.18306,1.56945 0.21828,0.1 0.75406,0.40992 1.19063,0.68872 0.90859,0.58026 1.35384,0.65908 1.5875,0.28101 z M 152.62729,91.879213 c -1.29435,-1.325542 -1.30789,-2.300169 -0.0499,-3.595517 0.62403,-0.642581 1.16003,-0.948756 1.66092,-0.948756 0.40676,0 1.02165,-0.197585 1.36643,-0.439079 0.59048,-0.413586 0.64886,-0.409746 1.00562,0.06615 0.77437,1.032946 1.44287,2.586475 1.63443,3.79827 l 0.19738,1.248645 -1.47484,0.304341 c -3.20642,0.661659 -3.27695,0.654605 -4.34,-0.43405 z m 4.25422,-0.08537 c 1.0294,-0.319164 1.0963,-0.869453 0.31505,-2.591591 -0.8362,-1.843293 -0.86665,-1.86079 -2.43844,-1.401427 -2.60905,0.762508 -3.26182,2.168669 -1.73276,3.732627 0.75724,0.774525 0.94666,0.842974 1.91823,0.693192 0.59291,-0.09141 1.46497,-0.286167 1.93792,-0.432801 z m 75.20781,-11.330149 c 0,-0.286685 -0.36392,-0.790302 -0.80871,-1.119148 -0.52494,-0.388108 -0.76575,-0.762146 -0.6863,-1.065991 0.0673,-0.257448 0.0145,-0.534765 -0.11733,-0.616259 -0.3129,-0.193378 -0.31082,-1.629285 0.003,-1.823009 0.47279,-0.292199 1.59557,0.367001 1.76329,1.035253 0.0926,0.368949 0.2648,0.670816 0.38268,0.670816 0.24472,0 1.31581,1.653975 1.31581,2.031861 0,0.40371 -1.04523,1.407722 -1.46551,1.407722 -0.21261,0 -0.38657,-0.23456 -0.38657,-0.521245 z m 1.12732,-1.360174 c -0.0768,-0.293651 -0.41005,-0.711102 -0.74058,-0.927671 -0.33052,-0.216569 -0.67409,-0.685151 -0.76347,-1.041294 -0.0894,-0.356143 -0.33885,-0.647532 -0.55436,-0.647532 -0.45093,0 -0.52985,0.677221 -0.10921,0.937189 0.15544,0.09607 0.218,0.343075 0.13901,0.548904 -0.0801,0.208764 0.20439,0.706794 0.64343,1.126361 0.43286,0.41367 0.79081,0.91783 0.79544,1.120357 0.006,0.26488 0.10959,0.234824 0.36889,-0.107087 0.19826,-0.261425 0.29764,-0.715577 0.22085,-1.009227 z m -8.34779,-3.813077 c -0.36116,-0.496288 -0.4085,-0.772418 -0.19939,-1.163143 0.4151,-0.77562 0.072,-1.304876 -1.29488,-1.997536 -1.44876,-0.734138 -1.98838,-1.298966 -1.77421,-1.85708 0.20578,-0.536253 0.6489,-0.504344 1.90019,0.136831 0.6952,0.356229 1.4721,0.518454 2.30723,0.481776 1.39689,-0.06135 2.31278,0.587015 2.31278,1.637226 0,0.785496 -1.81026,3.431113 -2.34083,3.421025 -0.24052,-0.0046 -0.65042,-0.301168 -0.91089,-0.659099 z m 2.42358,-2.007947 c 0.28977,-0.573395 0.28906,-0.787268 -0.004,-1.25677 -0.29384,-0.470501 -0.60735,-0.565786 -1.86158,-0.565786 -0.82954,0 -1.57458,-0.107339 -1.65566,-0.238531 -0.0811,-0.131192 -0.51811,-0.367753 -0.97117,-0.525691 -0.72022,-0.25107 -0.7824,-0.23733 -0.4947,0.109319 0.18097,0.218064 0.84848,0.626249 1.48333,0.907076 1.28096,0.566627 1.90513,1.520327 1.48562,2.269947 -0.18578,0.33197 -0.1459,0.595574 0.14074,0.930349 0.37787,0.441323 0.43114,0.42829 0.96417,-0.235898 0.31031,-0.386666 0.72133,-1.013973 0.91339,-1.394015 z m -55.39157,-10.54693 c -0.11063,-0.178998 -0.61098,-0.496692 -1.11189,-0.705986 -0.68883,-0.287811 -0.89049,-0.516527 -0.82759,-0.938646 0.11814,-0.793003 1.34663,-1.615769 2.47083,-1.654808 0.85718,-0.02977 1.03798,-0.171455 1.71875,-1.346913 0.41844,-0.722506 0.88037,-1.574298 1.0265,-1.892872 0.14613,-0.318574 0.49735,-0.703203 0.78048,-0.854731 0.42001,-0.224782 0.58987,-0.160922 0.92258,0.346861 0.35666,0.544339 0.36337,0.834673 0.0535,2.315785 -0.53872,2.574771 -0.8917,3.769052 -1.26167,4.268741 -0.4316,0.582925 -3.467,0.955215 -3.77147,0.462569 z m 3.41503,-0.809864 c 0.45403,-0.448295 1.43256,-5.386476 1.1399,-5.752522 -0.28774,-0.359876 -0.65434,0.09591 -2.07129,2.575148 -0.60771,1.063313 -0.7974,1.205453 -1.64159,1.230058 -0.95413,0.02781 -2.30151,0.699816 -2.30151,1.147882 0,0.130604 0.34724,0.313728 0.77165,0.406943 0.4244,0.09322 0.84317,0.355868 0.93058,0.583673 0.12929,0.336915 0.41726,0.380218 1.54346,0.232099 0.76149,-0.100151 1.49444,-0.290627 1.6288,-0.423281 z"
       id="path40" /><text
       xml:space="preserve"
       style="font-size:8.46667px;line-height:1.2;font-family:linzklar_rounded;-inkscape-font-specification:linzklar_rounded;text-align:center;text-decoration-color:#000000;writing-mode:lr-tb;text-anchor:middle;white-space:pre;fill:#000000;stroke:#000000;stroke-width:0.2;stroke-linecap:round;stroke-linejoin:round;stroke-dasharray:none;stroke-opacity:0.909804"
       x="186.96065"
       y="85.653145"
       id="text41"><tspan
         sodipodi:role="line"
         id="tspan41"
         style="font-size:8.46667px;writing-mode:lr-tb;fill:#000000;stroke:#000000;stroke-width:0.2;stroke-dasharray:none;stroke-opacity:0.909804"
         x="186.96065"
         y="85.653145">manmana</tspan></text><text
       xml:space="preserve"
       style="font-size:7.05556px;line-height:1.2;font-family:linzklar_rounded;-inkscape-font-specification:linzklar_rounded;text-align:center;text-decoration-color:#000000;writing-mode:lr-tb;text-anchor:middle;white-space:pre;fill:#000000;stroke:#000000;stroke-width:0.2;stroke-linecap:round;stroke-linejoin:round;stroke-dasharray:none;stroke-opacity:0.909804"
       x="149.84607"
       y="86.460548"
       id="text42"><tspan
         sodipodi:role="line"
         id="tspan42"
         style="font-size:7.05556px;writing-mode:lr-tb;fill:#000000;stroke:#000000;stroke-width:0.2;stroke-dasharray:none;stroke-opacity:0.909804"
         x="149.84607"
         y="86.460548">atalan</tspan></text><text
       xml:space="preserve"
       style="font-size:7.05556px;line-height:1.2;font-family:linzklar_rounded;-inkscape-font-specification:linzklar_rounded;text-align:center;text-decoration-color:#000000;writing-mode:lr-tb;text-anchor:middle;white-space:pre;fill:#000000;stroke:#000000;stroke-width:0.2;stroke-linecap:round;stroke-linejoin:round;stroke-dasharray:none;stroke-opacity:0.909804"
       x="164.99615"
       y="58.398056"
       id="text43"><tspan
         id="tspan43"
         style="font-size:7.05556px;writing-mode:lr-tb;fill:#000000;stroke:#000000;stroke-width:0.2;stroke-dasharray:none;stroke-opacity:0.909804"
         x="164.99615"
         y="58.398056"
         sodipodi:role="line">aikit</tspan></text><text
       xml:space="preserve"
       style="font-size:7.05556px;line-height:1.2;font-family:linzklar_rounded;-inkscape-font-specification:linzklar_rounded;text-align:center;text-decoration-color:#000000;writing-mode:lr-tb;text-anchor:middle;white-space:pre;fill:#000000;stroke:#000000;stroke-width:0.2;stroke-linecap:round;stroke-linejoin:round;stroke-dasharray:none;stroke-opacity:0.909804"
       x="222.70027"
       y="69.398056"
       id="text44"><tspan
         id="tspan44"
         style="font-size:7.05556px;writing-mode:lr-tb;fill:#000000;stroke:#000000;stroke-width:0.2;stroke-dasharray:none;stroke-opacity:0.909804"
         x="222.70027"
         y="69.398056"
         sodipodi:role="line">pede</tspan></text><text
       xml:space="preserve"
       style="font-size:8.46667px;line-height:1.2;font-family:linzklar_rounded;-inkscape-font-specification:linzklar_rounded;text-align:center;text-decoration-color:#000000;writing-mode:lr-tb;text-anchor:middle;white-space:pre;fill:#000000;stroke:#000000;stroke-width:0.2;stroke-linecap:round;stroke-linejoin:round;stroke-dasharray:none;stroke-opacity:0.94902"
       x="181.01897"
       y="125.12392"
       id="text45"><tspan
         sodipodi:role="line"
         id="tspan45"
         style="font-size:8.46667px;writing-mode:lr-tb;fill:#000000;stroke:#000000;stroke-width:0.2;stroke-dasharray:none;stroke-opacity:0.94902"
         x="181.01897"
         y="125.12392">kaka</tspan></text><text
       xml:space="preserve"
       style="font-size:7.05556px;line-height:1.2;font-family:linzklar_rounded;-inkscape-font-specification:linzklar_rounded;text-align:center;text-decoration-color:#000000;writing-mode:lr-tb;text-anchor:middle;white-space:pre;fill:#000000;stroke:#000000;stroke-width:0.2;stroke-linecap:round;stroke-linejoin:round;stroke-dasharray:none;stroke-opacity:0.909804"
       x="163.13226"
       y="147.34209"
       id="text46"><tspan
         sodipodi:role="line"
         id="tspan46"
         style="font-size:7.05556px;text-align:center;writing-mode:lr-tb;text-anchor:middle;fill:#000000;stroke:#000000;stroke-width:0.2;stroke-dasharray:none;stroke-opacity:0.909804"
         x="163.13226"
         y="147.34209">nuxep</tspan></text><text
       xml:space="preserve"
       style="font-size:7.05556px;line-height:1.2;font-family:linzklar_rounded;-inkscape-font-specification:linzklar_rounded;text-align:center;text-decoration-color:#000000;writing-mode:lr-tb;text-anchor:middle;white-space:pre;inline-size:29.9181;fill:#000000;stroke:#000000;stroke-width:0.2;stroke-linecap:round;stroke-linejoin:round;stroke-dasharray:none;stroke-opacity:0.909804"
       x="149.17111"
       y="119.40221"
       id="text47"
       transform="translate(4.2333335,11.641668)"><tspan
         x="149.17111"
         y="119.40221"
         id="tspan1">tanxelma</tspan></text><text
       xml:space="preserve"
       style="font-size:7.05556px;line-height:1.2;font-family:linzklar_rounded;-inkscape-font-specification:linzklar_rounded;text-align:center;text-decoration-color:#000000;writing-mode:lr-tb;text-anchor:middle;white-space:pre;fill:#000000;stroke:#000000;stroke-width:0.2;stroke-linecap:round;stroke-linejoin:round;stroke-dasharray:none;stroke-opacity:0.909804"
       x="156.46065"
       y="174.29863"
       id="text48"><tspan
         sodipodi:role="line"
         id="tspan48"
         style="font-size:7.05556px;writing-mode:lr-tb;fill:#000000;stroke:#000000;stroke-width:0.2;stroke-dasharray:none;stroke-opacity:0.909804"
         x="156.46065"
         y="174.29863">pokjut</tspan></text><text
       xml:space="preserve"
       style="font-size:7.05556px;line-height:1.2;font-family:linzklar_rounded;-inkscape-font-specification:linzklar_rounded;text-align:center;text-decoration-color:#000000;writing-mode:lr-tb;text-anchor:middle;white-space:pre;fill:#000000;stroke:#000000;stroke-width:0.2;stroke-linecap:round;stroke-linejoin:round;stroke-dasharray:none;stroke-opacity:0.909804"
       x="247.16682"
       y="78.043892"
       id="text49"><tspan
         sodipodi:role="line"
         id="tspan49"
         style="font-size:7.05556px;writing-mode:lr-tb;fill:#000000;stroke:#000000;stroke-width:0.2;stroke-dasharray:none;stroke-opacity:0.909804"
         x="247.16682"
         y="78.043892">xukepaloc</tspan></text><text
       xml:space="preserve"
       style="font-size:8.46667px;line-height:1.2;font-family:linzklar_rounded;-inkscape-font-specification:linzklar_rounded;text-align:center;text-decoration-color:#000000;writing-mode:lr-tb;text-anchor:middle;white-space:pre;fill:#000000;stroke:#000000;stroke-width:0.2;stroke-linecap:round;stroke-linejoin:round;stroke-dasharray:none;stroke-opacity:0.909804"
       x="253.06306"
       y="113.7112"
       id="text50"><tspan
         sodipodi:role="line"
         id="tspan50"
         style="font-size:8.46667px;writing-mode:lr-tb;fill:#000000;stroke:#000000;stroke-width:0.2;stroke-dasharray:none;stroke-opacity:0.909804;line-height:1.2"
         x="253.06306"
         y="113.7112">kamut</tspan><tspan
         sodipodi:role="line"
         style="font-size:8.46667px;writing-mode:lr-tb;fill:#000000;stroke:#000000;stroke-width:0.2;stroke-dasharray:none;stroke-opacity:0.909804;line-height:1.2"
         x="253.06306"
         y="123.8712"
         id="tspan58">bexan</tspan></text><text
       xml:space="preserve"
       style="font-size:7.05556px;line-height:1.2;font-family:linzklar_rounded;-inkscape-font-specification:linzklar_rounded;text-align:start;text-decoration-color:#000000;writing-mode:lr-tb;text-anchor:start;white-space:pre;fill:#000000;stroke:#000000;stroke-width:0.2;stroke-linecap:round;stroke-linejoin:round;stroke-dasharray:none;stroke-opacity:0.909804"
       x="214.06775"
       y="116.62064"
       id="text51"><tspan
         sodipodi:role="line"
         id="tspan51"
         style="font-size:7.05556px;text-align:start;writing-mode:lr-tb;text-anchor:start;fill:#000000;stroke:#000000;stroke-width:0.2;stroke-dasharray:none;stroke-opacity:0.909804"
         x="214.06775"
         y="116.62064">bilo</tspan></text><text
       xml:space="preserve"
       style="font-size:7.05556px;line-height:1.2;font-family:linzklar_rounded;-inkscape-font-specification:linzklar_rounded;text-align:center;text-decoration-color:#000000;writing-mode:lr-tb;text-anchor:middle;white-space:pre;inline-size:38.0583;fill:#000000;stroke:#000000;stroke-width:0.2;stroke-linecap:round;stroke-linejoin:round;stroke-dasharray:none;stroke-opacity:0.909804"
       x="199.3947"
       y="135.46307"
       id="text52"
       transform="translate(6.8791671,9.5250005)"><tspan
         x="199.3947"
         y="135.46307"
         id="tspan15">konbec</tspan></text><text
       xml:space="preserve"
       style="font-size:6.35px;line-height:1.2;font-family:linzklar_rounded;-inkscape-font-specification:linzklar_rounded;text-align:center;text-decoration-color:#000000;writing-mode:lr-tb;text-anchor:middle;white-space:pre;fill:#000000;stroke:#000000;stroke-width:0.2;stroke-linecap:round;stroke-linejoin:round;stroke-dasharray:none;stroke-opacity:0.909804"
       x="274.25961"
       y="9.2535686"
       id="text53"
       transform="rotate(30)"><tspan
         sodipodi:role="line"
         id="tspan53"
         style="font-size:6.35px;writing-mode:lr-tb;fill:#000000;stroke:#000000;stroke-width:0.2;stroke-dasharray:none;stroke-opacity:0.909804"
         x="274.25961"
         y="9.2535686">xukamenocke</tspan></text><text
       xml:space="preserve"
       style="font-size:7.05556px;line-height:1.2;font-family:linzklar_rounded;-inkscape-font-specification:linzklar_rounded;text-align:center;text-decoration-color:#000000;writing-mode:lr-tb;text-anchor:middle;white-space:pre;inline-size:21.4538;fill:#000000;stroke:#000000;stroke-width:0.2;stroke-linecap:round;stroke-linejoin:round;stroke-dasharray:none;stroke-opacity:0.909804"
       x="232.8947"
       y="136.46306"
       id="text54"
       transform="rotate(30,234.76804,147.87946)"><tspan
         x="232.8947"
         y="136.46306"
         id="tspan16">junacna</tspan></text><text
       xml:space="preserve"
       style="font-style:normal;font-variant:normal;font-weight:normal;font-stretch:normal;font-size:10.9168px;line-height:1.2;font-family:acil_lujot;-inkscape-font-specification:acil_lujot;text-align:center;text-decoration-color:#000000;letter-spacing:0px;word-spacing:-0.590677px;writing-mode:lr-tb;direction:ltr;text-anchor:middle;fill:#000000;stroke:none;stroke-width:0.869803;stroke-linecap:butt;stroke-linejoin:round;stroke-dasharray:none;stroke-opacity:0.94902;paint-order:markers stroke fill"
       x="202.00002"
       y="29.794603"
       id="text55"><tspan
         sodipodi:role="line"
         id="tspan55"
         style="font-style:normal;font-variant:normal;font-weight:normal;font-stretch:normal;font-size:10.9168px;font-family:acil_lujot;-inkscape-font-specification:acil_lujot;word-spacing:-0.590677px;stroke:none;stroke-width:0.869806"
         x="202.00002"
         y="29.794603">pemecepe menic leti alailen</tspan></text><text
       xml:space="preserve"
       style="font-size:7.05556px;line-height:1.2;font-family:linzklar_rounded;-inkscape-font-specification:linzklar_rounded;text-align:center;text-decoration-color:#000000;writing-mode:lr-tb;text-anchor:middle;white-space:pre;fill:#000000;stroke:#000000;stroke-width:0.2;stroke-linecap:round;stroke-linejoin:round;stroke-dasharray:none;stroke-opacity:0.94902"
       x="181.01897"
       y="115.59892"
       id="text57"><tspan
         sodipodi:role="line"
         id="tspan57"
         style="font-size:7.05556px;writing-mode:lr-tb;fill:#000000;stroke:#000000;stroke-width:0.2;stroke-dasharray:none;stroke-opacity:0.94902"
         x="181.01897"
         y="115.59892">kawakija</tspan></text></g></svg>
