<?xml version="1.0" encoding="UTF-8" standalone="no"?>
<!-- Created with Inkscape (http://www.inkscape.org/) -->

<svg
   width="128mm"
   height="182mm"
   viewBox="0 0 128 182"
   version="1.1"
   id="svg1"
   sodipodi:docname="2_08_火心_right.svg"
   inkscape:version="1.3 (0e150ed6c4, 2023-07-21)"
   inkscape:export-filename="2_08_火心_right.png"
   inkscape:export-xdpi="960"
   inkscape:export-ydpi="960"
   xmlns:inkscape="http://www.inkscape.org/namespaces/inkscape"
   xmlns:sodipodi="http://sodipodi.sourceforge.net/DTD/sodipodi-0.dtd"
   xmlns="http://www.w3.org/2000/svg"
   xmlns:svg="http://www.w3.org/2000/svg">
  <sodipodi:namedview
     id="namedview1"
     pagecolor="#ffffff"
     bordercolor="#000000"
     borderopacity="0.25"
     inkscape:showpageshadow="2"
     inkscape:pageopacity="0.0"
     inkscape:pagecheckerboard="0"
     inkscape:deskcolor="#d1d1d1"
     inkscape:document-units="mm"
     inkscape:zoom="4.3455597"
     inkscape:cx="527.78012"
     inkscape:cy="333.32876"
     inkscape:window-width="1920"
     inkscape:window-height="1094"
     inkscape:window-x="-11"
     inkscape:window-y="-11"
     inkscape:window-maximized="1"
     inkscape:current-layer="svg1" />
  <defs
     id="defs1">
    <rect
       x="49.133858"
       y="37.797165"
       width="198.4252"
       height="32.1805"
       id="rect18" />
    <rect
       x="49.133858"
       y="37.797165"
       width="198.4252"
       height="32.1805"
       id="rect82" />
    <rect
       x="49.133858"
       y="37.797165"
       width="211.86263"
       height="46.298347"
       id="rect86" />
    <rect
       x="49.133858"
       y="37.797165"
       width="196.88492"
       height="53.581551"
       id="rect90" />
    <rect
       x="49.133858"
       y="37.797165"
       width="196.00896"
       height="18.718548"
       id="rect105" />
    <rect
       x="49.133858"
       y="37.797165"
       width="198.4252"
       height="32.1805"
       id="rect109" />
    <rect
       x="49.133858"
       y="37.797165"
       width="198.4252"
       height="32.1805"
       id="rect116" />
    <rect
       x="49.133858"
       y="37.797165"
       width="198.4252"
       height="32.1805"
       id="rect117" />
    <rect
       x="49.133858"
       y="37.797165"
       width="165.28809"
       height="29.419073"
       id="rect118" />
    <rect
       x="49.133858"
       y="37.797165"
       width="198.4252"
       height="32.1805"
       id="rect121" />
    <rect
       x="49.133858"
       y="37.797165"
       width="165.28809"
       height="29.419073"
       id="rect124" />
    <rect
       x="49.133858"
       y="37.797165"
       width="164.29289"
       height="67.983376"
       id="rect132" />
    <rect
       x="49.133858"
       y="37.797165"
       width="196.88492"
       height="53.581551"
       id="rect145" />
    <rect
       x="49.133858"
       y="37.797165"
       width="164.29289"
       height="67.983376"
       id="rect146" />
    <rect
       x="49.133858"
       y="37.797165"
       width="198.4252"
       height="32.1805"
       id="rect190" />
    <rect
       x="49.133858"
       y="37.797165"
       width="198.4252"
       height="32.1805"
       id="rect191" />
    <rect
       x="49.133858"
       y="37.797165"
       width="211.86263"
       height="46.298347"
       id="rect192" />
    <rect
       x="49.133858"
       y="37.797165"
       width="196.88492"
       height="53.581551"
       id="rect193" />
    <rect
       x="49.133858"
       y="37.797165"
       width="196.00896"
       height="18.718548"
       id="rect194" />
    <rect
       x="49.133858"
       y="37.797165"
       width="198.4252"
       height="32.1805"
       id="rect195" />
    <rect
       x="49.133858"
       y="37.797165"
       width="198.4252"
       height="32.1805"
       id="rect196" />
    <rect
       x="49.133858"
       y="37.797165"
       width="198.4252"
       height="32.1805"
       id="rect197" />
    <rect
       x="49.133858"
       y="37.797165"
       width="165.28809"
       height="29.419073"
       id="rect198" />
    <rect
       x="49.133858"
       y="37.797165"
       width="198.4252"
       height="32.1805"
       id="rect199" />
    <rect
       x="49.133858"
       y="37.797165"
       width="165.28809"
       height="29.419073"
       id="rect200" />
    <rect
       x="49.133858"
       y="37.797165"
       width="164.29289"
       height="67.983376"
       id="rect201" />
    <rect
       x="49.133858"
       y="37.797165"
       width="198.4252"
       height="32.1805"
       id="rect277" />
    <rect
       x="49.133858"
       y="37.797165"
       width="198.4252"
       height="32.1805"
       id="rect278" />
    <rect
       x="49.133858"
       y="37.797165"
       width="211.86263"
       height="46.298347"
       id="rect279" />
    <rect
       x="49.133858"
       y="37.797165"
       width="196.88492"
       height="53.581551"
       id="rect280" />
    <rect
       x="49.133858"
       y="37.797165"
       width="196.00896"
       height="18.718548"
       id="rect281" />
    <rect
       x="49.133858"
       y="37.797165"
       width="198.4252"
       height="32.1805"
       id="rect282" />
    <rect
       x="49.133858"
       y="37.797165"
       width="198.4252"
       height="32.1805"
       id="rect283" />
    <rect
       x="49.133858"
       y="37.797165"
       width="198.4252"
       height="32.1805"
       id="rect284" />
    <rect
       x="49.133858"
       y="37.797165"
       width="165.28809"
       height="29.419073"
       id="rect285" />
    <rect
       x="49.133858"
       y="37.797165"
       width="198.4252"
       height="32.1805"
       id="rect286" />
    <rect
       x="49.133858"
       y="37.797165"
       width="165.28809"
       height="29.419073"
       id="rect287" />
    <rect
       x="49.133858"
       y="37.797165"
       width="164.29289"
       height="67.983376"
       id="rect288" />
    <rect
       x="49.133858"
       y="37.797165"
       width="196.88492"
       height="53.581551"
       id="rect289" />
    <rect
       x="49.133858"
       y="37.797165"
       width="164.29289"
       height="67.983376"
       id="rect290" />
    <rect
       x="49.133858"
       y="37.797165"
       width="198.4252"
       height="32.1805"
       id="rect291" />
    <rect
       x="49.133858"
       y="37.797165"
       width="198.4252"
       height="32.1805"
       id="rect292" />
    <rect
       x="49.133858"
       y="37.797165"
       width="211.86263"
       height="46.298347"
       id="rect293" />
    <rect
       x="49.133858"
       y="37.797165"
       width="196.88492"
       height="53.581551"
       id="rect294" />
    <rect
       x="49.133858"
       y="37.797165"
       width="196.00896"
       height="18.718548"
       id="rect295" />
    <rect
       x="49.133858"
       y="37.797165"
       width="198.4252"
       height="32.1805"
       id="rect296" />
    <rect
       x="49.133858"
       y="37.797165"
       width="198.4252"
       height="32.1805"
       id="rect297" />
    <rect
       x="49.133858"
       y="37.797165"
       width="198.4252"
       height="32.1805"
       id="rect298" />
    <rect
       x="49.133858"
       y="37.797165"
       width="165.28809"
       height="29.419073"
       id="rect299" />
    <rect
       x="49.133858"
       y="37.797165"
       width="198.4252"
       height="32.1805"
       id="rect300" />
    <rect
       x="49.133858"
       y="37.797165"
       width="165.28809"
       height="29.419073"
       id="rect301" />
    <rect
       x="49.133858"
       y="37.797165"
       width="164.29289"
       height="67.983376"
       id="rect302" />
  </defs>
  <path
     style="fill:#000000;stroke:#000000;stroke-width:0.66264;stroke-opacity:1;paint-order:fill markers stroke"
     d="m 11.5,7.0 h 105"
     id="path16" />
  <rect
     style="fill:#000000;stroke:none;stroke-width:0.199521;stroke-opacity:1;paint-order:fill markers stroke"
     id="rect1"
     width="9.9002113"
     height="10.47"
     x="118.1"
     y="80.287003" />
  <rect
     style="fill:#000000;fill-opacity:1;stroke:none;stroke-width:0.179557;stroke-dasharray:none"
     id="rect1-8"
     width="7.9180002"
     height="7.9180002"
     x="119.451"
     y="81.822998"
     ry="0" />
  <path
     style="fill:none;fill-opacity:1;fill-rule:evenodd;stroke:#ffffff;stroke-width:0.448891;stroke-linecap:round;stroke-linejoin:round;stroke-dasharray:none;stroke-opacity:1"
     d="m 122.50347,84.658537 c -0.52025,1.050713 -1.68285,2.291186 -2.43211,2.592158"
     id="path1522" />
  <path
     style="fill:none;fill-opacity:1;stroke:#ffffff;stroke-width:0.448891;stroke-linecap:round;stroke-linejoin:round;stroke-dasharray:none;stroke-opacity:1"
     d="m 123.12575,87.250695 -2.52824,-1.999536"
     id="path1528" />
  <path
     style="fill:#000000;stroke:#ffffff;stroke-width:0.448895;stroke-linecap:round;stroke-linejoin:round;stroke-dasharray:none;stroke-opacity:1"
     d="m 121.0302,84.323558 0.62784,0.621266"
     id="path33226" />
  <path
     style="fill:#000000;fill-opacity:1;stroke:#ffffff;stroke-width:0.448895;stroke-linecap:round;stroke-linejoin:round;stroke-dasharray:none;stroke-opacity:1"
     d="m 123.91373,85.594563 h 2.59278"
     id="path1309" />
  <path
     style="fill:none;fill-opacity:1;stroke:#ffffff;stroke-width:0.448895;stroke-linecap:round;stroke-linejoin:round;stroke-dasharray:none;stroke-opacity:1"
     d="m 125.20839,85.845783 1.54027,1.405676"
     id="path1632" />
  <path
     style="fill:#000000;stroke:#ffffff;stroke-width:0.448895;stroke-linecap:round;stroke-linejoin:round;stroke-dasharray:none;stroke-opacity:1"
     d="m 124.23609,84.77597 0.24161,0.729153"
     id="path36278" />
  <path
     style="fill:none;stroke:#ffffff;stroke-width:0.448895;stroke-linecap:round;stroke-linejoin:round;stroke-dasharray:none;stroke-opacity:1"
     d="m 126.20424,84.731847 c -0.0712,0.364577 -0.123,0.616826 -0.37973,0.862716"
     id="path36650" />
  <path
     style="fill:none;fill-opacity:1;stroke:#ffffff;stroke-width:0.448895;stroke-linecap:round;stroke-linejoin:round;stroke-dasharray:none;stroke-opacity:1"
     d="m 125.21012,84.312547 v 1.31376 c 0,0.765331 -0.85849,1.61877 -1.51782,1.61877"
     id="path1518-1"
     sodipodi:nodetypes="csc" />
</svg>
