<?xml version="1.0" encoding="UTF-8" standalone="no"?>
<!-- Created with Inkscape (http://www.inkscape.org/) -->

<svg
   width="128mm"
   height="182mm"
   viewBox="0 0 128 182"
   version="1.1"
   id="svg1"
   sodipodi:docname="2_15_神十位_right.svg"
   inkscape:version="1.3 (0e150ed6c4, 2023-07-21)"
   inkscape:export-filename="2_15_神十位_right.png"
   inkscape:export-xdpi="960"
   inkscape:export-ydpi="960"
   xml:space="preserve"
   xmlns:inkscape="http://www.inkscape.org/namespaces/inkscape"
   xmlns:sodipodi="http://sodipodi.sourceforge.net/DTD/sodipodi-0.dtd"
   xmlns="http://www.w3.org/2000/svg"
   xmlns:svg="http://www.w3.org/2000/svg"><sodipodi:namedview
     id="namedview1"
     pagecolor="#ffffff"
     bordercolor="#000000"
     borderopacity="0.25"
     inkscape:showpageshadow="2"
     inkscape:pageopacity="0.0"
     inkscape:pagecheckerboard="0"
     inkscape:deskcolor="#d1d1d1"
     inkscape:document-units="mm"
     inkscape:zoom="6.1455493"
     inkscape:cx="411.43596"
     inkscape:cy="601.32949"
     inkscape:window-width="1920"
     inkscape:window-height="1009"
     inkscape:window-x="-8"
     inkscape:window-y="-8"
     inkscape:window-maximized="1"
     inkscape:current-layer="svg1" /><defs
     id="defs1"><rect
       x="49.133858"
       y="37.797165"
       width="198.4252"
       height="32.1805"
       id="rect18" /><rect
       x="49.133858"
       y="37.797165"
       width="198.4252"
       height="32.1805"
       id="rect82" /><rect
       x="49.133858"
       y="37.797165"
       width="211.86263"
       height="46.298347"
       id="rect86" /><rect
       x="49.133858"
       y="37.797165"
       width="196.88492"
       height="53.581551"
       id="rect90" /><rect
       x="49.133858"
       y="37.797165"
       width="196.00896"
       height="18.718548"
       id="rect105" /><rect
       x="49.133858"
       y="37.797165"
       width="198.4252"
       height="32.1805"
       id="rect109" /><rect
       x="49.133858"
       y="37.797165"
       width="198.4252"
       height="32.1805"
       id="rect116" /><rect
       x="49.133858"
       y="37.797165"
       width="198.4252"
       height="32.1805"
       id="rect117" /><rect
       x="49.133858"
       y="37.797165"
       width="165.28809"
       height="29.419073"
       id="rect118" /><rect
       x="49.133858"
       y="37.797165"
       width="198.4252"
       height="32.1805"
       id="rect121" /><rect
       x="49.133858"
       y="37.797165"
       width="165.28809"
       height="29.419073"
       id="rect124" /><rect
       x="49.133858"
       y="37.797165"
       width="164.29289"
       height="67.983376"
       id="rect132" /><rect
       x="49.133858"
       y="37.797165"
       width="196.88492"
       height="53.581551"
       id="rect145" /><rect
       x="49.133858"
       y="37.797165"
       width="164.29289"
       height="67.983376"
       id="rect146" /><rect
       x="49.133858"
       y="37.797165"
       width="198.4252"
       height="32.1805"
       id="rect190" /><rect
       x="49.133858"
       y="37.797165"
       width="198.4252"
       height="32.1805"
       id="rect191" /><rect
       x="49.133858"
       y="37.797165"
       width="211.86263"
       height="46.298347"
       id="rect192" /><rect
       x="49.133858"
       y="37.797165"
       width="196.88492"
       height="53.581551"
       id="rect193" /><rect
       x="49.133858"
       y="37.797165"
       width="196.00896"
       height="18.718548"
       id="rect194" /><rect
       x="49.133858"
       y="37.797165"
       width="198.4252"
       height="32.1805"
       id="rect195" /><rect
       x="49.133858"
       y="37.797165"
       width="198.4252"
       height="32.1805"
       id="rect196" /><rect
       x="49.133858"
       y="37.797165"
       width="198.4252"
       height="32.1805"
       id="rect197" /><rect
       x="49.133858"
       y="37.797165"
       width="165.28809"
       height="29.419073"
       id="rect198" /><rect
       x="49.133858"
       y="37.797165"
       width="198.4252"
       height="32.1805"
       id="rect199" /><rect
       x="49.133858"
       y="37.797165"
       width="165.28809"
       height="29.419073"
       id="rect200" /><rect
       x="49.133858"
       y="37.797165"
       width="164.29289"
       height="67.983376"
       id="rect201" /><rect
       x="49.133858"
       y="37.797165"
       width="198.4252"
       height="32.1805"
       id="rect277" /><rect
       x="49.133858"
       y="37.797165"
       width="198.4252"
       height="32.1805"
       id="rect278" /><rect
       x="49.133858"
       y="37.797165"
       width="211.86263"
       height="46.298347"
       id="rect279" /><rect
       x="49.133858"
       y="37.797165"
       width="196.88492"
       height="53.581551"
       id="rect280" /><rect
       x="49.133858"
       y="37.797165"
       width="196.00896"
       height="18.718548"
       id="rect281" /><rect
       x="49.133858"
       y="37.797165"
       width="198.4252"
       height="32.1805"
       id="rect282" /><rect
       x="49.133858"
       y="37.797165"
       width="198.4252"
       height="32.1805"
       id="rect283" /><rect
       x="49.133858"
       y="37.797165"
       width="198.4252"
       height="32.1805"
       id="rect284" /><rect
       x="49.133858"
       y="37.797165"
       width="165.28809"
       height="29.419073"
       id="rect285" /><rect
       x="49.133858"
       y="37.797165"
       width="198.4252"
       height="32.1805"
       id="rect286" /><rect
       x="49.133858"
       y="37.797165"
       width="165.28809"
       height="29.419073"
       id="rect287" /><rect
       x="49.133858"
       y="37.797165"
       width="164.29289"
       height="67.983376"
       id="rect288" /><rect
       x="49.133858"
       y="37.797165"
       width="196.88492"
       height="53.581551"
       id="rect289" /><rect
       x="49.133858"
       y="37.797165"
       width="164.29289"
       height="67.983376"
       id="rect290" /><rect
       x="49.133858"
       y="37.797165"
       width="198.4252"
       height="32.1805"
       id="rect291" /><rect
       x="49.133858"
       y="37.797165"
       width="198.4252"
       height="32.1805"
       id="rect292" /><rect
       x="49.133858"
       y="37.797165"
       width="211.86263"
       height="46.298347"
       id="rect293" /><rect
       x="49.133858"
       y="37.797165"
       width="196.88492"
       height="53.581551"
       id="rect294" /><rect
       x="49.133858"
       y="37.797165"
       width="196.00896"
       height="18.718548"
       id="rect295" /><rect
       x="49.133858"
       y="37.797165"
       width="198.4252"
       height="32.1805"
       id="rect296" /><rect
       x="49.133858"
       y="37.797165"
       width="198.4252"
       height="32.1805"
       id="rect297" /><rect
       x="49.133858"
       y="37.797165"
       width="198.4252"
       height="32.1805"
       id="rect298" /><rect
       x="49.133858"
       y="37.797165"
       width="165.28809"
       height="29.419073"
       id="rect299" /><rect
       x="49.133858"
       y="37.797165"
       width="198.4252"
       height="32.1805"
       id="rect300" /><rect
       x="49.133858"
       y="37.797165"
       width="165.28809"
       height="29.419073"
       id="rect301" /><rect
       x="49.133858"
       y="37.797165"
       width="164.29289"
       height="67.983376"
       id="rect302" /></defs><path
     style="fill:#000000;stroke:#000000;stroke-width:0.66264;stroke-opacity:1;paint-order:fill markers stroke"
     d="m 11.5,7.0 h 105"
     id="path16" /><rect
     style="fill:#000000;stroke:none;stroke-width:0.199521;stroke-opacity:1;paint-order:fill markers stroke"
     id="rect1"
     width="9.9002113"
     height="10.47"
     x="118.1"
     y="153.577" /><rect
     style="fill:#000000;fill-opacity:1;stroke:none;stroke-width:0.163231"
     id="rect1-5"
     width="7.1980004"
     height="7.1980004"
     x="119.45099"
     y="155.11299"
     ry="0" /><path
     style="fill:none;stroke:#ffffff;stroke-width:0.408076;stroke-linecap:round;stroke-linejoin:round;stroke-opacity:1"
     d="m 123.21016,159.23572 h 1.99686 l -0.39368,0.86617 h 0.83321 c 0,0 -0.34169,1.14902 -0.54773,1.54731 l -0.6076,-0.61054"
     id="path5879" /><path
     style="fill:none;stroke:#ffffff;stroke-width:0.408076;stroke-linecap:round;stroke-linejoin:round;stroke-opacity:1"
     d="m 120.66765,159.06986 c -0.0391,0.32845 -0.14044,0.78564 -0.21479,1.09065 v 0 h 1.64726 c -0.0218,0.89878 -0.1244,1.17749 -0.33561,1.64117 l -0.49751,-0.64122"
     id="path5881" /><path
     style="fill:none;stroke:#ffffff;stroke-width:0.408076;stroke-linecap:round;stroke-linejoin:round;stroke-opacity:1"
     d="m 122.13172,155.76847 h 1.74396 l -1.74626,1.50315 c -0.51406,0.3905 -0.242,0.90472 0.22257,0.90472 h 1.89467 l -0.32372,-0.62857"
     id="path3527"
     sodipodi:nodetypes="cccscc" /></svg>
